<?xml version="1.0" standalone="no"?>
 <!DOCTYPE svg PUBLIC "-//W3C//DTD SVG 1.1//EN" 
 "http://www.w3.org/Graphics/SVG/1.1/DTD/svg11.dtd"> 
<svg
  xmlns:svg="http://www.w3.org/2000/svg"
  xmlns="http://www.w3.org/2000/svg"
  xmlns:xlink="http://www.w3.org/1999/xlink"
  version="1.1"
  width="25.709880cm" height="8.740140cm" viewBox="0 0 101220 34410">
<title>SVG Picture created as keyboard-brd.svg date 2021/06/30 12:49:21 </title>
  <desc>Picture generated by PCBNEW </desc>
<g style="fill:#000000; fill-opacity:1;stroke:#000000; stroke-opacity:1;
stroke-linecap:round; stroke-linejoin:round;"
 transform="translate(0 0) scale(1 1)">
</g>
<g style="fill:#000000; fill-opacity:0.0; 
stroke:#000000; stroke-width:-0.000393701; stroke-opacity:1; 
stroke-linecap:round; stroke-linejoin:round;">
</g>
<g style="fill:#C2C2C2; fill-opacity:0.0; 
stroke:#C2C2C2; stroke-width:-0.000393701; stroke-opacity:1; 
stroke-linecap:round; stroke-linejoin:round;">
</g>
<g style="fill:#C2C2C2; fill-opacity:0.0; 
stroke:#C2C2C2; stroke-width:78.7402; stroke-opacity:1; 
stroke-linecap:round; stroke-linejoin:round;">
<path d="M3300 4220
L5300 4220
" />
<path d="M3300 7120
L3300 4220
" />
<path d="M5300 7120
L3300 7120
" />
<path d="M5300 4220
L5300 7120
" />
</g>
<g style="fill:#C2C2C2; fill-opacity:0.0; 
stroke:#C2C2C2; stroke-width:59.0551; stroke-opacity:1; 
stroke-linecap:round; stroke-linejoin:round;">
<path d="M22868 18175
L23655 18175
" />
<path d="M23655 18175
L23655 18963
" />
<path d="M22868 23687
L23655 23687
" />
<path d="M23655 23687
L23655 22900
" />
<path d="M18143 22900
L18143 23687
" />
<path d="M18143 23687
L18931 23687
" />
<path d="M18931 18175
L18143 18175
" />
<path d="M18143 18175
L18143 18963
" />
<path d="M17149 17181
L24649 17181
" />
<path d="M24649 17181
L24649 24681
" />
<path d="M24649 24681
L17149 24681
" />
<path d="M17149 24681
L17149 17181
" />
<path d="M54741 3176
L55528 3176
" />
<path d="M55528 3176
L55528 3964
" />
<path d="M54741 8688
L55528 8688
" />
<path d="M55528 8688
L55528 7901
" />
<path d="M50016 7901
L50016 8688
" />
<path d="M50016 8688
L50804 8688
" />
<path d="M50804 3176
L50016 3176
" />
<path d="M50016 3176
L50016 3964
" />
<path d="M49022 2182
L56522 2182
" />
<path d="M56522 2182
L56522 9682
" />
<path d="M56522 9682
L49022 9682
" />
<path d="M49022 9682
L49022 2182
" />
<path d="M30367 18175
L31155 18175
" />
<path d="M31155 18175
L31155 18963
" />
<path d="M30367 23687
L31155 23687
" />
<path d="M31155 23687
L31155 22900
" />
<path d="M25643 22900
L25643 23687
" />
<path d="M25643 23687
L26430 23687
" />
<path d="M26430 18175
L25643 18175
" />
<path d="M25643 18175
L25643 18963
" />
<path d="M24649 17181
L32149 17181
" />
<path d="M32149 17181
L32149 24681
" />
<path d="M32149 24681
L24649 24681
" />
<path d="M24649 24681
L24649 17181
" />
<path d="M24743 25675
L25530 25675
" />
<path d="M25530 25675
L25530 26462
" />
<path d="M24743 31187
L25530 31187
" />
<path d="M25530 31187
L25530 30399
" />
<path d="M20018 30399
L20018 31187
" />
<path d="M20018 31187
L20806 31187
" />
<path d="M20806 25675
L20018 25675
" />
<path d="M20018 25675
L20018 26462
" />
<path d="M19024 24681
L26524 24681
" />
<path d="M26524 24681
L26524 32181
" />
<path d="M26524 32181
L19024 32181
" />
<path d="M19024 32181
L19024 24681
" />
<path d="M24743 3176
L25530 3176
" />
<path d="M25530 3176
L25530 3964
" />
<path d="M24743 8688
L25530 8688
" />
<path d="M25530 8688
L25530 7901
" />
<path d="M20018 7901
L20018 8688
" />
<path d="M20018 8688
L20806 8688
" />
<path d="M20806 3176
L20018 3176
" />
<path d="M20018 3176
L20018 3964
" />
<path d="M19024 2182
L26524 2182
" />
<path d="M26524 2182
L26524 9682
" />
<path d="M26524 9682
L19024 9682
" />
<path d="M19024 9682
L19024 2182
" />
<path d="M45366 18175
L46154 18175
" />
<path d="M46154 18175
L46154 18963
" />
<path d="M45366 23687
L46154 23687
" />
<path d="M46154 23687
L46154 22900
" />
<path d="M40642 22900
L40642 23687
" />
<path d="M40642 23687
L41429 23687
" />
<path d="M41429 18175
L40642 18175
" />
<path d="M40642 18175
L40642 18963
" />
<path d="M39648 17181
L47148 17181
" />
<path d="M47148 17181
L47148 24681
" />
<path d="M47148 24681
L39648 24681
" />
<path d="M39648 24681
L39648 17181
" />
<path d="M62240 3176
L63028 3176
" />
<path d="M63028 3176
L63028 3964
" />
<path d="M62240 8688
L63028 8688
" />
<path d="M63028 8688
L63028 7901
" />
<path d="M57516 7901
L57516 8688
" />
<path d="M57516 8688
L58303 8688
" />
<path d="M58303 3176
L57516 3176
" />
<path d="M57516 3176
L57516 3964
" />
<path d="M56522 2182
L64022 2182
" />
<path d="M64022 2182
L64022 9682
" />
<path d="M64022 9682
L56522 9682
" />
<path d="M56522 9682
L56522 2182
" />
<path d="M9744 3176
L10531 3176
" />
<path d="M10531 3176
L10531 3964
" />
<path d="M9744 8688
L10531 8688
" />
<path d="M10531 8688
L10531 7901
" />
<path d="M5019 7901
L5019 8688
" />
<path d="M5019 8688
L5807 8688
" />
<path d="M5807 3176
L5019 3176
" />
<path d="M5019 3176
L5019 3964
" />
<path d="M4025 2182
L11525 2182
" />
<path d="M11525 2182
L11525 9682
" />
<path d="M11525 9682
L4025 9682
" />
<path d="M4025 9682
L4025 2182
" />
<path d="M47241 3176
L48029 3176
" />
<path d="M48029 3176
L48029 3964
" />
<path d="M47241 8688
L48029 8688
" />
<path d="M48029 8688
L48029 7901
" />
<path d="M42517 7901
L42517 8688
" />
<path d="M42517 8688
L43304 8688
" />
<path d="M43304 3176
L42517 3176
" />
<path d="M42517 3176
L42517 3964
" />
<path d="M41523 2182
L49023 2182
" />
<path d="M49023 2182
L49023 9682
" />
<path d="M49023 9682
L41523 9682
" />
<path d="M41523 9682
L41523 2182
" />
<path d="M46304 25675
L47091 25675
" />
<path d="M47091 25675
L47091 26462
" />
<path d="M46304 31187
L47091 31187
" />
<path d="M47091 31187
L47091 30399
" />
<path d="M41579 30399
L41579 31187
" />
<path d="M41579 31187
L42367 31187
" />
<path d="M42367 25675
L41579 25675
" />
<path d="M41579 25675
L41579 26462
" />
<path d="M34023 24681
L54648 24681
" />
<path d="M54648 24681
L54648 32181
" />
<path d="M34023 32181
L54648 32181
" />
<path d="M34023 32181
L34023 24681
" />
<path d="M92238 25675
L93026 25675
" />
<path d="M93026 25675
L93026 26462
" />
<path d="M92238 31187
L93026 31187
" />
<path d="M93026 31187
L93026 30399
" />
<path d="M87514 30399
L87514 31187
" />
<path d="M87514 31187
L88301 31187
" />
<path d="M88301 25675
L87514 25675
" />
<path d="M87514 25675
L87514 26462
" />
<path d="M86520 24681
L94020 24681
" />
<path d="M94020 24681
L94020 32181
" />
<path d="M94020 32181
L86520 32181
" />
<path d="M86520 32181
L86520 24681
" />
<path d="M65053 25675
L65840 25675
" />
<path d="M65840 25675
L65840 26462
" />
<path d="M65053 31187
L65840 31187
" />
<path d="M65840 31187
L65840 30399
" />
<path d="M60328 30399
L60328 31187
" />
<path d="M60328 31187
L61116 31187
" />
<path d="M61116 25675
L60328 25675
" />
<path d="M60328 25675
L60328 26462
" />
<path d="M54647 24681
L71522 24681
" />
<path d="M71522 24681
L71522 32181
" />
<path d="M54647 32181
L71522 32181
" />
<path d="M54647 32181
L54647 24681
" />
<path d="M90364 18175
L91151 18175
" />
<path d="M91151 18175
L91151 18963
" />
<path d="M90364 23687
L91151 23687
" />
<path d="M91151 23687
L91151 22900
" />
<path d="M85639 22900
L85639 23687
" />
<path d="M85639 23687
L86427 23687
" />
<path d="M86427 18175
L85639 18175
" />
<path d="M85639 18175
L85639 18963
" />
<path d="M84645 17181
L92145 17181
" />
<path d="M92145 17181
L92145 24681
" />
<path d="M92145 24681
L84645 24681
" />
<path d="M84645 24681
L84645 17181
" />
<path d="M15368 18175
L16156 18175
" />
<path d="M16156 18175
L16156 18963
" />
<path d="M15368 23687
L16156 23687
" />
<path d="M16156 23687
L16156 22900
" />
<path d="M10644 22900
L10644 23687
" />
<path d="M10644 23687
L11431 23687
" />
<path d="M11431 18175
L10644 18175
" />
<path d="M10644 18175
L10644 18963
" />
<path d="M9650 17181
L17150 17181
" />
<path d="M17150 17181
L17150 24681
" />
<path d="M17150 24681
L9650 24681
" />
<path d="M9650 24681
L9650 17181
" />
<path d="M86614 10676
L87401 10676
" />
<path d="M87401 10676
L87401 11463
" />
<path d="M86614 16188
L87401 16188
" />
<path d="M87401 16188
L87401 15400
" />
<path d="M81889 15400
L81889 16188
" />
<path d="M81889 16188
L82677 16188
" />
<path d="M82677 10676
L81889 10676
" />
<path d="M81889 10676
L81889 11463
" />
<path d="M80895 9682
L88395 9682
" />
<path d="M88395 9682
L88395 17182
" />
<path d="M88395 17182
L80895 17182
" />
<path d="M80895 17182
L80895 9682
" />
<path d="M26618 10676
L27405 10676
" />
<path d="M27405 10676
L27405 11463
" />
<path d="M26618 16188
L27405 16188
" />
<path d="M27405 16188
L27405 15400
" />
<path d="M21893 15400
L21893 16188
" />
<path d="M21893 16188
L22681 16188
" />
<path d="M22681 10676
L21893 10676
" />
<path d="M21893 10676
L21893 11463
" />
<path d="M20899 9682
L28399 9682
" />
<path d="M28399 9682
L28399 17182
" />
<path d="M28399 17182
L20899 17182
" />
<path d="M20899 17182
L20899 9682
" />
<path d="M39742 3176
L40529 3176
" />
<path d="M40529 3176
L40529 3964
" />
<path d="M39742 8688
L40529 8688
" />
<path d="M40529 8688
L40529 7901
" />
<path d="M35017 7901
L35017 8688
" />
<path d="M35017 8688
L35805 8688
" />
<path d="M35805 3176
L35017 3176
" />
<path d="M35017 3176
L35017 3964
" />
<path d="M34023 2182
L41523 2182
" />
<path d="M41523 2182
L41523 9682
" />
<path d="M41523 9682
L34023 9682
" />
<path d="M34023 9682
L34023 2182
" />
<path d="M94113 10676
L94901 10676
" />
<path d="M94901 10676
L94901 11463
" />
<path d="M94113 16188
L94901 16188
" />
<path d="M94901 16188
L94901 15400
" />
<path d="M89389 15400
L89389 16188
" />
<path d="M89389 16188
L90176 16188
" />
<path d="M90176 10676
L89389 10676
" />
<path d="M89389 10676
L89389 11463
" />
<path d="M88395 9682
L95895 9682
" />
<path d="M95895 9682
L95895 17182
" />
<path d="M95895 17182
L88395 17182
" />
<path d="M88395 17182
L88395 9682
" />
<path d="M17243 3176
L18031 3176
" />
<path d="M18031 3176
L18031 3964
" />
<path d="M17243 8688
L18031 8688
" />
<path d="M18031 8688
L18031 7901
" />
<path d="M12519 7901
L12519 8688
" />
<path d="M12519 8688
L13306 8688
" />
<path d="M13306 3176
L12519 3176
" />
<path d="M12519 3176
L12519 3964
" />
<path d="M11525 2182
L19025 2182
" />
<path d="M19025 2182
L19025 9682
" />
<path d="M19025 9682
L11525 9682
" />
<path d="M11525 9682
L11525 2182
" />
<path d="M84739 3176
L85526 3176
" />
<path d="M85526 3176
L85526 3964
" />
<path d="M84739 8688
L85526 8688
" />
<path d="M85526 8688
L85526 7901
" />
<path d="M80015 7901
L80015 8688
" />
<path d="M80015 8688
L80802 8688
" />
<path d="M80802 3176
L80015 3176
" />
<path d="M80015 3176
L80015 3964
" />
<path d="M79020 2182
L86520 2182
" />
<path d="M86520 2182
L86520 9682
" />
<path d="M86520 9682
L79020 9682
" />
<path d="M79020 9682
L79020 2182
" />
<path d="M77239 3176
L78027 3176
" />
<path d="M78027 3176
L78027 3964
" />
<path d="M77239 8688
L78027 8688
" />
<path d="M78027 8688
L78027 7901
" />
<path d="M72515 7901
L72515 8688
" />
<path d="M72515 8688
L73302 8688
" />
<path d="M73302 3176
L72515 3176
" />
<path d="M72515 3176
L72515 3964
" />
<path d="M71521 2182
L79021 2182
" />
<path d="M79021 2182
L79021 9682
" />
<path d="M79021 9682
L71521 9682
" />
<path d="M71521 9682
L71521 2182
" />
<path d="M60366 18175
L61153 18175
" />
<path d="M61153 18175
L61153 18963
" />
<path d="M60366 23687
L61153 23687
" />
<path d="M61153 23687
L61153 22900
" />
<path d="M55641 22900
L55641 23687
" />
<path d="M55641 23687
L56428 23687
" />
<path d="M56428 18175
L55641 18175
" />
<path d="M55641 18175
L55641 18963
" />
<path d="M54647 17181
L62147 17181
" />
<path d="M62147 17181
L62147 24681
" />
<path d="M62147 24681
L54647 24681
" />
<path d="M54647 24681
L54647 17181
" />
<path d="M77239 25675
L78027 25675
" />
<path d="M78027 25675
L78027 26462
" />
<path d="M77239 31187
L78027 31187
" />
<path d="M78027 31187
L78027 30399
" />
<path d="M72515 30399
L72515 31187
" />
<path d="M72515 31187
L73302 31187
" />
<path d="M73302 25675
L72515 25675
" />
<path d="M72515 25675
L72515 26462
" />
<path d="M71521 24681
L79021 24681
" />
<path d="M79021 24681
L79021 32181
" />
<path d="M79021 32181
L71521 32181
" />
<path d="M71521 32181
L71521 24681
" />
<path d="M67865 18175
L68652 18175
" />
<path d="M68652 18175
L68652 18963
" />
<path d="M67865 23687
L68652 23687
" />
<path d="M68652 23687
L68652 22900
" />
<path d="M63141 22900
L63141 23687
" />
<path d="M63141 23687
L63928 23687
" />
<path d="M63928 18175
L63141 18175
" />
<path d="M63141 18175
L63141 18963
" />
<path d="M62147 17181
L69647 17181
" />
<path d="M69647 17181
L69647 24681
" />
<path d="M69647 24681
L62147 24681
" />
<path d="M62147 24681
L62147 17181
" />
<path d="M79114 10676
L79902 10676
" />
<path d="M79902 10676
L79902 11463
" />
<path d="M79114 16188
L79902 16188
" />
<path d="M79902 16188
L79902 15400
" />
<path d="M74390 15400
L74390 16188
" />
<path d="M74390 16188
L75177 16188
" />
<path d="M75177 10676
L74390 10676
" />
<path d="M74390 10676
L74390 11463
" />
<path d="M73396 9682
L80896 9682
" />
<path d="M80896 9682
L80896 17182
" />
<path d="M80896 17182
L73396 17182
" />
<path d="M73396 17182
L73396 9682
" />
<path d="M71615 10676
L72402 10676
" />
<path d="M72402 10676
L72402 11463
" />
<path d="M71615 16188
L72402 16188
" />
<path d="M72402 16188
L72402 15400
" />
<path d="M66890 15400
L66890 16188
" />
<path d="M66890 16188
L67678 16188
" />
<path d="M67678 10676
L66890 10676
" />
<path d="M66890 10676
L66890 11463
" />
<path d="M65896 9682
L73396 9682
" />
<path d="M73396 9682
L73396 17182
" />
<path d="M73396 17182
L65896 17182
" />
<path d="M65896 17182
L65896 9682
" />
<path d="M64115 10676
L64903 10676
" />
<path d="M64903 10676
L64903 11463
" />
<path d="M64115 16188
L64903 16188
" />
<path d="M64903 16188
L64903 15400
" />
<path d="M59391 15400
L59391 16188
" />
<path d="M59391 16188
L60178 16188
" />
<path d="M60178 10676
L59391 10676
" />
<path d="M59391 10676
L59391 11463
" />
<path d="M58397 9682
L65897 9682
" />
<path d="M65897 9682
L65897 17182
" />
<path d="M65897 17182
L58397 17182
" />
<path d="M58397 17182
L58397 9682
" />
<path d="M69740 3176
L70527 3176
" />
<path d="M70527 3176
L70527 3964
" />
<path d="M69740 8688
L70527 8688
" />
<path d="M70527 8688
L70527 7901
" />
<path d="M65016 7901
L65016 8688
" />
<path d="M65016 8688
L65803 8688
" />
<path d="M65803 3176
L65016 3176
" />
<path d="M65016 3176
L65016 3964
" />
<path d="M64021 2182
L71521 2182
" />
<path d="M71521 2182
L71521 9682
" />
<path d="M71521 9682
L64021 9682
" />
<path d="M64021 9682
L64021 2182
" />
<path d="M56616 10676
L57403 10676
" />
<path d="M57403 10676
L57403 11463
" />
<path d="M56616 16188
L57403 16188
" />
<path d="M57403 16188
L57403 15400
" />
<path d="M51891 15400
L51891 16188
" />
<path d="M51891 16188
L52679 16188
" />
<path d="M52679 10676
L51891 10676
" />
<path d="M51891 10676
L51891 11463
" />
<path d="M50897 9682
L58397 9682
" />
<path d="M58397 9682
L58397 17182
" />
<path d="M58397 17182
L50897 17182
" />
<path d="M50897 17182
L50897 9682
" />
<path d="M49116 10676
L49904 10676
" />
<path d="M49904 10676
L49904 11463
" />
<path d="M49116 16188
L49904 16188
" />
<path d="M49904 16188
L49904 15400
" />
<path d="M44392 15400
L44392 16188
" />
<path d="M44392 16188
L45179 16188
" />
<path d="M45179 10676
L44392 10676
" />
<path d="M44392 10676
L44392 11463
" />
<path d="M43398 9682
L50898 9682
" />
<path d="M50898 9682
L50898 17182
" />
<path d="M50898 17182
L43398 17182
" />
<path d="M43398 17182
L43398 9682
" />
<path d="M41617 10676
L42404 10676
" />
<path d="M42404 10676
L42404 11463
" />
<path d="M41617 16188
L42404 16188
" />
<path d="M42404 16188
L42404 15400
" />
<path d="M36892 15400
L36892 16188
" />
<path d="M36892 16188
L37680 16188
" />
<path d="M37680 10676
L36892 10676
" />
<path d="M36892 10676
L36892 11463
" />
<path d="M35898 9682
L43398 9682
" />
<path d="M43398 9682
L43398 17182
" />
<path d="M43398 17182
L35898 17182
" />
<path d="M35898 17182
L35898 9682
" />
<path d="M84739 25675
L85526 25675
" />
<path d="M85526 25675
L85526 26462
" />
<path d="M84739 31187
L85526 31187
" />
<path d="M85526 31187
L85526 30399
" />
<path d="M80015 30399
L80015 31187
" />
<path d="M80015 31187
L80802 31187
" />
<path d="M80802 25675
L80015 25675
" />
<path d="M80015 25675
L80015 26462
" />
<path d="M79020 24681
L86520 24681
" />
<path d="M86520 24681
L86520 32181
" />
<path d="M86520 32181
L79020 32181
" />
<path d="M79020 32181
L79020 24681
" />
<path d="M32242 3176
L33030 3176
" />
<path d="M33030 3176
L33030 3964
" />
<path d="M32242 8688
L33030 8688
" />
<path d="M33030 8688
L33030 7901
" />
<path d="M27518 7901
L27518 8688
" />
<path d="M27518 8688
L28305 8688
" />
<path d="M28305 3176
L27518 3176
" />
<path d="M27518 3176
L27518 3964
" />
<path d="M26524 2182
L34024 2182
" />
<path d="M34024 2182
L34024 9682
" />
<path d="M34024 9682
L26524 9682
" />
<path d="M26524 9682
L26524 2182
" />
<path d="M82864 18175
L83651 18175
" />
<path d="M83651 18175
L83651 18963
" />
<path d="M82864 23687
L83651 23687
" />
<path d="M83651 23687
L83651 22900
" />
<path d="M78140 22900
L78140 23687
" />
<path d="M78140 23687
L78927 23687
" />
<path d="M78927 18175
L78140 18175
" />
<path d="M78140 18175
L78140 18963
" />
<path d="M77146 17181
L84646 17181
" />
<path d="M84646 17181
L84646 24681
" />
<path d="M84646 24681
L77146 24681
" />
<path d="M77146 24681
L77146 17181
" />
<path d="M34117 10676
L34905 10676
" />
<path d="M34905 10676
L34905 11463
" />
<path d="M34117 16188
L34905 16188
" />
<path d="M34905 16188
L34905 15400
" />
<path d="M29393 15400
L29393 16188
" />
<path d="M29393 16188
L30180 16188
" />
<path d="M30180 10676
L29393 10676
" />
<path d="M29393 10676
L29393 11463
" />
<path d="M28399 9682
L35899 9682
" />
<path d="M35899 9682
L35899 17182
" />
<path d="M35899 17182
L28399 17182
" />
<path d="M28399 17182
L28399 9682
" />
<path d="M11619 10676
L12406 10676
" />
<path d="M12406 10676
L12406 11463
" />
<path d="M11619 16188
L12406 16188
" />
<path d="M12406 16188
L12406 15400
" />
<path d="M6894 15400
L6894 16188
" />
<path d="M6894 16188
L7682 16188
" />
<path d="M7682 10676
L6894 10676
" />
<path d="M6894 10676
L6894 11463
" />
<path d="M5900 9682
L13400 9682
" />
<path d="M13400 9682
L13400 17182
" />
<path d="M13400 17182
L5900 17182
" />
<path d="M5900 17182
L5900 9682
" />
<path d="M17243 25675
L18031 25675
" />
<path d="M18031 25675
L18031 26462
" />
<path d="M17243 31187
L18031 31187
" />
<path d="M18031 31187
L18031 30399
" />
<path d="M12519 30399
L12519 31187
" />
<path d="M12519 31187
L13306 31187
" />
<path d="M13306 25675
L12519 25675
" />
<path d="M12519 25675
L12519 26462
" />
<path d="M11525 24681
L19025 24681
" />
<path d="M19025 24681
L19025 32181
" />
<path d="M19025 32181
L11525 32181
" />
<path d="M11525 32181
L11525 24681
" />
<path d="M75365 18175
L76152 18175
" />
<path d="M76152 18175
L76152 18963
" />
<path d="M75365 23687
L76152 23687
" />
<path d="M76152 23687
L76152 22900
" />
<path d="M70640 22900
L70640 23687
" />
<path d="M70640 23687
L71428 23687
" />
<path d="M71428 18175
L70640 18175
" />
<path d="M70640 18175
L70640 18963
" />
<path d="M69646 17181
L77146 17181
" />
<path d="M77146 17181
L77146 24681
" />
<path d="M77146 24681
L69646 24681
" />
<path d="M69646 24681
L69646 17181
" />
<path d="M37867 18175
L38654 18175
" />
<path d="M38654 18175
L38654 18963
" />
<path d="M37867 23687
L38654 23687
" />
<path d="M38654 23687
L38654 22900
" />
<path d="M33143 22900
L33143 23687
" />
<path d="M33143 23687
L33930 23687
" />
<path d="M33930 18175
L33143 18175
" />
<path d="M33143 18175
L33143 18963
" />
<path d="M32148 17181
L39648 17181
" />
<path d="M39648 17181
L39648 24681
" />
<path d="M39648 24681
L32148 24681
" />
<path d="M32148 24681
L32148 17181
" />
<path d="M92238 3176
L93026 3176
" />
<path d="M93026 3176
L93026 3964
" />
<path d="M92238 8688
L93026 8688
" />
<path d="M93026 8688
L93026 7901
" />
<path d="M87514 7901
L87514 8688
" />
<path d="M87514 8688
L88301 8688
" />
<path d="M88301 3176
L87514 3176
" />
<path d="M87514 3176
L87514 3964
" />
<path d="M86520 2182
L94020 2182
" />
<path d="M94020 2182
L94020 9682
" />
<path d="M94020 9682
L86520 9682
" />
<path d="M86520 9682
L86520 2182
" />
<path d="M52866 18175
L53653 18175
" />
<path d="M53653 18175
L53653 18963
" />
<path d="M52866 23687
L53653 23687
" />
<path d="M53653 23687
L53653 22900
" />
<path d="M48142 22900
L48142 23687
" />
<path d="M48142 23687
L48929 23687
" />
<path d="M48929 18175
L48142 18175
" />
<path d="M48142 18175
L48142 18963
" />
<path d="M47147 17181
L54647 17181
" />
<path d="M54647 17181
L54647 24681
" />
<path d="M54647 24681
L47147 24681
" />
<path d="M47147 24681
L47147 17181
" />
<path d="M32242 25675
L33030 25675
" />
<path d="M33030 25675
L33030 26462
" />
<path d="M32242 31187
L33030 31187
" />
<path d="M33030 31187
L33030 30399
" />
<path d="M27518 30399
L27518 31187
" />
<path d="M27518 31187
L28305 31187
" />
<path d="M28305 25675
L27518 25675
" />
<path d="M27518 25675
L27518 26462
" />
<path d="M26524 24681
L34024 24681
" />
<path d="M34024 24681
L34024 32181
" />
<path d="M34024 32181
L26524 32181
" />
<path d="M26524 32181
L26524 24681
" />
<path d="M19118 10676
L19906 10676
" />
<path d="M19906 10676
L19906 11463
" />
<path d="M19118 16188
L19906 16188
" />
<path d="M19906 16188
L19906 15400
" />
<path d="M14394 15400
L14394 16188
" />
<path d="M14394 16188
L15181 16188
" />
<path d="M15181 10676
L14394 10676
" />
<path d="M14394 10676
L14394 11463
" />
<path d="M13400 9682
L20900 9682
" />
<path d="M20900 9682
L20900 17182
" />
<path d="M20900 17182
L13400 17182
" />
<path d="M13400 17182
L13400 9682
" />
<path d="M97863 18175
L98651 18175
" />
<path d="M98651 18175
L98651 18963
" />
<path d="M97863 23687
L98651 23687
" />
<path d="M98651 23687
L98651 22900
" />
<path d="M93139 22900
L93139 23687
" />
<path d="M93139 23687
L93926 23687
" />
<path d="M93926 18175
L93139 18175
" />
<path d="M93139 18175
L93139 18963
" />
<path d="M92145 17181
L99645 17181
" />
<path d="M99645 17181
L99645 24681
" />
<path d="M99645 24681
L92145 24681
" />
<path d="M92145 24681
L92145 17181
" />
<g >
</g>
<g >
</g>
<g >
</g>
<g >
</g>
<g >
</g>
<g >
</g>
<g >
</g>
<g >
</g>
<g >
</g>
<g >
</g>
<g >
</g>
<g >
</g>
<g >
</g>
<g >
</g>
<g >
</g>
<g >
</g>
<g >
</g>
<g >
</g>
<g >
</g>
<g >
</g>
<g >
</g>
<g >
</g>
<g >
</g>
<g >
</g>
<g >
</g>
<g >
</g>
<g >
</g>
<g >
</g>
<g >
</g>
<g >
</g>
<g >
</g>
<g >
</g>
<g >
</g>
<g >
</g>
<g >
</g>
<g >
</g>
<g >
</g>
<g >
</g>
<g >
</g>
<g >
</g>
<g >
</g>
<g >
</g>
<g >
</g>
<g >
</g>
<g >
</g>
<g >
</g>
<g >
</g>
<g >
</g>
<g >
</g>
<g >
</g>
<g >
</g>
<g >
</g>
<g >
</g>
<g >
</g>
<g >
</g>
<g >
</g>
<g >
</g>
<g >
</g>
<g >
</g>
<g >
</g>
<g >
</g>
<g >
</g>
<g >
</g>
<g >
</g>
<g >
</g>
<g >
</g>
<g >
</g>
<g >
</g>
<g >
</g>
<g >
</g>
<g >
</g>
<g >
</g>
<g >
</g>
<g >
</g>
<g >
</g>
<g >
</g>
<g >
</g>
<g >
</g>
<g >
</g>
<g >
</g>
<g >
</g>
<g >
</g>
<g >
</g>
<g >
</g>
<g >
</g>
<g >
</g>
<g >
</g>
<g >
</g>
<g >
</g>
<g >
</g>
<g >
</g>
<g >
</g>
<g >
</g>
<g >
</g>
<g >
</g>
</g>
<g style="fill:#C2C2C2; fill-opacity:0.0; 
stroke:#C2C2C2; stroke-width:59.0551; stroke-opacity:1; 
stroke-linecap:round; stroke-linejoin:round;">
<text x="20899.9" y="22378.7"
textLength="1443.57" font-size="524.934" lengthAdjust="spacingAndGlyphs"
text-anchor="middle" opacity="0">K_Z1</text>
<path d="M20271 22359
L20271 21966
" />
<path d="M20496 22359
L20328 22134
" />
<path d="M20496 21966
L20271 22191
" />
<path d="M20571 22397
L20871 22397
" />
<path d="M20927 21966
L21190 21966
L20927 22359
L21190 22359
" />
<path d="M21546 22359
L21321 22359
" />
<path d="M21434 22359
L21434 21966
L21396 22022
L21359 22059
L21321 22078
" />
<text x="20899.9" y="18003.7"
textLength="1989.03" font-size="524.934" lengthAdjust="spacingAndGlyphs"
text-anchor="middle" opacity="0">KEYSW</text>
<path d="M20037 17984
L20037 17591
" />
<path d="M20262 17984
L20093 17759
" />
<path d="M20262 17591
L20037 17816
" />
<path d="M20431 17778
L20562 17778
" />
<path d="M20618 17984
L20431 17984
L20431 17591
L20618 17591
" />
<path d="M20862 17797
L20862 17984
" />
<path d="M20731 17591
L20862 17797
L20993 17591
" />
<path d="M21106 17966
L21162 17984
L21256 17984
L21293 17966
L21312 17947
L21331 17909
L21331 17872
L21312 17834
L21293 17816
L21256 17797
L21181 17778
L21143 17759
L21124 17741
L21106 17703
L21106 17666
L21124 17628
L21143 17610
L21181 17591
L21274 17591
L21331 17610
" />
<path d="M21462 17591
L21556 17984
L21631 17703
L21706 17984
L21799 17591
" />
<text x="52772.9" y="7379.65"
textLength="1482.85" font-size="524.934" lengthAdjust="spacingAndGlyphs"
text-anchor="middle" opacity="0">K_Y1</text>
<path d="M52163 7360
L52163 6967
" />
<path d="M52388 7360
L52219 7135
" />
<path d="M52388 6967
L52163 7192
" />
<path d="M52463 7398
L52763 7398
" />
<path d="M52932 7173
L52932 7360
" />
<path d="M52800 6967
L52932 7173
L53063 6967
" />
<path d="M53400 7360
L53175 7360
" />
<path d="M53288 7360
L53288 6967
L53250 7023
L53213 7060
L53175 7079
" />
<text x="52772.9" y="3004.65"
textLength="1989.03" font-size="524.934" lengthAdjust="spacingAndGlyphs"
text-anchor="middle" opacity="0">KEYSW</text>
<path d="M51910 2985
L51910 2592
" />
<path d="M52135 2985
L51966 2760
" />
<path d="M52135 2592
L51910 2817
" />
<path d="M52304 2779
L52435 2779
" />
<path d="M52491 2985
L52304 2985
L52304 2592
L52491 2592
" />
<path d="M52735 2798
L52735 2985
" />
<path d="M52604 2592
L52735 2798
L52866 2592
" />
<path d="M52979 2967
L53035 2985
L53129 2985
L53166 2967
L53185 2948
L53204 2910
L53204 2873
L53185 2835
L53166 2817
L53129 2798
L53054 2779
L53016 2760
L52997 2742
L52979 2704
L52979 2667
L52997 2629
L53016 2610
L53054 2592
L53147 2592
L53204 2610
" />
<path d="M53335 2592
L53429 2985
L53504 2704
L53579 2985
L53672 2592
" />
<text x="28399.4" y="22378.7"
textLength="1520.34" font-size="524.934" lengthAdjust="spacingAndGlyphs"
text-anchor="middle" opacity="0">K_X1</text>
<path d="M27771 22359
L27771 21966
" />
<path d="M27996 22359
L27827 22134
" />
<path d="M27996 21966
L27771 22191
" />
<path d="M28071 22397
L28371 22397
" />
<path d="M28427 21966
L28689 22359
" />
<path d="M28689 21966
L28427 22359
" />
<path d="M29046 22359
L28821 22359
" />
<path d="M28933 22359
L28933 21966
L28896 22022
L28858 22059
L28821 22078
" />
<text x="28399.4" y="18003.7"
textLength="1989.03" font-size="524.934" lengthAdjust="spacingAndGlyphs"
text-anchor="middle" opacity="0">KEYSW</text>
<path d="M27536 17984
L27536 17591
" />
<path d="M27761 17984
L27593 17759
" />
<path d="M27761 17591
L27536 17816
" />
<path d="M27930 17778
L28061 17778
" />
<path d="M28118 17984
L27930 17984
L27930 17591
L28118 17591
" />
<path d="M28361 17797
L28361 17984
" />
<path d="M28230 17591
L28361 17797
L28493 17591
" />
<path d="M28605 17966
L28661 17984
L28755 17984
L28793 17966
L28811 17947
L28830 17909
L28830 17872
L28811 17834
L28793 17816
L28755 17797
L28680 17778
L28643 17759
L28624 17741
L28605 17703
L28605 17666
L28624 17628
L28643 17610
L28680 17591
L28774 17591
L28830 17610
" />
<path d="M28961 17591
L29055 17984
L29130 17703
L29205 17984
L29299 17591
" />
<text x="22774.7" y="29878.2"
textLength="2195.26" font-size="524.934" lengthAdjust="spacingAndGlyphs"
text-anchor="middle" opacity="0">K_WIN1</text>
<path d="M21809 29859
L21809 29465
" />
<path d="M22034 29859
L21865 29634
" />
<path d="M22034 29465
L21809 29690
" />
<path d="M22109 29896
L22409 29896
" />
<path d="M22465 29465
L22559 29859
L22634 29578
L22709 29859
L22802 29465
" />
<path d="M22952 29859
L22952 29465
" />
<path d="M23140 29859
L23140 29465
L23365 29859
L23365 29465
" />
<path d="M23758 29859
L23534 29859
" />
<path d="M23646 29859
L23646 29465
L23609 29522
L23571 29559
L23534 29578
" />
<text x="22774.7" y="25503.2"
textLength="1989.03" font-size="524.934" lengthAdjust="spacingAndGlyphs"
text-anchor="middle" opacity="0">KEYSW</text>
<path d="M21912 25484
L21912 25090
" />
<path d="M22137 25484
L21968 25259
" />
<path d="M22137 25090
L21912 25315
" />
<path d="M22306 25278
L22437 25278
" />
<path d="M22493 25484
L22306 25484
L22306 25090
L22493 25090
" />
<path d="M22737 25297
L22737 25484
" />
<path d="M22606 25090
L22737 25297
L22868 25090
" />
<path d="M22980 25465
L23037 25484
L23130 25484
L23168 25465
L23187 25446
L23205 25409
L23205 25371
L23187 25334
L23168 25315
L23130 25297
L23055 25278
L23018 25259
L22999 25240
L22980 25203
L22980 25165
L22999 25128
L23018 25109
L23055 25090
L23149 25090
L23205 25109
" />
<path d="M23337 25090
L23430 25484
L23505 25203
L23580 25484
L23674 25090
" />
<text x="22774.7" y="7379.65"
textLength="1595.33" font-size="524.934" lengthAdjust="spacingAndGlyphs"
text-anchor="middle" opacity="0">K_W1</text>
<path d="M22109 7360
L22109 6967
" />
<path d="M22334 7360
L22165 7135
" />
<path d="M22334 6967
L22109 7192
" />
<path d="M22409 7398
L22709 7398
" />
<path d="M22765 6967
L22859 7360
L22934 7079
L23009 7360
L23102 6967
" />
<path d="M23459 7360
L23234 7360
" />
<path d="M23346 7360
L23346 6967
L23309 7023
L23271 7060
L23234 7079
" />
<text x="22774.7" y="3004.65"
textLength="1989.03" font-size="524.934" lengthAdjust="spacingAndGlyphs"
text-anchor="middle" opacity="0">KEYSW</text>
<path d="M21912 2985
L21912 2592
" />
<path d="M22137 2985
L21968 2760
" />
<path d="M22137 2592
L21912 2817
" />
<path d="M22306 2779
L22437 2779
" />
<path d="M22493 2985
L22306 2985
L22306 2592
L22493 2592
" />
<path d="M22737 2798
L22737 2985
" />
<path d="M22606 2592
L22737 2798
L22868 2592
" />
<path d="M22980 2967
L23037 2985
L23130 2985
L23168 2967
L23187 2948
L23205 2910
L23205 2873
L23187 2835
L23168 2817
L23130 2798
L23055 2779
L23018 2760
L22999 2742
L22980 2704
L22980 2667
L22999 2629
L23018 2610
L23055 2592
L23149 2592
L23205 2610
" />
<path d="M23337 2592
L23430 2985
L23505 2704
L23580 2985
L23674 2592
" />
<text x="43398.4" y="22378.7"
textLength="1482.85" font-size="524.934" lengthAdjust="spacingAndGlyphs"
text-anchor="middle" opacity="0">K_V1</text>
<path d="M42789 22359
L42789 21966
" />
<path d="M43014 22359
L42845 22134
" />
<path d="M43014 21966
L42789 22191
" />
<path d="M43089 22397
L43389 22397
" />
<path d="M43426 21966
L43557 22359
L43689 21966
" />
<path d="M44026 22359
L43801 22359
" />
<path d="M43914 22359
L43914 21966
L43876 22022
L43839 22059
L43801 22078
" />
<text x="43398.4" y="18003.7"
textLength="1989.03" font-size="524.934" lengthAdjust="spacingAndGlyphs"
text-anchor="middle" opacity="0">KEYSW</text>
<path d="M42536 17984
L42536 17591
" />
<path d="M42761 17984
L42592 17759
" />
<path d="M42761 17591
L42536 17816
" />
<path d="M42929 17778
L43060 17778
" />
<path d="M43117 17984
L42929 17984
L42929 17591
L43117 17591
" />
<path d="M43360 17797
L43360 17984
" />
<path d="M43229 17591
L43360 17797
L43492 17591
" />
<path d="M43604 17966
L43660 17984
L43754 17984
L43792 17966
L43810 17947
L43829 17909
L43829 17872
L43810 17834
L43792 17816
L43754 17797
L43679 17778
L43642 17759
L43623 17741
L43604 17703
L43604 17666
L43623 17628
L43642 17610
L43679 17591
L43773 17591
L43829 17610
" />
<path d="M43960 17591
L44054 17984
L44129 17703
L44204 17984
L44298 17591
" />
<text x="60272.4" y="7379.65"
textLength="1557.84" font-size="524.934" lengthAdjust="spacingAndGlyphs"
text-anchor="middle" opacity="0">K_U1</text>
<path d="M59625 7360
L59625 6967
" />
<path d="M59850 7360
L59681 7135
" />
<path d="M59850 6967
L59625 7192
" />
<path d="M59925 7398
L60225 7398
" />
<path d="M60319 6967
L60319 7285
L60337 7323
L60356 7342
L60394 7360
L60469 7360
L60506 7342
L60525 7323
L60544 7285
L60544 6967
" />
<path d="M60937 7360
L60712 7360
" />
<path d="M60825 7360
L60825 6967
L60787 7023
L60750 7060
L60712 7079
" />
<text x="60272.4" y="3004.65"
textLength="1989.03" font-size="524.934" lengthAdjust="spacingAndGlyphs"
text-anchor="middle" opacity="0">KEYSW</text>
<path d="M59409 2985
L59409 2592
" />
<path d="M59634 2985
L59466 2760
" />
<path d="M59634 2592
L59409 2817
" />
<path d="M59803 2779
L59934 2779
" />
<path d="M59991 2985
L59803 2985
L59803 2592
L59991 2592
" />
<path d="M60234 2798
L60234 2985
" />
<path d="M60103 2592
L60234 2798
L60366 2592
" />
<path d="M60478 2967
L60534 2985
L60628 2985
L60666 2967
L60684 2948
L60703 2910
L60703 2873
L60684 2835
L60666 2817
L60628 2798
L60553 2779
L60516 2760
L60497 2742
L60478 2704
L60478 2667
L60497 2629
L60516 2610
L60553 2592
L60647 2592
L60703 2610
" />
<path d="M60834 2592
L60928 2985
L61003 2704
L61078 2985
L61172 2592
" />
<text x="7775.69" y="7379.65"
textLength="2176.51" font-size="524.934" lengthAdjust="spacingAndGlyphs"
text-anchor="middle" opacity="0">K_TAB1</text>
<path d="M6819 7360
L6819 6967
" />
<path d="M7044 7360
L6875 7135
" />
<path d="M7044 6967
L6819 7192
" />
<path d="M7119 7398
L7419 7398
" />
<path d="M7456 6967
L7681 6967
" />
<path d="M7569 7360
L7569 6967
" />
<path d="M7794 7248
L7981 7248
" />
<path d="M7756 7360
L7888 6967
L8019 7360
" />
<path d="M8281 7154
L8338 7173
L8356 7192
L8375 7229
L8375 7285
L8356 7323
L8338 7342
L8300 7360
L8150 7360
L8150 6967
L8281 6967
L8319 6985
L8338 7004
L8356 7042
L8356 7079
L8338 7117
L8319 7135
L8281 7154
L8150 7154
" />
<path d="M8750 7360
L8525 7360
" />
<path d="M8638 7360
L8638 6967
L8600 7023
L8563 7060
L8525 7079
" />
<text x="7775.69" y="3004.65"
textLength="1989.03" font-size="524.934" lengthAdjust="spacingAndGlyphs"
text-anchor="middle" opacity="0">KEYSW</text>
<path d="M6913 2985
L6913 2592
" />
<path d="M7138 2985
L6969 2760
" />
<path d="M7138 2592
L6913 2817
" />
<path d="M7306 2779
L7438 2779
" />
<path d="M7494 2985
L7306 2985
L7306 2592
L7494 2592
" />
<path d="M7738 2798
L7738 2985
" />
<path d="M7606 2592
L7738 2798
L7869 2592
" />
<path d="M7981 2967
L8038 2985
L8131 2985
L8169 2967
L8188 2948
L8206 2910
L8206 2873
L8188 2835
L8169 2817
L8131 2798
L8056 2779
L8019 2760
L8000 2742
L7981 2704
L7981 2667
L8000 2629
L8019 2610
L8056 2592
L8150 2592
L8206 2610
" />
<path d="M8338 2592
L8431 2985
L8506 2704
L8581 2985
L8675 2592
" />
<text x="45273.3" y="7379.65"
textLength="1445.35" font-size="524.934" lengthAdjust="spacingAndGlyphs"
text-anchor="middle" opacity="0">K_T1</text>
<path d="M44682 7360
L44682 6967
" />
<path d="M44907 7360
L44739 7135
" />
<path d="M44907 6967
L44682 7192
" />
<path d="M44982 7398
L45282 7398
" />
<path d="M45320 6967
L45545 6967
" />
<path d="M45432 7360
L45432 6967
" />
<path d="M45882 7360
L45657 7360
" />
<path d="M45770 7360
L45770 6967
L45732 7023
L45695 7060
L45657 7079
" />
<text x="45273.3" y="3004.65"
textLength="1989.03" font-size="524.934" lengthAdjust="spacingAndGlyphs"
text-anchor="middle" opacity="0">KEYSW</text>
<path d="M44410 2985
L44410 2592
" />
<path d="M44635 2985
L44467 2760
" />
<path d="M44635 2592
L44410 2817
" />
<path d="M44804 2779
L44935 2779
" />
<path d="M44992 2985
L44804 2985
L44804 2592
L44992 2592
" />
<path d="M45235 2798
L45235 2985
" />
<path d="M45104 2592
L45235 2798
L45367 2592
" />
<path d="M45479 2967
L45535 2985
L45629 2985
L45667 2967
L45685 2948
L45704 2910
L45704 2873
L45685 2835
L45667 2817
L45629 2798
L45554 2779
L45517 2760
L45498 2742
L45479 2704
L45479 2667
L45498 2629
L45517 2610
L45554 2592
L45648 2592
L45704 2610
" />
<path d="M45835 2592
L45929 2985
L46004 2704
L46079 2985
L46173 2592
" />
<text x="44335.9" y="29878.2"
textLength="3001.41" font-size="524.934" lengthAdjust="spacingAndGlyphs"
text-anchor="middle" opacity="0">K_SPACE3</text>
<path d="M42967 29859
L42967 29465
" />
<path d="M43192 29859
L43023 29634
" />
<path d="M43192 29465
L42967 29690
" />
<path d="M43267 29896
L43567 29896
" />
<path d="M43642 29840
L43698 29859
L43792 29859
L43829 29840
L43848 29821
L43867 29784
L43867 29746
L43848 29709
L43829 29690
L43792 29672
L43717 29653
L43679 29634
L43660 29615
L43642 29578
L43642 29540
L43660 29503
L43679 29484
L43717 29465
L43810 29465
L43867 29484
" />
<path d="M44035 29859
L44035 29465
L44185 29465
L44223 29484
L44242 29503
L44260 29540
L44260 29597
L44242 29634
L44223 29653
L44185 29672
L44035 29672
" />
<path d="M44410 29746
L44598 29746
" />
<path d="M44373 29859
L44504 29465
L44635 29859
" />
<path d="M44992 29821
L44973 29840
L44917 29859
L44879 29859
L44823 29840
L44785 29803
L44767 29765
L44748 29690
L44748 29634
L44767 29559
L44785 29522
L44823 29484
L44879 29465
L44917 29465
L44973 29484
L44992 29503
" />
<path d="M45160 29653
L45292 29653
" />
<path d="M45348 29859
L45160 29859
L45160 29465
L45348 29465
" />
<path d="M45479 29465
L45723 29465
L45591 29615
L45648 29615
L45685 29634
L45704 29653
L45723 29690
L45723 29784
L45704 29821
L45685 29840
L45648 29859
L45535 29859
L45498 29840
L45479 29821
" />
<text x="44335.9" y="25503.2"
textLength="1989.03" font-size="524.934" lengthAdjust="spacingAndGlyphs"
text-anchor="middle" opacity="0">KEYSW</text>
<path d="M43473 25484
L43473 25090
" />
<path d="M43698 25484
L43529 25259
" />
<path d="M43698 25090
L43473 25315
" />
<path d="M43867 25278
L43998 25278
" />
<path d="M44054 25484
L43867 25484
L43867 25090
L44054 25090
" />
<path d="M44298 25297
L44298 25484
" />
<path d="M44167 25090
L44298 25297
L44429 25090
" />
<path d="M44542 25465
L44598 25484
L44692 25484
L44729 25465
L44748 25446
L44767 25409
L44767 25371
L44748 25334
L44729 25315
L44692 25297
L44617 25278
L44579 25259
L44560 25240
L44542 25203
L44542 25165
L44560 25128
L44579 25109
L44617 25090
L44710 25090
L44767 25109
" />
<path d="M44898 25090
L44992 25484
L45067 25203
L45142 25484
L45235 25090
" />
<text x="90270.5" y="29878.2"
textLength="3001.41" font-size="524.934" lengthAdjust="spacingAndGlyphs"
text-anchor="middle" opacity="0">K_SPACE2</text>
<path d="M88901 29859
L88901 29465
" />
<path d="M89126 29859
L88958 29634
" />
<path d="M89126 29465
L88901 29690
" />
<path d="M89201 29896
L89501 29896
" />
<path d="M89576 29840
L89633 29859
L89726 29859
L89764 29840
L89783 29821
L89801 29784
L89801 29746
L89783 29709
L89764 29690
L89726 29672
L89651 29653
L89614 29634
L89595 29615
L89576 29578
L89576 29540
L89595 29503
L89614 29484
L89651 29465
L89745 29465
L89801 29484
" />
<path d="M89970 29859
L89970 29465
L90120 29465
L90158 29484
L90176 29503
L90195 29540
L90195 29597
L90176 29634
L90158 29653
L90120 29672
L89970 29672
" />
<path d="M90345 29746
L90532 29746
" />
<path d="M90307 29859
L90439 29465
L90570 29859
" />
<path d="M90926 29821
L90907 29840
L90851 29859
L90814 29859
L90757 29840
L90720 29803
L90701 29765
L90682 29690
L90682 29634
L90701 29559
L90720 29522
L90757 29484
L90814 29465
L90851 29465
L90907 29484
L90926 29503
" />
<path d="M91095 29653
L91226 29653
" />
<path d="M91282 29859
L91095 29859
L91095 29465
L91282 29465
" />
<path d="M91432 29503
L91451 29484
L91489 29465
L91582 29465
L91620 29484
L91639 29503
L91657 29540
L91657 29578
L91639 29634
L91414 29859
L91657 29859
" />
<text x="90270.5" y="25503.2"
textLength="1989.03" font-size="524.934" lengthAdjust="spacingAndGlyphs"
text-anchor="middle" opacity="0">KEYSW</text>
<path d="M89408 25484
L89408 25090
" />
<path d="M89633 25484
L89464 25259
" />
<path d="M89633 25090
L89408 25315
" />
<path d="M89801 25278
L89933 25278
" />
<path d="M89989 25484
L89801 25484
L89801 25090
L89989 25090
" />
<path d="M90232 25297
L90232 25484
" />
<path d="M90101 25090
L90232 25297
L90364 25090
" />
<path d="M90476 25465
L90532 25484
L90626 25484
L90664 25465
L90682 25446
L90701 25409
L90701 25371
L90682 25334
L90664 25315
L90626 25297
L90551 25278
L90514 25259
L90495 25240
L90476 25203
L90476 25165
L90495 25128
L90514 25109
L90551 25090
L90645 25090
L90701 25109
" />
<path d="M90832 25090
L90926 25484
L91001 25203
L91076 25484
L91170 25090
" />
<text x="63084.7" y="29878.2"
textLength="3001.41" font-size="524.934" lengthAdjust="spacingAndGlyphs"
text-anchor="middle" opacity="0">K_SPACE1</text>
<path d="M61716 29859
L61716 29465
" />
<path d="M61941 29859
L61772 29634
" />
<path d="M61941 29465
L61716 29690
" />
<path d="M62016 29896
L62316 29896
" />
<path d="M62391 29840
L62447 29859
L62541 29859
L62578 29840
L62597 29821
L62616 29784
L62616 29746
L62597 29709
L62578 29690
L62541 29672
L62466 29653
L62428 29634
L62409 29615
L62391 29578
L62391 29540
L62409 29503
L62428 29484
L62466 29465
L62559 29465
L62616 29484
" />
<path d="M62784 29859
L62784 29465
L62934 29465
L62972 29484
L62990 29503
L63009 29540
L63009 29597
L62990 29634
L62972 29653
L62934 29672
L62784 29672
" />
<path d="M63159 29746
L63347 29746
" />
<path d="M63122 29859
L63253 29465
L63384 29859
" />
<path d="M63740 29821
L63722 29840
L63665 29859
L63628 29859
L63572 29840
L63534 29803
L63515 29765
L63497 29690
L63497 29634
L63515 29559
L63534 29522
L63572 29484
L63628 29465
L63665 29465
L63722 29484
L63740 29503
" />
<path d="M63909 29653
L64040 29653
" />
<path d="M64097 29859
L63909 29859
L63909 29465
L64097 29465
" />
<path d="M64472 29859
L64247 29859
" />
<path d="M64359 29859
L64359 29465
L64322 29522
L64284 29559
L64247 29578
" />
<text x="63084.7" y="25503.2"
textLength="1989.03" font-size="524.934" lengthAdjust="spacingAndGlyphs"
text-anchor="middle" opacity="0">KEYSW</text>
<path d="M62222 25484
L62222 25090
" />
<path d="M62447 25484
L62278 25259
" />
<path d="M62447 25090
L62222 25315
" />
<path d="M62616 25278
L62747 25278
" />
<path d="M62803 25484
L62616 25484
L62616 25090
L62803 25090
" />
<path d="M63047 25297
L63047 25484
" />
<path d="M62915 25090
L63047 25297
L63178 25090
" />
<path d="M63290 25465
L63347 25484
L63440 25484
L63478 25465
L63497 25446
L63515 25409
L63515 25371
L63497 25334
L63478 25315
L63440 25297
L63365 25278
L63328 25259
L63309 25240
L63290 25203
L63290 25165
L63309 25128
L63328 25109
L63365 25090
L63459 25090
L63515 25109
" />
<path d="M63647 25090
L63740 25484
L63815 25203
L63890 25484
L63984 25090
" />
<text x="88395.6" y="22378.7"
textLength="2963.91" font-size="524.934" lengthAdjust="spacingAndGlyphs"
text-anchor="middle" opacity="0">K_SLASH1</text>
<path d="M87045 22359
L87045 21966
" />
<path d="M87270 22359
L87102 22134
" />
<path d="M87270 21966
L87045 22191
" />
<path d="M87345 22397
L87645 22397
" />
<path d="M87720 22341
L87776 22359
L87870 22359
L87908 22341
L87926 22322
L87945 22284
L87945 22247
L87926 22209
L87908 22191
L87870 22172
L87795 22153
L87758 22134
L87739 22116
L87720 22078
L87720 22041
L87739 22003
L87758 21985
L87795 21966
L87889 21966
L87945 21985
" />
<path d="M88301 22359
L88114 22359
L88114 21966
" />
<path d="M88414 22247
L88601 22247
" />
<path d="M88376 22359
L88508 21966
L88639 22359
" />
<path d="M88751 22341
L88808 22359
L88901 22359
L88939 22341
L88958 22322
L88976 22284
L88976 22247
L88958 22209
L88939 22191
L88901 22172
L88826 22153
L88789 22134
L88770 22116
L88751 22078
L88751 22041
L88770 22003
L88789 21985
L88826 21966
L88920 21966
L88976 21985
" />
<path d="M89145 22359
L89145 21966
" />
<path d="M89145 22153
L89370 22153
" />
<path d="M89370 22359
L89370 21966
" />
<path d="M89764 22359
L89539 22359
" />
<path d="M89651 22359
L89651 21966
L89614 22022
L89576 22059
L89539 22078
" />
<text x="88395.6" y="18003.7"
textLength="1989.03" font-size="524.934" lengthAdjust="spacingAndGlyphs"
text-anchor="middle" opacity="0">KEYSW</text>
<path d="M87533 17984
L87533 17591
" />
<path d="M87758 17984
L87589 17759
" />
<path d="M87758 17591
L87533 17816
" />
<path d="M87926 17778
L88058 17778
" />
<path d="M88114 17984
L87926 17984
L87926 17591
L88114 17591
" />
<path d="M88358 17797
L88358 17984
" />
<path d="M88226 17591
L88358 17797
L88489 17591
" />
<path d="M88601 17966
L88658 17984
L88751 17984
L88789 17966
L88808 17947
L88826 17909
L88826 17872
L88808 17834
L88789 17816
L88751 17797
L88676 17778
L88639 17759
L88620 17741
L88601 17703
L88601 17666
L88620 17628
L88639 17610
L88676 17591
L88770 17591
L88826 17610
" />
<path d="M88958 17591
L89051 17984
L89126 17703
L89201 17984
L89295 17591
" />
<text x="13400.3" y="22378.7"
textLength="2757.69" font-size="524.934" lengthAdjust="spacingAndGlyphs"
text-anchor="middle" opacity="0">K_SHIFT1</text>
<path d="M12153 22359
L12153 21966
" />
<path d="M12378 22359
L12209 22134
" />
<path d="M12378 21966
L12153 22191
" />
<path d="M12453 22397
L12753 22397
" />
<path d="M12828 22341
L12884 22359
L12978 22359
L13016 22341
L13034 22322
L13053 22284
L13053 22247
L13034 22209
L13016 22191
L12978 22172
L12903 22153
L12866 22134
L12847 22116
L12828 22078
L12828 22041
L12847 22003
L12866 21985
L12903 21966
L12997 21966
L13053 21985
" />
<path d="M13222 22359
L13222 21966
" />
<path d="M13222 22153
L13447 22153
" />
<path d="M13447 22359
L13447 21966
" />
<path d="M13634 22359
L13634 21966
" />
<path d="M13953 22153
L13822 22153
" />
<path d="M13822 22359
L13822 21966
L14009 21966
" />
<path d="M14103 21966
L14328 21966
" />
<path d="M14215 22359
L14215 21966
" />
<path d="M14665 22359
L14440 22359
" />
<path d="M14553 22359
L14553 21966
L14515 22022
L14478 22059
L14440 22078
" />
<text x="13400.3" y="18003.7"
textLength="1989.03" font-size="524.934" lengthAdjust="spacingAndGlyphs"
text-anchor="middle" opacity="0">KEYSW</text>
<path d="M12537 17984
L12537 17591
" />
<path d="M12762 17984
L12594 17759
" />
<path d="M12762 17591
L12537 17816
" />
<path d="M12931 17778
L13062 17778
" />
<path d="M13119 17984
L12931 17984
L12931 17591
L13119 17591
" />
<path d="M13362 17797
L13362 17984
" />
<path d="M13231 17591
L13362 17797
L13494 17591
" />
<path d="M13606 17966
L13662 17984
L13756 17984
L13794 17966
L13812 17947
L13831 17909
L13831 17872
L13812 17834
L13794 17816
L13756 17797
L13681 17778
L13644 17759
L13625 17741
L13606 17703
L13606 17666
L13625 17628
L13644 17610
L13681 17591
L13775 17591
L13831 17610
" />
<path d="M13962 17591
L14056 17984
L14131 17703
L14206 17984
L14300 17591
" />
<text x="84645.8" y="14879.2"
textLength="2907.67" font-size="524.934" lengthAdjust="spacingAndGlyphs"
text-anchor="middle" opacity="0">K_SEMIC1</text>
<path d="M83324 14860
L83324 14466
" />
<path d="M83549 14860
L83380 14635
" />
<path d="M83549 14466
L83324 14691
" />
<path d="M83624 14897
L83924 14897
" />
<path d="M83999 14841
L84055 14860
L84149 14860
L84186 14841
L84205 14822
L84224 14785
L84224 14747
L84205 14710
L84186 14691
L84149 14672
L84074 14654
L84036 14635
L84017 14616
L83999 14579
L83999 14541
L84017 14504
L84036 14485
L84074 14466
L84167 14466
L84224 14485
" />
<path d="M84392 14654
L84523 14654
" />
<path d="M84580 14860
L84392 14860
L84392 14466
L84580 14466
" />
<path d="M84748 14860
L84748 14466
L84880 14747
L85011 14466
L85011 14860
" />
<path d="M85198 14860
L85198 14466
" />
<path d="M85611 14822
L85592 14841
L85536 14860
L85498 14860
L85442 14841
L85405 14804
L85386 14766
L85367 14691
L85367 14635
L85386 14560
L85405 14522
L85442 14485
L85498 14466
L85536 14466
L85592 14485
L85611 14504
" />
<path d="M85986 14860
L85761 14860
" />
<path d="M85873 14860
L85873 14466
L85836 14522
L85798 14560
L85761 14579
" />
<text x="84645.8" y="10504.2"
textLength="1989.03" font-size="524.934" lengthAdjust="spacingAndGlyphs"
text-anchor="middle" opacity="0">KEYSW</text>
<path d="M83783 10485
L83783 10091
" />
<path d="M84008 10485
L83839 10260
" />
<path d="M84008 10091
L83783 10316
" />
<path d="M84177 10279
L84308 10279
" />
<path d="M84364 10485
L84177 10485
L84177 10091
L84364 10091
" />
<path d="M84608 10297
L84608 10485
" />
<path d="M84477 10091
L84608 10297
L84739 10091
" />
<path d="M84852 10466
L84908 10485
L85002 10485
L85039 10466
L85058 10447
L85077 10410
L85077 10372
L85058 10335
L85039 10316
L85002 10297
L84927 10279
L84889 10260
L84870 10241
L84852 10204
L84852 10166
L84870 10129
L84889 10110
L84927 10091
L85020 10091
L85077 10110
" />
<path d="M85208 10091
L85302 10485
L85377 10204
L85451 10485
L85545 10091
" />
<text x="24649.6" y="14879.2"
textLength="1520.34" font-size="524.934" lengthAdjust="spacingAndGlyphs"
text-anchor="middle" opacity="0">K_S1</text>
<path d="M24021 14860
L24021 14466
" />
<path d="M24246 14860
L24077 14635
" />
<path d="M24246 14466
L24021 14691
" />
<path d="M24321 14897
L24621 14897
" />
<path d="M24696 14841
L24752 14860
L24846 14860
L24883 14841
L24902 14822
L24921 14785
L24921 14747
L24902 14710
L24883 14691
L24846 14672
L24771 14654
L24733 14635
L24715 14616
L24696 14579
L24696 14541
L24715 14504
L24733 14485
L24771 14466
L24865 14466
L24921 14485
" />
<path d="M25296 14860
L25071 14860
" />
<path d="M25183 14860
L25183 14466
L25146 14522
L25108 14560
L25071 14579
" />
<text x="24649.6" y="10504.2"
textLength="1989.03" font-size="524.934" lengthAdjust="spacingAndGlyphs"
text-anchor="middle" opacity="0">KEYSW</text>
<path d="M23787 10485
L23787 10091
" />
<path d="M24012 10485
L23843 10260
" />
<path d="M24012 10091
L23787 10316
" />
<path d="M24180 10279
L24312 10279
" />
<path d="M24368 10485
L24180 10485
L24180 10091
L24368 10091
" />
<path d="M24612 10297
L24612 10485
" />
<path d="M24480 10091
L24612 10297
L24743 10091
" />
<path d="M24855 10466
L24912 10485
L25005 10485
L25043 10466
L25062 10447
L25080 10410
L25080 10372
L25062 10335
L25043 10316
L25005 10297
L24930 10279
L24893 10260
L24874 10241
L24855 10204
L24855 10166
L24874 10129
L24893 10110
L24930 10091
L25024 10091
L25080 10110
" />
<path d="M25212 10091
L25305 10485
L25380 10204
L25455 10485
L25549 10091
" />
<text x="37773.8" y="7379.65"
textLength="1539.09" font-size="524.934" lengthAdjust="spacingAndGlyphs"
text-anchor="middle" opacity="0">K_R1</text>
<path d="M37136 7360
L37136 6967
" />
<path d="M37361 7360
L37192 7135
" />
<path d="M37361 6967
L37136 7192
" />
<path d="M37436 7398
L37736 7398
" />
<path d="M38055 7360
L37923 7173
" />
<path d="M37830 7360
L37830 6967
L37980 6967
L38017 6985
L38036 7004
L38055 7042
L38055 7098
L38036 7135
L38017 7154
L37980 7173
L37830 7173
" />
<path d="M38429 7360
L38204 7360
" />
<path d="M38317 7360
L38317 6967
L38279 7023
L38242 7060
L38204 7079
" />
<text x="37773.8" y="3004.65"
textLength="1989.03" font-size="524.934" lengthAdjust="spacingAndGlyphs"
text-anchor="middle" opacity="0">KEYSW</text>
<path d="M36911 2985
L36911 2592
" />
<path d="M37136 2985
L36967 2760
" />
<path d="M37136 2592
L36911 2817
" />
<path d="M37305 2779
L37436 2779
" />
<path d="M37492 2985
L37305 2985
L37305 2592
L37492 2592
" />
<path d="M37736 2798
L37736 2985
" />
<path d="M37605 2592
L37736 2798
L37867 2592
" />
<path d="M37980 2967
L38036 2985
L38130 2985
L38167 2967
L38186 2948
L38204 2910
L38204 2873
L38186 2835
L38167 2817
L38130 2798
L38055 2779
L38017 2760
L37998 2742
L37980 2704
L37980 2667
L37998 2629
L38017 2610
L38055 2592
L38148 2592
L38204 2610
" />
<path d="M38336 2592
L38429 2985
L38504 2704
L38579 2985
L38673 2592
" />
<text x="92145.4" y="14879.2"
textLength="3038.9" font-size="524.934" lengthAdjust="spacingAndGlyphs"
text-anchor="middle" opacity="0">K_QUOTE1</text>
<path d="M90758 14860
L90758 14466
" />
<path d="M90983 14860
L90814 14635
" />
<path d="M90983 14466
L90758 14691
" />
<path d="M91058 14897
L91357 14897
" />
<path d="M91714 14897
L91676 14879
L91639 14841
L91582 14785
L91545 14766
L91507 14766
" />
<path d="M91526 14860
L91489 14841
L91451 14804
L91432 14729
L91432 14597
L91451 14522
L91489 14485
L91526 14466
L91601 14466
L91639 14485
L91676 14522
L91695 14597
L91695 14729
L91676 14804
L91639 14841
L91601 14860
L91526 14860
" />
<path d="M91864 14466
L91864 14785
L91882 14822
L91901 14841
L91939 14860
L92014 14860
L92051 14841
L92070 14822
L92089 14785
L92089 14466
" />
<path d="M92351 14466
L92426 14466
L92464 14485
L92501 14522
L92520 14597
L92520 14729
L92501 14804
L92464 14841
L92426 14860
L92351 14860
L92314 14841
L92276 14804
L92257 14729
L92257 14597
L92276 14522
L92314 14485
L92351 14466
" />
<path d="M92632 14466
L92857 14466
" />
<path d="M92745 14860
L92745 14466
" />
<path d="M92989 14654
L93120 14654
" />
<path d="M93176 14860
L92989 14860
L92989 14466
L93176 14466
" />
<path d="M93551 14860
L93326 14860
" />
<path d="M93438 14860
L93438 14466
L93401 14522
L93363 14560
L93326 14579
" />
<text x="92145.4" y="10504.2"
textLength="1989.03" font-size="524.934" lengthAdjust="spacingAndGlyphs"
text-anchor="middle" opacity="0">KEYSW</text>
<path d="M91282 10485
L91282 10091
" />
<path d="M91507 10485
L91339 10260
" />
<path d="M91507 10091
L91282 10316
" />
<path d="M91676 10279
L91807 10279
" />
<path d="M91864 10485
L91676 10485
L91676 10091
L91864 10091
" />
<path d="M92107 10297
L92107 10485
" />
<path d="M91976 10091
L92107 10297
L92239 10091
" />
<path d="M92351 10466
L92407 10485
L92501 10485
L92539 10466
L92557 10447
L92576 10410
L92576 10372
L92557 10335
L92539 10316
L92501 10297
L92426 10279
L92389 10260
L92370 10241
L92351 10204
L92351 10166
L92370 10129
L92389 10110
L92426 10091
L92520 10091
L92576 10110
" />
<path d="M92707 10091
L92801 10485
L92876 10204
L92951 10485
L93045 10091
" />
<text x="15275.2" y="7379.65"
textLength="1557.84" font-size="524.934" lengthAdjust="spacingAndGlyphs"
text-anchor="middle" opacity="0">K_Q1</text>
<path d="M14628 7360
L14628 6967
" />
<path d="M14853 7360
L14684 7135
" />
<path d="M14853 6967
L14628 7192
" />
<path d="M14928 7398
L15228 7398
" />
<path d="M15584 7398
L15547 7379
L15509 7342
L15453 7285
L15415 7267
L15378 7267
" />
<path d="M15397 7360
L15359 7342
L15322 7304
L15303 7229
L15303 7098
L15322 7023
L15359 6985
L15397 6967
L15472 6967
L15509 6985
L15547 7023
L15565 7098
L15565 7229
L15547 7304
L15509 7342
L15472 7360
L15397 7360
" />
<path d="M15940 7360
L15715 7360
" />
<path d="M15828 7360
L15828 6967
L15790 7023
L15753 7060
L15715 7079
" />
<text x="15275.2" y="3004.65"
textLength="1989.03" font-size="524.934" lengthAdjust="spacingAndGlyphs"
text-anchor="middle" opacity="0">KEYSW</text>
<path d="M14412 2985
L14412 2592
" />
<path d="M14637 2985
L14469 2760
" />
<path d="M14637 2592
L14412 2817
" />
<path d="M14806 2779
L14937 2779
" />
<path d="M14993 2985
L14806 2985
L14806 2592
L14993 2592
" />
<path d="M15237 2798
L15237 2985
" />
<path d="M15106 2592
L15237 2798
L15368 2592
" />
<path d="M15481 2967
L15537 2985
L15631 2985
L15668 2967
L15687 2948
L15706 2910
L15706 2873
L15687 2835
L15668 2817
L15631 2798
L15556 2779
L15518 2760
L15500 2742
L15481 2704
L15481 2667
L15500 2629
L15518 2610
L15556 2592
L15650 2592
L15706 2610
" />
<path d="M15837 2592
L15931 2985
L16006 2704
L16081 2985
L16175 2592
" />
<text x="82771" y="7379.65"
textLength="1539.09" font-size="524.934" lengthAdjust="spacingAndGlyphs"
text-anchor="middle" opacity="0">K_P1</text>
<path d="M82133 7360
L82133 6967
" />
<path d="M82358 7360
L82189 7135
" />
<path d="M82358 6967
L82133 7192
" />
<path d="M82433 7398
L82733 7398
" />
<path d="M82827 7360
L82827 6967
L82977 6967
L83014 6985
L83033 7004
L83052 7042
L83052 7098
L83033 7135
L83014 7154
L82977 7173
L82827 7173
" />
<path d="M83427 7360
L83202 7360
" />
<path d="M83314 7360
L83314 6967
L83277 7023
L83239 7060
L83202 7079
" />
<text x="82771" y="3004.65"
textLength="1989.03" font-size="524.934" lengthAdjust="spacingAndGlyphs"
text-anchor="middle" opacity="0">KEYSW</text>
<path d="M81908 2985
L81908 2592
" />
<path d="M82133 2985
L81964 2760
" />
<path d="M82133 2592
L81908 2817
" />
<path d="M82302 2779
L82433 2779
" />
<path d="M82489 2985
L82302 2985
L82302 2592
L82489 2592
" />
<path d="M82733 2798
L82733 2985
" />
<path d="M82602 2592
L82733 2798
L82864 2592
" />
<path d="M82977 2967
L83033 2985
L83127 2985
L83164 2967
L83183 2948
L83202 2910
L83202 2873
L83183 2835
L83164 2817
L83127 2798
L83052 2779
L83014 2760
L82995 2742
L82977 2704
L82977 2667
L82995 2629
L83014 2610
L83052 2592
L83145 2592
L83202 2610
" />
<path d="M83333 2592
L83427 2985
L83502 2704
L83577 2985
L83670 2592
" />
<text x="75271.4" y="7379.65"
textLength="1557.84" font-size="524.934" lengthAdjust="spacingAndGlyphs"
text-anchor="middle" opacity="0">K_O1</text>
<path d="M74624 7360
L74624 6967
" />
<path d="M74849 7360
L74680 7135
" />
<path d="M74849 6967
L74624 7192
" />
<path d="M74924 7398
L75224 7398
" />
<path d="M75393 6967
L75468 6967
L75505 6985
L75543 7023
L75562 7098
L75562 7229
L75543 7304
L75505 7342
L75468 7360
L75393 7360
L75355 7342
L75318 7304
L75299 7229
L75299 7098
L75318 7023
L75355 6985
L75393 6967
" />
<path d="M75936 7360
L75712 7360
" />
<path d="M75824 7360
L75824 6967
L75786 7023
L75749 7060
L75712 7079
" />
<text x="75271.4" y="3004.65"
textLength="1989.03" font-size="524.934" lengthAdjust="spacingAndGlyphs"
text-anchor="middle" opacity="0">KEYSW</text>
<path d="M74409 2985
L74409 2592
" />
<path d="M74634 2985
L74465 2760
" />
<path d="M74634 2592
L74409 2817
" />
<path d="M74802 2779
L74933 2779
" />
<path d="M74990 2985
L74802 2985
L74802 2592
L74990 2592
" />
<path d="M75233 2798
L75233 2985
" />
<path d="M75102 2592
L75233 2798
L75365 2592
" />
<path d="M75477 2967
L75533 2985
L75627 2985
L75665 2967
L75683 2948
L75702 2910
L75702 2873
L75683 2835
L75665 2817
L75627 2798
L75552 2779
L75515 2760
L75496 2742
L75477 2704
L75477 2667
L75496 2629
L75515 2610
L75552 2592
L75646 2592
L75702 2610
" />
<path d="M75833 2592
L75927 2985
L76002 2704
L76077 2985
L76171 2592
" />
<text x="58397.5" y="18003.7"
textLength="1989.03" font-size="524.934" lengthAdjust="spacingAndGlyphs"
text-anchor="middle" opacity="0">KEYSW</text>
<path d="M57535 17984
L57535 17591
" />
<path d="M57760 17984
L57591 17759
" />
<path d="M57760 17591
L57535 17816
" />
<path d="M57928 17778
L58060 17778
" />
<path d="M58116 17984
L57928 17984
L57928 17591
L58116 17591
" />
<path d="M58360 17797
L58360 17984
" />
<path d="M58228 17591
L58360 17797
L58491 17591
" />
<path d="M58603 17966
L58659 17984
L58753 17984
L58791 17966
L58809 17947
L58828 17909
L58828 17872
L58809 17834
L58791 17816
L58753 17797
L58678 17778
L58641 17759
L58622 17741
L58603 17703
L58603 17666
L58622 17628
L58641 17610
L58678 17591
L58772 17591
L58828 17610
" />
<path d="M58959 17591
L59053 17984
L59128 17703
L59203 17984
L59297 17591
" />
<text x="75271.4" y="29878.2"
textLength="2982.66" font-size="524.934" lengthAdjust="spacingAndGlyphs"
text-anchor="middle" opacity="0">K_MINUS1</text>
<path d="M73912 29859
L73912 29465
" />
<path d="M74137 29859
L73968 29634
" />
<path d="M74137 29465
L73912 29690
" />
<path d="M74212 29896
L74512 29896
" />
<path d="M74605 29859
L74605 29465
L74737 29746
L74868 29465
L74868 29859
" />
<path d="M75055 29859
L75055 29465
" />
<path d="M75243 29859
L75243 29465
L75468 29859
L75468 29465
" />
<path d="M75655 29465
L75655 29784
L75674 29821
L75693 29840
L75730 29859
L75805 29859
L75843 29840
L75861 29821
L75880 29784
L75880 29465
" />
<path d="M76049 29840
L76105 29859
L76199 29859
L76236 29840
L76255 29821
L76274 29784
L76274 29746
L76255 29709
L76236 29690
L76199 29672
L76124 29653
L76086 29634
L76068 29615
L76049 29578
L76049 29540
L76068 29503
L76086 29484
L76124 29465
L76218 29465
L76274 29484
" />
<path d="M76649 29859
L76424 29859
" />
<path d="M76536 29859
L76536 29465
L76499 29522
L76461 29559
L76424 29578
" />
<text x="75271.4" y="25503.2"
textLength="1989.03" font-size="524.934" lengthAdjust="spacingAndGlyphs"
text-anchor="middle" opacity="0">KEYSW</text>
<path d="M74409 25484
L74409 25090
" />
<path d="M74634 25484
L74465 25259
" />
<path d="M74634 25090
L74409 25315
" />
<path d="M74802 25278
L74933 25278
" />
<path d="M74990 25484
L74802 25484
L74802 25090
L74990 25090
" />
<path d="M75233 25297
L75233 25484
" />
<path d="M75102 25090
L75233 25297
L75365 25090
" />
<path d="M75477 25465
L75533 25484
L75627 25484
L75665 25465
L75683 25446
L75702 25409
L75702 25371
L75683 25334
L75665 25315
L75627 25297
L75552 25278
L75515 25259
L75496 25240
L75477 25203
L75477 25165
L75496 25128
L75515 25109
L75552 25090
L75646 25090
L75702 25109
" />
<path d="M75833 25090
L75927 25484
L76002 25203
L76077 25484
L76171 25090
" />
<text x="65897" y="22378.7"
textLength="1595.33" font-size="524.934" lengthAdjust="spacingAndGlyphs"
text-anchor="middle" opacity="0">K_M1</text>
<path d="M65231 22359
L65231 21966
" />
<path d="M65456 22359
L65287 22134
" />
<path d="M65456 21966
L65231 22191
" />
<path d="M65531 22397
L65831 22397
" />
<path d="M65925 22359
L65925 21966
L66056 22247
L66187 21966
L66187 22359
" />
<path d="M66581 22359
L66356 22359
" />
<path d="M66468 22359
L66468 21966
L66431 22022
L66393 22059
L66356 22078
" />
<text x="65897" y="18003.7"
textLength="1989.03" font-size="524.934" lengthAdjust="spacingAndGlyphs"
text-anchor="middle" opacity="0">KEYSW</text>
<path d="M65034 17984
L65034 17591
" />
<path d="M65259 17984
L65090 17759
" />
<path d="M65259 17591
L65034 17816
" />
<path d="M65428 17778
L65559 17778
" />
<path d="M65615 17984
L65428 17984
L65428 17591
L65615 17591
" />
<path d="M65859 17797
L65859 17984
" />
<path d="M65728 17591
L65859 17797
L65990 17591
" />
<path d="M66103 17966
L66159 17984
L66253 17984
L66290 17966
L66309 17947
L66328 17909
L66328 17872
L66309 17834
L66290 17816
L66253 17797
L66178 17778
L66140 17759
L66121 17741
L66103 17703
L66103 17666
L66121 17628
L66140 17610
L66178 17591
L66271 17591
L66328 17610
" />
<path d="M66459 17591
L66553 17984
L66628 17703
L66703 17984
L66796 17591
" />
<text x="77146.3" y="14879.2"
textLength="1464.1" font-size="524.934" lengthAdjust="spacingAndGlyphs"
text-anchor="middle" opacity="0">K_L1</text>
<path d="M76546 14860
L76546 14466
" />
<path d="M76771 14860
L76602 14635
" />
<path d="M76771 14466
L76546 14691
" />
<path d="M76846 14897
L77146 14897
" />
<path d="M77427 14860
L77240 14860
L77240 14466
" />
<path d="M77764 14860
L77540 14860
" />
<path d="M77652 14860
L77652 14466
L77615 14522
L77577 14560
L77540 14579
" />
<text x="77146.3" y="10504.2"
textLength="1989.03" font-size="524.934" lengthAdjust="spacingAndGlyphs"
text-anchor="middle" opacity="0">KEYSW</text>
<path d="M76283 10485
L76283 10091
" />
<path d="M76508 10485
L76340 10260
" />
<path d="M76508 10091
L76283 10316
" />
<path d="M76677 10279
L76808 10279
" />
<path d="M76865 10485
L76677 10485
L76677 10091
L76865 10091
" />
<path d="M77108 10297
L77108 10485
" />
<path d="M76977 10091
L77108 10297
L77240 10091
" />
<path d="M77352 10466
L77408 10485
L77502 10485
L77540 10466
L77558 10447
L77577 10410
L77577 10372
L77558 10335
L77540 10316
L77502 10297
L77427 10279
L77390 10260
L77371 10241
L77352 10204
L77352 10166
L77371 10129
L77390 10110
L77427 10091
L77521 10091
L77577 10110
" />
<path d="M77708 10091
L77802 10485
L77877 10204
L77952 10485
L78046 10091
" />
<text x="69646.8" y="14879.2"
textLength="1539.09" font-size="524.934" lengthAdjust="spacingAndGlyphs"
text-anchor="middle" opacity="0">K_K1</text>
<path d="M69009 14860
L69009 14466
" />
<path d="M69234 14860
L69065 14635
" />
<path d="M69234 14466
L69009 14691
" />
<path d="M69309 14897
L69609 14897
" />
<path d="M69703 14860
L69703 14466
" />
<path d="M69928 14860
L69759 14635
" />
<path d="M69928 14466
L69703 14691
" />
<path d="M70302 14860
L70077 14860
" />
<path d="M70190 14860
L70190 14466
L70152 14522
L70115 14560
L70077 14579
" />
<text x="69646.8" y="10504.2"
textLength="1989.03" font-size="524.934" lengthAdjust="spacingAndGlyphs"
text-anchor="middle" opacity="0">KEYSW</text>
<path d="M68784 10485
L68784 10091
" />
<path d="M69009 10485
L68840 10260
" />
<path d="M69009 10091
L68784 10316
" />
<path d="M69178 10279
L69309 10279
" />
<path d="M69365 10485
L69178 10485
L69178 10091
L69365 10091
" />
<path d="M69609 10297
L69609 10485
" />
<path d="M69478 10091
L69609 10297
L69740 10091
" />
<path d="M69853 10466
L69909 10485
L70002 10485
L70040 10466
L70059 10447
L70077 10410
L70077 10372
L70059 10335
L70040 10316
L70002 10297
L69928 10279
L69890 10260
L69871 10241
L69853 10204
L69853 10166
L69871 10129
L69890 10110
L69928 10091
L70021 10091
L70077 10110
" />
<path d="M70209 10091
L70302 10485
L70377 10204
L70452 10485
L70546 10091
" />
<text x="62147.3" y="14879.2"
textLength="1445.35" font-size="524.934" lengthAdjust="spacingAndGlyphs"
text-anchor="middle" opacity="0">K_J1</text>
<path d="M61556 14860
L61556 14466
" />
<path d="M61781 14860
L61612 14635
" />
<path d="M61781 14466
L61556 14691
" />
<path d="M61856 14897
L62156 14897
" />
<path d="M62362 14466
L62362 14747
L62344 14804
L62306 14841
L62250 14860
L62212 14860
" />
<path d="M62756 14860
L62531 14860
" />
<path d="M62644 14860
L62644 14466
L62606 14522
L62569 14560
L62531 14579
" />
<text x="62147.3" y="10504.2"
textLength="1989.03" font-size="524.934" lengthAdjust="spacingAndGlyphs"
text-anchor="middle" opacity="0">KEYSW</text>
<path d="M61284 10485
L61284 10091
" />
<path d="M61509 10485
L61341 10260
" />
<path d="M61509 10091
L61284 10316
" />
<path d="M61678 10279
L61809 10279
" />
<path d="M61866 10485
L61678 10485
L61678 10091
L61866 10091
" />
<path d="M62109 10297
L62109 10485
" />
<path d="M61978 10091
L62109 10297
L62240 10091
" />
<path d="M62353 10466
L62409 10485
L62503 10485
L62540 10466
L62559 10447
L62578 10410
L62578 10372
L62559 10335
L62540 10316
L62503 10297
L62428 10279
L62390 10260
L62372 10241
L62353 10204
L62353 10166
L62372 10129
L62390 10110
L62428 10091
L62522 10091
L62578 10110
" />
<path d="M62709 10091
L62803 10485
L62878 10204
L62953 10485
L63047 10091
" />
<text x="67771.9" y="7379.65"
textLength="1332.86" font-size="524.934" lengthAdjust="spacingAndGlyphs"
text-anchor="middle" opacity="0">K_I1</text>
<path d="M67237 7360
L67237 6967
" />
<path d="M67462 7360
L67293 7135
" />
<path d="M67462 6967
L67237 7192
" />
<path d="M67537 7398
L67837 7398
" />
<path d="M67931 7360
L67931 6967
" />
<path d="M68324 7360
L68099 7360
" />
<path d="M68212 7360
L68212 6967
L68174 7023
L68137 7060
L68099 7079
" />
<text x="67771.9" y="3004.65"
textLength="1989.03" font-size="524.934" lengthAdjust="spacingAndGlyphs"
text-anchor="middle" opacity="0">KEYSW</text>
<path d="M66909 2985
L66909 2592
" />
<path d="M67134 2985
L66965 2760
" />
<path d="M67134 2592
L66909 2817
" />
<path d="M67303 2779
L67434 2779
" />
<path d="M67490 2985
L67303 2985
L67303 2592
L67490 2592
" />
<path d="M67734 2798
L67734 2985
" />
<path d="M67603 2592
L67734 2798
L67865 2592
" />
<path d="M67978 2967
L68034 2985
L68128 2985
L68165 2967
L68184 2948
L68203 2910
L68203 2873
L68184 2835
L68165 2817
L68128 2798
L68053 2779
L68015 2760
L67996 2742
L67978 2704
L67978 2667
L67996 2629
L68015 2610
L68053 2592
L68146 2592
L68203 2610
" />
<path d="M68334 2592
L68428 2985
L68503 2704
L68578 2985
L68671 2592
" />
<text x="54647.7" y="14879.2"
textLength="1557.84" font-size="524.934" lengthAdjust="spacingAndGlyphs"
text-anchor="middle" opacity="0">K_H1</text>
<path d="M54000 14860
L54000 14466
" />
<path d="M54225 14860
L54057 14635
" />
<path d="M54225 14466
L54000 14691
" />
<path d="M54300 14897
L54600 14897
" />
<path d="M54694 14860
L54694 14466
" />
<path d="M54694 14654
L54919 14654
" />
<path d="M54919 14860
L54919 14466
" />
<path d="M55313 14860
L55088 14860
" />
<path d="M55200 14860
L55200 14466
L55163 14522
L55125 14560
L55088 14579
" />
<text x="54647.7" y="10504.2"
textLength="1989.03" font-size="524.934" lengthAdjust="spacingAndGlyphs"
text-anchor="middle" opacity="0">KEYSW</text>
<path d="M53785 10485
L53785 10091
" />
<path d="M54010 10485
L53841 10260
" />
<path d="M54010 10091
L53785 10316
" />
<path d="M54179 10279
L54310 10279
" />
<path d="M54366 10485
L54179 10485
L54179 10091
L54366 10091
" />
<path d="M54610 10297
L54610 10485
" />
<path d="M54479 10091
L54610 10297
L54741 10091
" />
<path d="M54853 10466
L54910 10485
L55003 10485
L55041 10466
L55060 10447
L55078 10410
L55078 10372
L55060 10335
L55041 10316
L55003 10297
L54928 10279
L54891 10260
L54872 10241
L54853 10204
L54853 10166
L54872 10129
L54891 10110
L54928 10091
L55022 10091
L55078 10110
" />
<path d="M55210 10091
L55303 10485
L55378 10204
L55453 10485
L55547 10091
" />
<text x="47148.2" y="14879.2"
textLength="1539.09" font-size="524.934" lengthAdjust="spacingAndGlyphs"
text-anchor="middle" opacity="0">K_G1</text>
<path d="M46510 14860
L46510 14466
" />
<path d="M46735 14860
L46567 14635
" />
<path d="M46735 14466
L46510 14691
" />
<path d="M46810 14897
L47110 14897
" />
<path d="M47410 14485
L47373 14466
L47316 14466
L47260 14485
L47223 14522
L47204 14560
L47185 14635
L47185 14691
L47204 14766
L47223 14804
L47260 14841
L47316 14860
L47354 14860
L47410 14841
L47429 14822
L47429 14691
L47354 14691
" />
<path d="M47804 14860
L47579 14860
" />
<path d="M47691 14860
L47691 14466
L47654 14522
L47616 14560
L47579 14579
" />
<text x="47148.2" y="10504.2"
textLength="1989.03" font-size="524.934" lengthAdjust="spacingAndGlyphs"
text-anchor="middle" opacity="0">KEYSW</text>
<path d="M46285 10485
L46285 10091
" />
<path d="M46510 10485
L46342 10260
" />
<path d="M46510 10091
L46285 10316
" />
<path d="M46679 10279
L46810 10279
" />
<path d="M46866 10485
L46679 10485
L46679 10091
L46866 10091
" />
<path d="M47110 10297
L47110 10485
" />
<path d="M46979 10091
L47110 10297
L47241 10091
" />
<path d="M47354 10466
L47410 10485
L47504 10485
L47541 10466
L47560 10447
L47579 10410
L47579 10372
L47560 10335
L47541 10316
L47504 10297
L47429 10279
L47391 10260
L47373 10241
L47354 10204
L47354 10166
L47373 10129
L47391 10110
L47429 10091
L47523 10091
L47579 10110
" />
<path d="M47710 10091
L47804 10485
L47879 10204
L47954 10485
L48048 10091
" />
<text x="39648.7" y="14879.2"
textLength="1482.85" font-size="524.934" lengthAdjust="spacingAndGlyphs"
text-anchor="middle" opacity="0">K_F1</text>
<path d="M39039 14860
L39039 14466
" />
<path d="M39264 14860
L39095 14635
" />
<path d="M39264 14466
L39039 14691
" />
<path d="M39339 14897
L39639 14897
" />
<path d="M39864 14654
L39733 14654
" />
<path d="M39733 14860
L39733 14466
L39920 14466
" />
<path d="M40276 14860
L40051 14860
" />
<path d="M40164 14860
L40164 14466
L40126 14522
L40089 14560
L40051 14579
" />
<text x="39648.7" y="10504.2"
textLength="1989.03" font-size="524.934" lengthAdjust="spacingAndGlyphs"
text-anchor="middle" opacity="0">KEYSW</text>
<path d="M38786 10485
L38786 10091
" />
<path d="M39011 10485
L38842 10260
" />
<path d="M39011 10091
L38786 10316
" />
<path d="M39179 10279
L39311 10279
" />
<path d="M39367 10485
L39179 10485
L39179 10091
L39367 10091
" />
<path d="M39611 10297
L39611 10485
" />
<path d="M39479 10091
L39611 10297
L39742 10091
" />
<path d="M39854 10466
L39911 10485
L40004 10485
L40042 10466
L40061 10447
L40079 10410
L40079 10372
L40061 10335
L40042 10316
L40004 10297
L39929 10279
L39892 10260
L39873 10241
L39854 10204
L39854 10166
L39873 10129
L39892 10110
L39929 10091
L40023 10091
L40079 10110
" />
<path d="M40211 10091
L40304 10485
L40379 10204
L40454 10485
L40548 10091
" />
<text x="82771" y="29878.2"
textLength="2982.66" font-size="524.934" lengthAdjust="spacingAndGlyphs"
text-anchor="middle" opacity="0">K_EQUAL1</text>
<path d="M81411 29859
L81411 29465
" />
<path d="M81636 29859
L81467 29634
" />
<path d="M81636 29465
L81411 29690
" />
<path d="M81711 29896
L82011 29896
" />
<path d="M82105 29653
L82236 29653
" />
<path d="M82292 29859
L82105 29859
L82105 29465
L82292 29465
" />
<path d="M82724 29896
L82686 29878
L82649 29840
L82592 29784
L82555 29765
L82517 29765
" />
<path d="M82536 29859
L82499 29840
L82461 29803
L82442 29728
L82442 29597
L82461 29522
L82499 29484
L82536 29465
L82611 29465
L82649 29484
L82686 29522
L82705 29597
L82705 29728
L82686 29803
L82649 29840
L82611 29859
L82536 29859
" />
<path d="M82874 29465
L82874 29784
L82892 29821
L82911 29840
L82949 29859
L83024 29859
L83061 29840
L83080 29821
L83099 29784
L83099 29465
" />
<path d="M83267 29746
L83455 29746
" />
<path d="M83230 29859
L83361 29465
L83492 29859
" />
<path d="M83811 29859
L83623 29859
L83623 29465
" />
<path d="M84148 29859
L83923 29859
" />
<path d="M84036 29859
L84036 29465
L83998 29522
L83961 29559
L83923 29578
" />
<text x="82771" y="25503.2"
textLength="1989.03" font-size="524.934" lengthAdjust="spacingAndGlyphs"
text-anchor="middle" opacity="0">KEYSW</text>
<path d="M81908 25484
L81908 25090
" />
<path d="M82133 25484
L81964 25259
" />
<path d="M82133 25090
L81908 25315
" />
<path d="M82302 25278
L82433 25278
" />
<path d="M82489 25484
L82302 25484
L82302 25090
L82489 25090
" />
<path d="M82733 25297
L82733 25484
" />
<path d="M82602 25090
L82733 25297
L82864 25090
" />
<path d="M82977 25465
L83033 25484
L83127 25484
L83164 25465
L83183 25446
L83202 25409
L83202 25371
L83183 25334
L83164 25315
L83127 25297
L83052 25278
L83014 25259
L82995 25240
L82977 25203
L82977 25165
L82995 25128
L83014 25109
L83052 25090
L83145 25090
L83202 25109
" />
<path d="M83333 25090
L83427 25484
L83502 25203
L83577 25484
L83670 25090
" />
<text x="30274.3" y="7379.65"
textLength="1501.59" font-size="524.934" lengthAdjust="spacingAndGlyphs"
text-anchor="middle" opacity="0">K_E1</text>
<path d="M29655 7360
L29655 6967
" />
<path d="M29880 7360
L29711 7135
" />
<path d="M29880 6967
L29655 7192
" />
<path d="M29955 7398
L30255 7398
" />
<path d="M30349 7154
L30480 7154
" />
<path d="M30536 7360
L30349 7360
L30349 6967
L30536 6967
" />
<path d="M30911 7360
L30686 7360
" />
<path d="M30799 7360
L30799 6967
L30761 7023
L30724 7060
L30686 7079
" />
<text x="30274.3" y="3004.65"
textLength="1989.03" font-size="524.934" lengthAdjust="spacingAndGlyphs"
text-anchor="middle" opacity="0">KEYSW</text>
<path d="M29411 2985
L29411 2592
" />
<path d="M29636 2985
L29468 2760
" />
<path d="M29636 2592
L29411 2817
" />
<path d="M29805 2779
L29936 2779
" />
<path d="M29993 2985
L29805 2985
L29805 2592
L29993 2592
" />
<path d="M30236 2798
L30236 2985
" />
<path d="M30105 2592
L30236 2798
L30368 2592
" />
<path d="M30480 2967
L30536 2985
L30630 2985
L30667 2967
L30686 2948
L30705 2910
L30705 2873
L30686 2835
L30667 2817
L30630 2798
L30555 2779
L30517 2760
L30499 2742
L30480 2704
L30480 2667
L30499 2629
L30517 2610
L30555 2592
L30649 2592
L30705 2610
" />
<path d="M30836 2592
L30930 2985
L31005 2704
L31080 2985
L31174 2592
" />
<text x="80896.1" y="22378.7"
textLength="2251.5" font-size="524.934" lengthAdjust="spacingAndGlyphs"
text-anchor="middle" opacity="0">K_DOT1</text>
<path d="M79902 22359
L79902 21966
" />
<path d="M80127 22359
L79958 22134
" />
<path d="M80127 21966
L79902 22191
" />
<path d="M80202 22397
L80502 22397
" />
<path d="M80596 22359
L80596 21966
L80689 21966
L80746 21985
L80783 22022
L80802 22059
L80821 22134
L80821 22191
L80802 22266
L80783 22303
L80746 22341
L80689 22359
L80596 22359
" />
<path d="M81064 21966
L81139 21966
L81177 21985
L81214 22022
L81233 22097
L81233 22228
L81214 22303
L81177 22341
L81139 22359
L81064 22359
L81027 22341
L80989 22303
L80971 22228
L80971 22097
L80989 22022
L81027 21985
L81064 21966
" />
<path d="M81346 21966
L81570 21966
" />
<path d="M81458 22359
L81458 21966
" />
<path d="M81908 22359
L81683 22359
" />
<path d="M81795 22359
L81795 21966
L81758 22022
L81720 22059
L81683 22078
" />
<text x="80896.1" y="18003.7"
textLength="1989.03" font-size="524.934" lengthAdjust="spacingAndGlyphs"
text-anchor="middle" opacity="0">KEYSW</text>
<path d="M80033 17984
L80033 17591
" />
<path d="M80258 17984
L80089 17759
" />
<path d="M80258 17591
L80033 17816
" />
<path d="M80427 17778
L80558 17778
" />
<path d="M80614 17984
L80427 17984
L80427 17591
L80614 17591
" />
<path d="M80858 17797
L80858 17984
" />
<path d="M80727 17591
L80858 17797
L80989 17591
" />
<path d="M81102 17966
L81158 17984
L81252 17984
L81289 17966
L81308 17947
L81327 17909
L81327 17872
L81308 17834
L81289 17816
L81252 17797
L81177 17778
L81139 17759
L81121 17741
L81102 17703
L81102 17666
L81121 17628
L81139 17610
L81177 17591
L81271 17591
L81327 17610
" />
<path d="M81458 17591
L81552 17984
L81627 17703
L81702 17984
L81795 17591
" />
<text x="32149.2" y="14879.2"
textLength="1539.09" font-size="524.934" lengthAdjust="spacingAndGlyphs"
text-anchor="middle" opacity="0">K_D1</text>
<path d="M31511 14860
L31511 14466
" />
<path d="M31736 14860
L31567 14635
" />
<path d="M31736 14466
L31511 14691
" />
<path d="M31811 14897
L32111 14897
" />
<path d="M32205 14860
L32205 14466
L32299 14466
L32355 14485
L32392 14522
L32411 14560
L32430 14635
L32430 14691
L32411 14766
L32392 14804
L32355 14841
L32299 14860
L32205 14860
" />
<path d="M32805 14860
L32580 14860
" />
<path d="M32692 14860
L32692 14466
L32655 14522
L32617 14560
L32580 14579
" />
<text x="32149.2" y="10504.2"
textLength="1989.03" font-size="524.934" lengthAdjust="spacingAndGlyphs"
text-anchor="middle" opacity="0">KEYSW</text>
<path d="M31286 10485
L31286 10091
" />
<path d="M31511 10485
L31343 10260
" />
<path d="M31511 10091
L31286 10316
" />
<path d="M31680 10279
L31811 10279
" />
<path d="M31867 10485
L31680 10485
L31680 10091
L31867 10091
" />
<path d="M32111 10297
L32111 10485
" />
<path d="M31980 10091
L32111 10297
L32242 10091
" />
<path d="M32355 10466
L32411 10485
L32505 10485
L32542 10466
L32561 10447
L32580 10410
L32580 10372
L32561 10335
L32542 10316
L32505 10297
L32430 10279
L32392 10260
L32374 10241
L32355 10204
L32355 10166
L32374 10129
L32392 10110
L32430 10091
L32524 10091
L32580 10110
" />
<path d="M32711 10091
L32805 10485
L32880 10204
L32955 10485
L33049 10091
" />
<text x="9650.57" y="14879.2"
textLength="2551.46" font-size="524.934" lengthAdjust="spacingAndGlyphs"
text-anchor="middle" opacity="0">K_CTRL2</text>
<path d="M8506 14860
L8506 14466
" />
<path d="M8731 14860
L8563 14635
" />
<path d="M8731 14466
L8506 14691
" />
<path d="M8806 14897
L9106 14897
" />
<path d="M9425 14822
L9406 14841
L9350 14860
L9313 14860
L9256 14841
L9219 14804
L9200 14766
L9181 14691
L9181 14635
L9200 14560
L9219 14522
L9256 14485
L9313 14466
L9350 14466
L9406 14485
L9425 14504
" />
<path d="M9538 14466
L9763 14466
" />
<path d="M9650 14860
L9650 14466
" />
<path d="M10119 14860
L9988 14672
" />
<path d="M9894 14860
L9894 14466
L10044 14466
L10081 14485
L10100 14504
L10119 14541
L10119 14597
L10100 14635
L10081 14654
L10044 14672
L9894 14672
" />
<path d="M10475 14860
L10287 14860
L10287 14466
" />
<path d="M10587 14504
L10606 14485
L10644 14466
L10737 14466
L10775 14485
L10794 14504
L10812 14541
L10812 14579
L10794 14635
L10569 14860
L10812 14860
" />
<text x="9650.57" y="10504.2"
textLength="1989.03" font-size="524.934" lengthAdjust="spacingAndGlyphs"
text-anchor="middle" opacity="0">KEYSW</text>
<path d="M8788 10485
L8788 10091
" />
<path d="M9013 10485
L8844 10260
" />
<path d="M9013 10091
L8788 10316
" />
<path d="M9181 10279
L9313 10279
" />
<path d="M9369 10485
L9181 10485
L9181 10091
L9369 10091
" />
<path d="M9613 10297
L9613 10485
" />
<path d="M9481 10091
L9613 10297
L9744 10091
" />
<path d="M9856 10466
L9913 10485
L10006 10485
L10044 10466
L10063 10447
L10081 10410
L10081 10372
L10063 10335
L10044 10316
L10006 10297
L9931 10279
L9894 10260
L9875 10241
L9856 10204
L9856 10166
L9875 10129
L9894 10110
L9931 10091
L10025 10091
L10081 10110
" />
<path d="M10212 10091
L10306 10485
L10381 10204
L10456 10485
L10550 10091
" />
<text x="15275.2" y="29878.2"
textLength="2551.46" font-size="524.934" lengthAdjust="spacingAndGlyphs"
text-anchor="middle" opacity="0">K_CTRL1</text>
<path d="M14131 29859
L14131 29465
" />
<path d="M14356 29859
L14187 29634
" />
<path d="M14356 29465
L14131 29690
" />
<path d="M14431 29896
L14731 29896
" />
<path d="M15050 29821
L15031 29840
L14975 29859
L14937 29859
L14881 29840
L14844 29803
L14825 29765
L14806 29690
L14806 29634
L14825 29559
L14844 29522
L14881 29484
L14937 29465
L14975 29465
L15031 29484
L15050 29503
" />
<path d="M15162 29465
L15387 29465
" />
<path d="M15275 29859
L15275 29465
" />
<path d="M15743 29859
L15612 29672
" />
<path d="M15518 29859
L15518 29465
L15668 29465
L15706 29484
L15725 29503
L15743 29540
L15743 29597
L15725 29634
L15706 29653
L15668 29672
L15518 29672
" />
<path d="M16100 29859
L15912 29859
L15912 29465
" />
<path d="M16437 29859
L16212 29859
" />
<path d="M16325 29859
L16325 29465
L16287 29522
L16250 29559
L16212 29578
" />
<text x="15275.2" y="25503.2"
textLength="1989.03" font-size="524.934" lengthAdjust="spacingAndGlyphs"
text-anchor="middle" opacity="0">KEYSW</text>
<path d="M14412 25484
L14412 25090
" />
<path d="M14637 25484
L14469 25259
" />
<path d="M14637 25090
L14412 25315
" />
<path d="M14806 25278
L14937 25278
" />
<path d="M14993 25484
L14806 25484
L14806 25090
L14993 25090
" />
<path d="M15237 25297
L15237 25484
" />
<path d="M15106 25090
L15237 25297
L15368 25090
" />
<path d="M15481 25465
L15537 25484
L15631 25484
L15668 25465
L15687 25446
L15706 25409
L15706 25371
L15687 25334
L15668 25315
L15631 25297
L15556 25278
L15518 25259
L15500 25240
L15481 25203
L15481 25165
L15500 25128
L15518 25109
L15556 25090
L15650 25090
L15706 25109
" />
<path d="M15837 25090
L15931 25484
L16006 25203
L16081 25484
L16175 25090
" />
<text x="73396.6" y="22378.7"
textLength="3188.88" font-size="524.934" lengthAdjust="spacingAndGlyphs"
text-anchor="middle" opacity="0">K_COMMA1</text>
<path d="M71934 22359
L71934 21966
" />
<path d="M72159 22359
L71990 22134
" />
<path d="M72159 21966
L71934 22191
" />
<path d="M72234 22397
L72534 22397
" />
<path d="M72852 22322
L72834 22341
L72777 22359
L72740 22359
L72684 22341
L72646 22303
L72627 22266
L72609 22191
L72609 22134
L72627 22059
L72646 22022
L72684 21985
L72740 21966
L72777 21966
L72834 21985
L72852 22003
" />
<path d="M73096 21966
L73171 21966
L73209 21985
L73246 22022
L73265 22097
L73265 22228
L73246 22303
L73209 22341
L73171 22359
L73096 22359
L73059 22341
L73021 22303
L73002 22228
L73002 22097
L73021 22022
L73059 21985
L73096 21966
" />
<path d="M73434 22359
L73434 21966
L73565 22247
L73696 21966
L73696 22359
" />
<path d="M73883 22359
L73883 21966
L74015 22247
L74146 21966
L74146 22359
" />
<path d="M74315 22247
L74502 22247
" />
<path d="M74277 22359
L74408 21966
L74540 22359
" />
<path d="M74877 22359
L74652 22359
" />
<path d="M74765 22359
L74765 21966
L74727 22022
L74690 22059
L74652 22078
" />
<text x="73396.6" y="18003.7"
textLength="1989.03" font-size="524.934" lengthAdjust="spacingAndGlyphs"
text-anchor="middle" opacity="0">KEYSW</text>
<path d="M72534 17984
L72534 17591
" />
<path d="M72759 17984
L72590 17759
" />
<path d="M72759 17591
L72534 17816
" />
<path d="M72927 17778
L73059 17778
" />
<path d="M73115 17984
L72927 17984
L72927 17591
L73115 17591
" />
<path d="M73359 17797
L73359 17984
" />
<path d="M73227 17591
L73359 17797
L73490 17591
" />
<path d="M73602 17966
L73659 17984
L73752 17984
L73790 17966
L73809 17947
L73827 17909
L73827 17872
L73809 17834
L73790 17816
L73752 17797
L73677 17778
L73640 17759
L73621 17741
L73602 17703
L73602 17666
L73621 17628
L73640 17610
L73677 17591
L73771 17591
L73827 17610
" />
<path d="M73958 17591
L74052 17984
L74127 17703
L74202 17984
L74296 17591
" />
<text x="35898.9" y="22378.7"
textLength="1539.09" font-size="524.934" lengthAdjust="spacingAndGlyphs"
text-anchor="middle" opacity="0">K_C1</text>
<path d="M35261 22359
L35261 21966
" />
<path d="M35486 22359
L35317 22134
" />
<path d="M35486 21966
L35261 22191
" />
<path d="M35561 22397
L35861 22397
" />
<path d="M36180 22322
L36161 22341
L36105 22359
L36067 22359
L36011 22341
L35973 22303
L35955 22266
L35936 22191
L35936 22134
L35955 22059
L35973 22022
L36011 21985
L36067 21966
L36105 21966
L36161 21985
L36180 22003
" />
<path d="M36555 22359
L36330 22359
" />
<path d="M36442 22359
L36442 21966
L36405 22022
L36367 22059
L36330 22078
" />
<text x="35898.9" y="18003.7"
textLength="1989.03" font-size="524.934" lengthAdjust="spacingAndGlyphs"
text-anchor="middle" opacity="0">KEYSW</text>
<path d="M35036 17984
L35036 17591
" />
<path d="M35261 17984
L35092 17759
" />
<path d="M35261 17591
L35036 17816
" />
<path d="M35430 17778
L35561 17778
" />
<path d="M35617 17984
L35430 17984
L35430 17591
L35617 17591
" />
<path d="M35861 17797
L35861 17984
" />
<path d="M35730 17591
L35861 17797
L35992 17591
" />
<path d="M36105 17966
L36161 17984
L36255 17984
L36292 17966
L36311 17947
L36330 17909
L36330 17872
L36311 17834
L36292 17816
L36255 17797
L36180 17778
L36142 17759
L36123 17741
L36105 17703
L36105 17666
L36123 17628
L36142 17610
L36180 17591
L36273 17591
L36330 17610
" />
<path d="M36461 17591
L36555 17984
L36630 17703
L36705 17984
L36798 17591
" />
<text x="90270.5" y="7379.65"
textLength="3020.15" font-size="524.934" lengthAdjust="spacingAndGlyphs"
text-anchor="middle" opacity="0">K_BSLSH1</text>
<path d="M88892 7360
L88892 6967
" />
<path d="M89117 7360
L88948 7135
" />
<path d="M89117 6967
L88892 7192
" />
<path d="M89192 7398
L89492 7398
" />
<path d="M89717 7154
L89773 7173
L89792 7192
L89811 7229
L89811 7285
L89792 7323
L89773 7342
L89736 7360
L89586 7360
L89586 6967
L89717 6967
L89754 6985
L89773 7004
L89792 7042
L89792 7079
L89773 7117
L89754 7135
L89717 7154
L89586 7154
" />
<path d="M89961 7342
L90017 7360
L90111 7360
L90148 7342
L90167 7323
L90186 7285
L90186 7248
L90167 7210
L90148 7192
L90111 7173
L90036 7154
L89998 7135
L89979 7117
L89961 7079
L89961 7042
L89979 7004
L89998 6985
L90036 6967
L90129 6967
L90186 6985
" />
<path d="M90542 7360
L90354 7360
L90354 6967
" />
<path d="M90654 7342
L90711 7360
L90804 7360
L90842 7342
L90861 7323
L90879 7285
L90879 7248
L90861 7210
L90842 7192
L90804 7173
L90729 7154
L90692 7135
L90673 7117
L90654 7079
L90654 7042
L90673 7004
L90692 6985
L90729 6967
L90823 6967
L90879 6985
" />
<path d="M91048 7360
L91048 6967
" />
<path d="M91048 7154
L91273 7154
" />
<path d="M91273 7360
L91273 6967
" />
<path d="M91667 7360
L91442 7360
" />
<path d="M91554 7360
L91554 6967
L91517 7023
L91479 7060
L91442 7079
" />
<text x="90270.5" y="3004.65"
textLength="1989.03" font-size="524.934" lengthAdjust="spacingAndGlyphs"
text-anchor="middle" opacity="0">KEYSW</text>
<path d="M89408 2985
L89408 2592
" />
<path d="M89633 2985
L89464 2760
" />
<path d="M89633 2592
L89408 2817
" />
<path d="M89801 2779
L89933 2779
" />
<path d="M89989 2985
L89801 2985
L89801 2592
L89989 2592
" />
<path d="M90232 2798
L90232 2985
" />
<path d="M90101 2592
L90232 2798
L90364 2592
" />
<path d="M90476 2967
L90532 2985
L90626 2985
L90664 2967
L90682 2948
L90701 2910
L90701 2873
L90682 2835
L90664 2817
L90626 2798
L90551 2779
L90514 2760
L90495 2742
L90476 2704
L90476 2667
L90495 2629
L90514 2610
L90551 2592
L90645 2592
L90701 2610
" />
<path d="M90832 2592
L90926 2985
L91001 2704
L91076 2985
L91170 2592
" />
<text x="50898" y="22378.7"
textLength="1539.09" font-size="524.934" lengthAdjust="spacingAndGlyphs"
text-anchor="middle" opacity="0">K_B1</text>
<path d="M50260 22359
L50260 21966
" />
<path d="M50485 22359
L50316 22134
" />
<path d="M50485 21966
L50260 22191
" />
<path d="M50560 22397
L50860 22397
" />
<path d="M51085 22153
L51141 22172
L51160 22191
L51179 22228
L51179 22284
L51160 22322
L51141 22341
L51104 22359
L50954 22359
L50954 21966
L51085 21966
L51122 21985
L51141 22003
L51160 22041
L51160 22078
L51141 22116
L51122 22134
L51085 22153
L50954 22153
" />
<path d="M51554 22359
L51329 22359
" />
<path d="M51441 22359
L51441 21966
L51404 22022
L51366 22059
L51329 22078
" />
<text x="50898" y="18003.7"
textLength="1989.03" font-size="524.934" lengthAdjust="spacingAndGlyphs"
text-anchor="middle" opacity="0">KEYSW</text>
<path d="M50035 17984
L50035 17591
" />
<path d="M50260 17984
L50091 17759
" />
<path d="M50260 17591
L50035 17816
" />
<path d="M50429 17778
L50560 17778
" />
<path d="M50616 17984
L50429 17984
L50429 17591
L50616 17591
" />
<path d="M50860 17797
L50860 17984
" />
<path d="M50729 17591
L50860 17797
L50991 17591
" />
<path d="M51104 17966
L51160 17984
L51254 17984
L51291 17966
L51310 17947
L51329 17909
L51329 17872
L51310 17834
L51291 17816
L51254 17797
L51179 17778
L51141 17759
L51122 17741
L51104 17703
L51104 17666
L51122 17628
L51141 17610
L51179 17591
L51272 17591
L51329 17610
" />
<path d="M51460 17591
L51554 17984
L51629 17703
L51704 17984
L51797 17591
" />
<text x="30274.3" y="29878.2"
textLength="2101.52" font-size="524.934" lengthAdjust="spacingAndGlyphs"
text-anchor="middle" opacity="0">K_ALT1</text>
<path d="M29355 29859
L29355 29465
" />
<path d="M29580 29859
L29411 29634
" />
<path d="M29580 29465
L29355 29690
" />
<path d="M29655 29896
L29955 29896
" />
<path d="M30030 29746
L30218 29746
" />
<path d="M29993 29859
L30124 29465
L30255 29859
" />
<path d="M30574 29859
L30386 29859
L30386 29465
" />
<path d="M30649 29465
L30874 29465
" />
<path d="M30761 29859
L30761 29465
" />
<path d="M31211 29859
L30986 29859
" />
<path d="M31099 29859
L31099 29465
L31061 29522
L31024 29559
L30986 29578
" />
<text x="30274.3" y="25503.2"
textLength="1989.03" font-size="524.934" lengthAdjust="spacingAndGlyphs"
text-anchor="middle" opacity="0">KEYSW</text>
<path d="M29411 25484
L29411 25090
" />
<path d="M29636 25484
L29468 25259
" />
<path d="M29636 25090
L29411 25315
" />
<path d="M29805 25278
L29936 25278
" />
<path d="M29993 25484
L29805 25484
L29805 25090
L29993 25090
" />
<path d="M30236 25297
L30236 25484
" />
<path d="M30105 25090
L30236 25297
L30368 25090
" />
<path d="M30480 25465
L30536 25484
L30630 25484
L30667 25465
L30686 25446
L30705 25409
L30705 25371
L30686 25334
L30667 25315
L30630 25297
L30555 25278
L30517 25259
L30499 25240
L30480 25203
L30480 25165
L30499 25128
L30517 25109
L30555 25090
L30649 25090
L30705 25109
" />
<path d="M30836 25090
L30930 25484
L31005 25203
L31080 25484
L31174 25090
" />
<text x="17150.1" y="14879.2"
textLength="1482.85" font-size="524.934" lengthAdjust="spacingAndGlyphs"
text-anchor="middle" opacity="0">K_A1</text>
<path d="M16540 14860
L16540 14466
" />
<path d="M16765 14860
L16597 14635
" />
<path d="M16765 14466
L16540 14691
" />
<path d="M16840 14897
L17140 14897
" />
<path d="M17215 14747
L17403 14747
" />
<path d="M17178 14860
L17309 14466
L17440 14860
" />
<path d="M17778 14860
L17553 14860
" />
<path d="M17665 14860
L17665 14466
L17628 14522
L17590 14560
L17553 14579
" />
<text x="17150.1" y="10504.2"
textLength="1989.03" font-size="524.934" lengthAdjust="spacingAndGlyphs"
text-anchor="middle" opacity="0">KEYSW</text>
<path d="M16287 10485
L16287 10091
" />
<path d="M16512 10485
L16343 10260
" />
<path d="M16512 10091
L16287 10316
" />
<path d="M16681 10279
L16812 10279
" />
<path d="M16868 10485
L16681 10485
L16681 10091
L16868 10091
" />
<path d="M17112 10297
L17112 10485
" />
<path d="M16981 10091
L17112 10297
L17243 10091
" />
<path d="M17356 10466
L17412 10485
L17506 10485
L17543 10466
L17562 10447
L17581 10410
L17581 10372
L17562 10335
L17543 10316
L17506 10297
L17431 10279
L17393 10260
L17375 10241
L17356 10204
L17356 10166
L17375 10129
L17393 10110
L17431 10091
L17525 10091
L17581 10110
" />
<path d="M17712 10091
L17806 10485
L17881 10204
L17956 10485
L18049 10091
" />
<text x="95895.1" y="22378.7"
textLength="1295.37" font-size="524.934" lengthAdjust="spacingAndGlyphs"
text-anchor="middle" opacity="0">K_`1</text>
<path d="M95379 22359
L95379 21966
" />
<path d="M95604 22359
L95435 22134
" />
<path d="M95604 21966
L95379 22191
" />
<path d="M95679 22397
L95979 22397
" />
<path d="M96016 21947
L96073 22003
" />
<path d="M96429 22359
L96204 22359
" />
<path d="M96316 22359
L96316 21966
L96279 22022
L96241 22059
L96204 22078
" />
<text x="95895.1" y="18003.7"
textLength="1989.03" font-size="524.934" lengthAdjust="spacingAndGlyphs"
text-anchor="middle" opacity="0">KEYSW</text>
<path d="M95032 17984
L95032 17591
" />
<path d="M95257 17984
L95088 17759
" />
<path d="M95257 17591
L95032 17816
" />
<path d="M95426 17778
L95557 17778
" />
<path d="M95613 17984
L95426 17984
L95426 17591
L95613 17591
" />
<path d="M95857 17797
L95857 17984
" />
<path d="M95726 17591
L95857 17797
L95988 17591
" />
<path d="M96101 17966
L96157 17984
L96251 17984
L96288 17966
L96307 17947
L96326 17909
L96326 17872
L96307 17834
L96288 17816
L96251 17797
L96176 17778
L96138 17759
L96120 17741
L96101 17703
L96101 17666
L96120 17628
L96138 17610
L96176 17591
L96270 17591
L96326 17610
" />
<path d="M96457 17591
L96551 17984
L96626 17703
L96701 17984
L96795 17591
" />
<g >
</g>
</g>
<g style="fill:#000000; fill-opacity:0.0; 
stroke:#000000; stroke-width:59.0551; stroke-opacity:1; 
stroke-linecap:round; stroke-linejoin:round;">
</g>
<g style="fill:#C2C200; fill-opacity:0.0; 
stroke:#C2C200; stroke-width:59.0551; stroke-opacity:1; 
stroke-linecap:round; stroke-linejoin:round;">
</g>
<g style="fill:#C2C200; fill-opacity:0.0; 
stroke:#C2C200; stroke-width:39.3701; stroke-opacity:1; 
stroke-linecap:round; stroke-linejoin:round;">
<path d="M3088.48 620.63 A624.961 624.961 0.0 0 0 2463.52 1245.59" />
<path d="M95582.7 1245.59 A624.961 624.961 0.0 0 0 94957.7 620.63" />
<path d="M95582.7 7495.2 A624.961 624.961 0.0 0 0 96207.6 8120.16" />
<path d="M97457.5 8745.12 A624.961 624.961 0.0 0 0 96832.6 8120.16" />
<path d="M97457.5 14994.7 A624.961 624.961 0.0 0 0 98082.5 15619.7" />
<path d="M101207 16244.6 A624.961 624.961 0.0 0 0 100582 15619.7" />
<path d="M100582 26244 A624.961 624.961 0.0 0 0 101207 25619.1" />
<path d="M96207.6 26244 A624.961 624.961 0.0 0 0 95582.7 26869" />
<path d="M94957.7 33743.5 A624.961 624.961 0.0 0 0 95582.7 33118.6" />
<path d="M9963.05 33118.6 A624.961 624.961 0.0 0 0 10588 33743.5" />
<path d="M9963.05 26869 A624.961 624.961 0.0 0 0 9338.09 26244" />
<path d="M8088.17 25619.1 A624.961 624.961 0.0 0 0 8713.13 26244" />
<path d="M8088.17 19369.4 A624.961 624.961 0.0 0 0 7463.21 18744.5" />
<path d="M4338.4 18119.5 A624.961 624.961 0.0 0 0 4963.36 18744.5" />
<path d="M4338.4 11869.9 A624.961 624.961 0.0 0 0 3713.44 11245" />
<path d="M2463.52 10620 A624.961 624.961 0.0 0 0 3088.48 11245" />
<path d="M2463 10620
L2463 1245
" />
<path d="M3713 11244
L3088 11244
" />
<path d="M4338 18119
L4338 11869
" />
<path d="M7463 18744
L4963 18744
" />
<path d="M8088 25619
L8088 19369
" />
<path d="M9338 26244
L8713 26244
" />
<path d="M9963 33118
L9963 26868
" />
<path d="M94957 33743
L10588 33743
" />
<path d="M95582 26868
L95582 33118
" />
<path d="M100582 26244
L96207 26244
" />
<path d="M101207 16244
L101207 25619
" />
<path d="M98082 15619
L100582 15619
" />
<path d="M97457 8745
L97457 14994
" />
<path d="M96207 8120
L96832 8120
" />
<path d="M95582 1245
L95582 7495
" />
<path d="M3088 620
L94957 620
" />
<g >
</g>
<g >
</g>
<g >
</g>
<g >
</g>
<g >
</g>
<g >
</g>
<g >
</g>
<g >
</g>
<g >
</g>
<g >
</g>
<g >
</g>
<g >
</g>
<g >
</g>
<g >
</g>
<g >
</g>
<g >
</g>
<g >
</g>
<g >
</g>
<g >
</g>
<g >
</g>
<g >
</g>
<g >
</g>
<g >
</g>
<g >
</g>
<g >
</g>
<g >
</g>
<g >
</g>
<g >
</g>
<g >
</g>
<g >
</g>
<g >
</g>
<g >
</g>
<g >
</g>
<g >
</g>
<g >
</g>
<g >
</g>
<g >
</g>
<g >
</g>
<g >
</g>
<g >
</g>
<g >
</g>
<g >
</g>
<g >
</g>
<g >
</g>
<g >
</g>
<g >
</g>
<g >
</g>
<g >
</g>
<g >
</g>
<g >
</g>
<g >
</g>
<g >
</g>
<g >
</g>
<g >
</g>
<g >
</g>
<g >
</g>
<g >
</g>
<g >
</g>
<g >
</g>
<g >
</g>
<g >
</g>
<g >
</g>
<g >
</g>
<g >
</g>
<g >
</g>
<g >
</g>
<g >
</g>
<g >
</g>
<g >
</g>
<g >
</g>
<g >
</g>
<g >
</g>
<g >
</g>
<g >
</g>
<g >
</g>
<g >
</g>
<g >
</g>
<g >
</g>
<g >
</g>
<g >
</g>
<g >
</g>
<g >
</g>
<g >
</g>
<g >
</g>
<g >
</g>
<g >
</g>
<g >
</g>
<g >
</g>
<g >
</g>
<g >
</g>
<g >
</g>
<g >
</g>
<g >
</g>
<g >
</g>
<g >
</g>
<g >
</g>
</g> 
</svg>
