M48
; DRILL file {KiCad (5.1.9-0-10_14)} date Thursday, July 01, 2021 at 09:13:33 AM
; FORMAT={-:-/ absolute / inch / decimal}
; #@! TF.CreationDate,2021-07-01T09:13:33-05:00
; #@! TF.GenerationSoftware,Kicad,Pcbnew,(5.1.9-0-10_14)
; #@! TF.FileFunction,Plated,1,2,PTH
FMAT,2
INCH
T1C0.0157
T2C0.0430
T3C0.0579
%
G90
G05
T1
X2.4686Y-1.2499
X2.4686Y-1.3124
X2.8748Y-1.4999
X3.3435Y-1.5312
X3.6248Y-1.4999
X4.3122Y-1.4687
X5.0622Y-1.4374
X5.6871Y-1.4374
X6.4683Y-1.4062
X7.2808Y-1.3764
X7.937Y-1.3749
X8.687Y-1.3437
X9.4369Y-1.3124
T2
X1.1061Y-0.8562
X1.1061Y-1.4562
X1.2061Y-0.8562
X1.2061Y-1.4562
X1.3061Y-0.8562
X1.3061Y-1.4562
X1.4061Y-0.8562
X1.4061Y-1.4562
X1.5061Y-0.8562
X1.5061Y-1.4562
X1.6061Y-0.8562
X1.6061Y-1.4562
X1.7061Y-0.8562
X1.7061Y-1.4562
X1.8061Y-0.8562
X1.8061Y-1.4562
X1.9061Y-0.8562
X1.9061Y-1.4562
X2.0061Y-0.8562
X2.0061Y-1.4562
X2.1061Y-0.8562
X2.1061Y-1.4562
X2.2061Y-0.8562
X2.2061Y-1.4562
T3
X1.1937Y-1.0874
X1.3812Y-1.8374
X1.4437Y-0.9874
X1.6312Y-1.7374
X1.7561Y-2.5873
X1.9436Y-1.0874
X1.9436Y-3.3373
X2.0061Y-2.4873
X2.1311Y-1.8374
X2.1936Y-0.9874
X2.1936Y-3.2373
X2.3811Y-1.7374
X2.5061Y-2.5873
X2.6936Y-1.0874
X2.6936Y-3.3373
X2.7561Y-2.4873
X2.8811Y-1.8374
X2.9436Y-0.9874
X2.9436Y-3.2373
X3.1311Y-1.7374
X3.256Y-2.5873
X3.4435Y-1.0874
X3.4435Y-3.3373
X3.506Y-2.4873
X3.631Y-1.8374
X3.6935Y-0.9874
X3.6935Y-3.2373
X3.881Y-1.7374
X4.006Y-2.5873
X4.1935Y-1.0874
X4.256Y-2.4873
X4.381Y-1.8374
X4.4435Y-0.9874
X4.631Y-1.7374
X4.7559Y-2.5873
X4.8497Y-3.3373
X4.9434Y-1.0874
X5.0059Y-2.4873
X5.0997Y-3.2373
X5.1309Y-1.8374
X5.1934Y-0.9874
X5.3809Y-1.7374
X5.5059Y-2.5873
X5.6934Y-1.0874
X5.7559Y-2.4873
X5.8809Y-1.8374
X5.9434Y-0.9874
X6.1309Y-1.7374
X6.2558Y-2.5873
X6.4433Y-1.0874
X6.5058Y-2.4873
X6.6308Y-1.8374
X6.6933Y-0.9874
X6.7246Y-3.3373
X6.8808Y-1.7374
X6.9746Y-3.2373
X7.0058Y-2.5873
X7.1933Y-1.0874
X7.2558Y-2.4873
X7.3808Y-1.8374
X7.4433Y-0.9874
X7.6308Y-1.7374
X7.7558Y-2.5873
X7.9432Y-1.0874
X7.9432Y-3.3373
X8.0058Y-2.4873
X8.1307Y-1.8374
X8.1932Y-0.9874
X8.1932Y-3.2373
X8.3807Y-1.7374
X8.5057Y-2.5873
X8.6932Y-1.0874
X8.6932Y-3.3373
X8.7557Y-2.4873
X8.8807Y-1.8374
X8.9432Y-0.9874
X8.9432Y-3.2373
X9.1307Y-1.7374
X9.2557Y-2.5873
X9.4431Y-1.0874
X9.4431Y-3.3373
X9.5057Y-2.4873
X9.6306Y-1.8374
X9.6931Y-0.9874
X9.6931Y-3.2373
X9.8806Y-1.7374
X10.0056Y-2.5873
X10.2556Y-2.4873
T0
M30
