M48
; DRILL file {KiCad (5.1.9-0-10_14)} date Thursday, July 01, 2021 at 09:13:33 AM
; FORMAT={-:-/ absolute / inch / decimal}
; #@! TF.CreationDate,2021-07-01T09:13:33-05:00
; #@! TF.GenerationSoftware,Kicad,Pcbnew,(5.1.9-0-10_14)
; #@! TF.FileFunction,NonPlated,1,2,NPTH
FMAT,2
INCH
T1C0.0689
T2C0.0866
T3C0.1200
T4C0.1570
%
G90
G05
T1
X1.1437Y-1.1874
X1.3312Y-1.9374
X1.5437Y-1.1874
X1.7061Y-2.6873
X1.7312Y-1.9374
X1.8936Y-1.1874
X1.8936Y-3.4373
X2.0811Y-1.9374
X2.1061Y-2.6873
X2.2936Y-1.1874
X2.2936Y-3.4373
X2.4561Y-2.6873
X2.4811Y-1.9374
X2.6436Y-1.1874
X2.6436Y-3.4373
X2.8311Y-1.9374
X2.8561Y-2.6873
X3.0436Y-1.1874
X3.0436Y-3.4373
X3.206Y-2.6873
X3.2311Y-1.9374
X3.3935Y-1.1874
X3.3935Y-3.4373
X3.581Y-1.9374
X3.606Y-2.6873
X3.7935Y-1.1874
X3.7935Y-3.4373
X3.956Y-2.6873
X3.981Y-1.9374
X4.1435Y-1.1874
X4.331Y-1.9374
X4.356Y-2.6873
X4.5435Y-1.1874
X4.7059Y-2.6873
X4.731Y-1.9374
X4.7997Y-3.4373
X4.8934Y-1.1874
X5.0809Y-1.9374
X5.1059Y-2.6873
X5.1997Y-3.4373
X5.2934Y-1.1874
X5.4559Y-2.6873
X5.4809Y-1.9374
X5.6434Y-1.1874
X5.8309Y-1.9374
X5.8559Y-2.6873
X6.0434Y-1.1874
X6.2058Y-2.6873
X6.2309Y-1.9374
X6.3933Y-1.1874
X6.5808Y-1.9374
X6.6058Y-2.6873
X6.6746Y-3.4373
X6.7933Y-1.1874
X6.9558Y-2.6873
X6.9808Y-1.9374
X7.0746Y-3.4373
X7.1433Y-1.1874
X7.3308Y-1.9374
X7.3558Y-2.6873
X7.5433Y-1.1874
X7.7058Y-2.6873
X7.7308Y-1.9374
X7.8932Y-1.1874
X7.8932Y-3.4373
X8.0807Y-1.9374
X8.1058Y-2.6873
X8.2932Y-1.1874
X8.2932Y-3.4373
X8.4557Y-2.6873
X8.4807Y-1.9374
X8.6432Y-1.1874
X8.6432Y-3.4373
X8.8307Y-1.9374
X8.8557Y-2.6873
X9.0432Y-1.1874
X9.0432Y-3.4373
X9.2057Y-2.6873
X9.2307Y-1.9374
X9.3931Y-1.1874
X9.3931Y-3.4373
X9.5806Y-1.9374
X9.6057Y-2.6873
X9.7931Y-1.1874
X9.7931Y-3.4373
X9.9556Y-2.6873
X9.9806Y-1.9374
X10.3556Y-2.6873
T2
X0.9374Y-0.7812
X1.6561Y-3.8748
X5.5621Y-0.7812
X6.0309Y-3.8435
X10.0306Y-0.75
X10.0306Y-3.8748
T3
X4.5309Y-3.1623
X5.4684Y-3.1623
X6.4058Y-3.1623
X7.3433Y-3.1623
T4
X1.3437Y-1.1874
X1.5312Y-1.9374
X1.9061Y-2.6873
X2.0936Y-1.1874
X2.0936Y-3.4373
X2.2811Y-1.9374
X2.6561Y-2.6873
X2.8436Y-1.1874
X2.8436Y-3.4373
X3.0311Y-1.9374
X3.406Y-2.6873
X3.5935Y-1.1874
X3.5935Y-3.4373
X3.781Y-1.9374
X4.156Y-2.6873
X4.3435Y-1.1874
X4.5309Y-3.7623
X4.531Y-1.9374
X4.9059Y-2.6873
X4.9997Y-3.4373
X5.0934Y-1.1874
X5.2809Y-1.9374
X5.4684Y-3.7623
X5.6559Y-2.6873
X5.8434Y-1.1874
X6.0309Y-1.9374
X6.4058Y-3.7623
X6.4058Y-2.6873
X6.5933Y-1.1874
X6.7808Y-1.9374
X6.8746Y-3.4373
X7.1558Y-2.6873
X7.3433Y-1.1874
X7.3433Y-3.7623
X7.5308Y-1.9374
X7.9058Y-2.6873
X8.0932Y-1.1874
X8.0932Y-3.4373
X8.2807Y-1.9374
X8.6557Y-2.6873
X8.8432Y-1.1874
X8.8432Y-3.4373
X9.0307Y-1.9374
X9.4057Y-2.6873
X9.5931Y-1.1874
X9.5931Y-3.4373
X9.7806Y-1.9374
X10.1556Y-2.6873
T0
M30
