G04 #@! TF.GenerationSoftware,KiCad,Pcbnew,(5.1.9-0-10_14)*
G04 #@! TF.CreationDate,2021-07-01T09:13:36-05:00*
G04 #@! TF.ProjectId,keyboard,6b657962-6f61-4726-942e-6b696361645f,rev?*
G04 #@! TF.SameCoordinates,Original*
G04 #@! TF.FileFunction,Legend,Bot*
G04 #@! TF.FilePolarity,Positive*
%FSLAX46Y46*%
G04 Gerber Fmt 4.6, Leading zero omitted, Abs format (unit mm)*
G04 Created by KiCad (PCBNEW (5.1.9-0-10_14)) date 2021-07-01 09:13:36*
%MOMM*%
%LPD*%
G01*
G04 APERTURE LIST*
%ADD10C,0.300000*%
%ADD11C,0.010000*%
%ADD12C,0.381000*%
%ADD13C,0.150000*%
%ADD14C,0.120000*%
G04 APERTURE END LIST*
D10*
X248835157Y-97509971D02*
X248835157Y-96724257D01*
X248906585Y-96581400D01*
X249049442Y-96509971D01*
X249335157Y-96509971D01*
X249478014Y-96581400D01*
X248835157Y-97438542D02*
X248978014Y-97509971D01*
X249335157Y-97509971D01*
X249478014Y-97438542D01*
X249549442Y-97295685D01*
X249549442Y-97152828D01*
X249478014Y-97009971D01*
X249335157Y-96938542D01*
X248978014Y-96938542D01*
X248835157Y-96867114D01*
X248192300Y-97438542D02*
X248049442Y-97509971D01*
X247763728Y-97509971D01*
X247620871Y-97438542D01*
X247549442Y-97295685D01*
X247549442Y-97224257D01*
X247620871Y-97081400D01*
X247763728Y-97009971D01*
X247978014Y-97009971D01*
X248120871Y-96938542D01*
X248192300Y-96795685D01*
X248192300Y-96724257D01*
X248120871Y-96581400D01*
X247978014Y-96509971D01*
X247763728Y-96509971D01*
X247620871Y-96581400D01*
X247120871Y-96509971D02*
X246549442Y-96509971D01*
X246906585Y-96009971D02*
X246906585Y-97295685D01*
X246835157Y-97438542D01*
X246692300Y-97509971D01*
X246549442Y-97509971D01*
X246049442Y-97509971D02*
X246049442Y-96509971D01*
X246049442Y-96795685D02*
X245978014Y-96652828D01*
X245906585Y-96581400D01*
X245763728Y-96509971D01*
X245620871Y-96509971D01*
X244478014Y-97509971D02*
X244478014Y-96724257D01*
X244549442Y-96581400D01*
X244692300Y-96509971D01*
X244978014Y-96509971D01*
X245120871Y-96581400D01*
X244478014Y-97438542D02*
X244620871Y-97509971D01*
X244978014Y-97509971D01*
X245120871Y-97438542D01*
X245192300Y-97295685D01*
X245192300Y-97152828D01*
X245120871Y-97009971D01*
X244978014Y-96938542D01*
X244620871Y-96938542D01*
X244478014Y-96867114D01*
X242835157Y-96509971D02*
X242263728Y-96509971D01*
X242620871Y-96009971D02*
X242620871Y-97295685D01*
X242549442Y-97438542D01*
X242406585Y-97509971D01*
X242263728Y-97509971D01*
X241120871Y-97509971D02*
X241120871Y-96724257D01*
X241192300Y-96581400D01*
X241335157Y-96509971D01*
X241620871Y-96509971D01*
X241763728Y-96581400D01*
X241120871Y-97438542D02*
X241263728Y-97509971D01*
X241620871Y-97509971D01*
X241763728Y-97438542D01*
X241835157Y-97295685D01*
X241835157Y-97152828D01*
X241763728Y-97009971D01*
X241620871Y-96938542D01*
X241263728Y-96938542D01*
X241120871Y-96867114D01*
X240406585Y-96509971D02*
X240406585Y-97509971D01*
X240406585Y-96652828D02*
X240335157Y-96581400D01*
X240192300Y-96509971D01*
X239978014Y-96509971D01*
X239835157Y-96581400D01*
X239763728Y-96724257D01*
X239763728Y-97509971D01*
X238406585Y-96509971D02*
X238406585Y-97509971D01*
X239049442Y-96509971D02*
X239049442Y-97295685D01*
X238978014Y-97438542D01*
X238835157Y-97509971D01*
X238620871Y-97509971D01*
X238478014Y-97438542D01*
X238406585Y-97367114D01*
X237692300Y-97509971D02*
X237692300Y-96009971D01*
X237549442Y-96938542D02*
X237120871Y-97509971D01*
X237120871Y-96509971D02*
X237692300Y-97081400D01*
X236478014Y-97509971D02*
X236478014Y-96509971D01*
X236478014Y-96009971D02*
X236549442Y-96081400D01*
X236478014Y-96152828D01*
X236406585Y-96081400D01*
X236478014Y-96009971D01*
X236478014Y-96152828D01*
X234692300Y-96152828D02*
X234620871Y-96081400D01*
X234478014Y-96009971D01*
X234120871Y-96009971D01*
X233978014Y-96081400D01*
X233906585Y-96152828D01*
X233835157Y-96295685D01*
X233835157Y-96438542D01*
X233906585Y-96652828D01*
X234763728Y-97509971D01*
X233835157Y-97509971D01*
X232906585Y-96009971D02*
X232763728Y-96009971D01*
X232620871Y-96081400D01*
X232549442Y-96152828D01*
X232478014Y-96295685D01*
X232406585Y-96581400D01*
X232406585Y-96938542D01*
X232478014Y-97224257D01*
X232549442Y-97367114D01*
X232620871Y-97438542D01*
X232763728Y-97509971D01*
X232906585Y-97509971D01*
X233049442Y-97438542D01*
X233120871Y-97367114D01*
X233192300Y-97224257D01*
X233263728Y-96938542D01*
X233263728Y-96581400D01*
X233192300Y-96295685D01*
X233120871Y-96152828D01*
X233049442Y-96081400D01*
X232906585Y-96009971D01*
X231835157Y-96152828D02*
X231763728Y-96081400D01*
X231620871Y-96009971D01*
X231263728Y-96009971D01*
X231120871Y-96081400D01*
X231049442Y-96152828D01*
X230978014Y-96295685D01*
X230978014Y-96438542D01*
X231049442Y-96652828D01*
X231906585Y-97509971D01*
X230978014Y-97509971D01*
X229549442Y-97509971D02*
X230406585Y-97509971D01*
X229978014Y-97509971D02*
X229978014Y-96009971D01*
X230120871Y-96224257D01*
X230263728Y-96367114D01*
X230406585Y-96438542D01*
X227335157Y-96795685D02*
X227335157Y-97081400D01*
X227263728Y-97081400D02*
X227263728Y-96795685D01*
X227192300Y-96724257D02*
X227192300Y-97152828D01*
X227120871Y-97081400D02*
X227120871Y-96795685D01*
X227049442Y-96795685D02*
X227049442Y-97081400D01*
X227335157Y-97009971D02*
X227192300Y-97152828D01*
X227049442Y-97009971D01*
X227335157Y-96867114D02*
X227192300Y-96724257D01*
X227049442Y-96867114D01*
X227335157Y-96795685D02*
X227192300Y-96724257D01*
X227049442Y-96795685D01*
X226978014Y-96938542D01*
X227049442Y-97081400D01*
X227192300Y-97152828D01*
X227335157Y-97081400D01*
X227406585Y-96938542D01*
X227335157Y-96795685D01*
X224835157Y-96009971D02*
X224835157Y-96295685D01*
X224263728Y-96009971D02*
X224263728Y-96295685D01*
X223406585Y-97509971D02*
X223549442Y-97438542D01*
X223620871Y-97367114D01*
X223692300Y-97224257D01*
X223692300Y-96795685D01*
X223620871Y-96652828D01*
X223549442Y-96581400D01*
X223406585Y-96509971D01*
X223192300Y-96509971D01*
X223049442Y-96581400D01*
X222978014Y-96652828D01*
X222906585Y-96795685D01*
X222906585Y-97224257D01*
X222978014Y-97367114D01*
X223049442Y-97438542D01*
X223192300Y-97509971D01*
X223406585Y-97509971D01*
X222263728Y-97509971D02*
X222263728Y-96509971D01*
X222263728Y-96795685D02*
X222192300Y-96652828D01*
X222120871Y-96581400D01*
X221978014Y-96509971D01*
X221835157Y-96509971D01*
X221549442Y-96509971D02*
X220978014Y-96509971D01*
X221335157Y-96009971D02*
X221335157Y-97295685D01*
X221263728Y-97438542D01*
X221120871Y-97509971D01*
X220978014Y-97509971D01*
X220478014Y-97509971D02*
X220478014Y-96009971D01*
X219835157Y-97509971D02*
X219835157Y-96724257D01*
X219906585Y-96581400D01*
X220049442Y-96509971D01*
X220263728Y-96509971D01*
X220406585Y-96581400D01*
X220478014Y-96652828D01*
X218906585Y-97509971D02*
X219049442Y-97438542D01*
X219120871Y-97367114D01*
X219192300Y-97224257D01*
X219192300Y-96795685D01*
X219120871Y-96652828D01*
X219049442Y-96581400D01*
X218906585Y-96509971D01*
X218692300Y-96509971D01*
X218549442Y-96581400D01*
X218478014Y-96652828D01*
X218406585Y-96795685D01*
X218406585Y-97224257D01*
X218478014Y-97367114D01*
X218549442Y-97438542D01*
X218692300Y-97509971D01*
X218906585Y-97509971D01*
X216406585Y-97509971D02*
X216549442Y-97438542D01*
X216620871Y-97367114D01*
X216692300Y-97224257D01*
X216692300Y-96795685D01*
X216620871Y-96652828D01*
X216549442Y-96581400D01*
X216406585Y-96509971D01*
X216192300Y-96509971D01*
X216049442Y-96581400D01*
X215978014Y-96652828D01*
X215906585Y-96795685D01*
X215906585Y-97224257D01*
X215978014Y-97367114D01*
X216049442Y-97438542D01*
X216192300Y-97509971D01*
X216406585Y-97509971D01*
X215263728Y-97509971D02*
X215263728Y-96509971D01*
X215263728Y-96795685D02*
X215192300Y-96652828D01*
X215120871Y-96581400D01*
X214978014Y-96509971D01*
X214835157Y-96509971D01*
X212549442Y-97509971D02*
X212549442Y-96009971D01*
X212549442Y-97438542D02*
X212692300Y-97509971D01*
X212978014Y-97509971D01*
X213120871Y-97438542D01*
X213192300Y-97367114D01*
X213263728Y-97224257D01*
X213263728Y-96795685D01*
X213192300Y-96652828D01*
X213120871Y-96581400D01*
X212978014Y-96509971D01*
X212692300Y-96509971D01*
X212549442Y-96581400D01*
X211835157Y-97509971D02*
X211835157Y-96509971D01*
X211835157Y-96009971D02*
X211906585Y-96081400D01*
X211835157Y-96152828D01*
X211763728Y-96081400D01*
X211835157Y-96009971D01*
X211835157Y-96152828D01*
X210549442Y-97438542D02*
X210692300Y-97509971D01*
X210978014Y-97509971D01*
X211120871Y-97438542D01*
X211192300Y-97295685D01*
X211192300Y-96724257D01*
X211120871Y-96581400D01*
X210978014Y-96509971D01*
X210692300Y-96509971D01*
X210549442Y-96581400D01*
X210478014Y-96724257D01*
X210478014Y-96867114D01*
X211192300Y-97009971D01*
X209835157Y-97367114D02*
X209763728Y-97438542D01*
X209835157Y-97509971D01*
X209906585Y-97438542D01*
X209835157Y-97367114D01*
X209835157Y-97509971D01*
X209120871Y-97367114D02*
X209049442Y-97438542D01*
X209120871Y-97509971D01*
X209192300Y-97438542D01*
X209120871Y-97367114D01*
X209120871Y-97509971D01*
X208406585Y-97367114D02*
X208335157Y-97438542D01*
X208406585Y-97509971D01*
X208478014Y-97438542D01*
X208406585Y-97367114D01*
X208406585Y-97509971D01*
X205978014Y-97438542D02*
X206120871Y-97509971D01*
X206406585Y-97509971D01*
X206549442Y-97438542D01*
X206620871Y-97295685D01*
X206620871Y-96724257D01*
X206549442Y-96581400D01*
X206406585Y-96509971D01*
X206120871Y-96509971D01*
X205978014Y-96581400D01*
X205906585Y-96724257D01*
X205906585Y-96867114D01*
X206620871Y-97009971D01*
X205406585Y-97509971D02*
X204620871Y-96509971D01*
X205406585Y-96509971D02*
X204620871Y-97509971D01*
X203406585Y-97438542D02*
X203549442Y-97509971D01*
X203835157Y-97509971D01*
X203978014Y-97438542D01*
X204049442Y-97367114D01*
X204120871Y-97224257D01*
X204120871Y-96795685D01*
X204049442Y-96652828D01*
X203978014Y-96581400D01*
X203835157Y-96509971D01*
X203549442Y-96509971D01*
X203406585Y-96581400D01*
X202192300Y-97438542D02*
X202335157Y-97509971D01*
X202620871Y-97509971D01*
X202763728Y-97438542D01*
X202835157Y-97295685D01*
X202835157Y-96724257D01*
X202763728Y-96581400D01*
X202620871Y-96509971D01*
X202335157Y-96509971D01*
X202192300Y-96581400D01*
X202120871Y-96724257D01*
X202120871Y-96867114D01*
X202835157Y-97009971D01*
X201478014Y-96509971D02*
X201478014Y-98009971D01*
X201478014Y-96581400D02*
X201335157Y-96509971D01*
X201049442Y-96509971D01*
X200906585Y-96581400D01*
X200835157Y-96652828D01*
X200763728Y-96795685D01*
X200763728Y-97224257D01*
X200835157Y-97367114D01*
X200906585Y-97438542D01*
X201049442Y-97509971D01*
X201335157Y-97509971D01*
X201478014Y-97438542D01*
X200335157Y-96509971D02*
X199763728Y-96509971D01*
X200120871Y-96009971D02*
X200120871Y-97295685D01*
X200049442Y-97438542D01*
X199906585Y-97509971D01*
X199763728Y-97509971D01*
X198120871Y-96509971D02*
X198120871Y-97509971D01*
X198120871Y-96652828D02*
X198049442Y-96581400D01*
X197906585Y-96509971D01*
X197692300Y-96509971D01*
X197549442Y-96581400D01*
X197478014Y-96724257D01*
X197478014Y-97509971D01*
X196549442Y-97509971D02*
X196692300Y-97438542D01*
X196763728Y-97367114D01*
X196835157Y-97224257D01*
X196835157Y-96795685D01*
X196763728Y-96652828D01*
X196692300Y-96581400D01*
X196549442Y-96509971D01*
X196335157Y-96509971D01*
X196192300Y-96581400D01*
X196120871Y-96652828D01*
X196049442Y-96795685D01*
X196049442Y-97224257D01*
X196120871Y-97367114D01*
X196192300Y-97438542D01*
X196335157Y-97509971D01*
X196549442Y-97509971D01*
X195549442Y-96509971D02*
X195263728Y-97509971D01*
X194978014Y-96795685D01*
X194692300Y-97509971D01*
X194406585Y-96509971D01*
X193906585Y-96009971D02*
X193906585Y-96295685D01*
X193335157Y-96009971D02*
X193335157Y-96295685D01*
D11*
G36*
X126029149Y-41812243D02*
G01*
X125451274Y-41975806D01*
X124942430Y-42291209D01*
X124506362Y-42755493D01*
X124146816Y-43365703D01*
X123907359Y-43986702D01*
X123828663Y-44258493D01*
X123773755Y-44515079D01*
X123738548Y-44796650D01*
X123718953Y-45143395D01*
X123710880Y-45595502D01*
X123709867Y-45927867D01*
X123712725Y-46453969D01*
X123723958Y-46849019D01*
X123747553Y-47151244D01*
X123787498Y-47398868D01*
X123847782Y-47630116D01*
X123905996Y-47807871D01*
X124109993Y-48259110D01*
X124365015Y-48604408D01*
X124650745Y-48822141D01*
X124923856Y-48891200D01*
X125127241Y-48853702D01*
X125406880Y-48756918D01*
X125619410Y-48661731D01*
X125942793Y-48458225D01*
X126329158Y-48148947D01*
X126744481Y-47766919D01*
X127154740Y-47345163D01*
X127525912Y-46916702D01*
X127809962Y-46535573D01*
X128255980Y-45801422D01*
X128557023Y-45137267D01*
X128715904Y-44530446D01*
X128735435Y-43968294D01*
X128618427Y-43438149D01*
X128540469Y-43246209D01*
X128199312Y-42665330D01*
X127773974Y-42230850D01*
X127265290Y-41943412D01*
X126674096Y-41803664D01*
X126672307Y-41803478D01*
X126029149Y-41812243D01*
G37*
X126029149Y-41812243D02*
X125451274Y-41975806D01*
X124942430Y-42291209D01*
X124506362Y-42755493D01*
X124146816Y-43365703D01*
X123907359Y-43986702D01*
X123828663Y-44258493D01*
X123773755Y-44515079D01*
X123738548Y-44796650D01*
X123718953Y-45143395D01*
X123710880Y-45595502D01*
X123709867Y-45927867D01*
X123712725Y-46453969D01*
X123723958Y-46849019D01*
X123747553Y-47151244D01*
X123787498Y-47398868D01*
X123847782Y-47630116D01*
X123905996Y-47807871D01*
X124109993Y-48259110D01*
X124365015Y-48604408D01*
X124650745Y-48822141D01*
X124923856Y-48891200D01*
X125127241Y-48853702D01*
X125406880Y-48756918D01*
X125619410Y-48661731D01*
X125942793Y-48458225D01*
X126329158Y-48148947D01*
X126744481Y-47766919D01*
X127154740Y-47345163D01*
X127525912Y-46916702D01*
X127809962Y-46535573D01*
X128255980Y-45801422D01*
X128557023Y-45137267D01*
X128715904Y-44530446D01*
X128735435Y-43968294D01*
X128618427Y-43438149D01*
X128540469Y-43246209D01*
X128199312Y-42665330D01*
X127773974Y-42230850D01*
X127265290Y-41943412D01*
X126674096Y-41803664D01*
X126672307Y-41803478D01*
X126029149Y-41812243D01*
G36*
X113325074Y-56346417D02*
G01*
X112802035Y-56633391D01*
X112637711Y-56766007D01*
X112193459Y-57238569D01*
X111912541Y-57737791D01*
X111789288Y-58279768D01*
X111818032Y-58880592D01*
X111843726Y-59020020D01*
X112008740Y-59577562D01*
X112263975Y-60037092D01*
X112628862Y-60418787D01*
X113122830Y-60742827D01*
X113765310Y-61029387D01*
X113786356Y-61037342D01*
X114375063Y-61218737D01*
X115046409Y-61359562D01*
X115753652Y-61455295D01*
X116450049Y-61501413D01*
X117088858Y-61493393D01*
X117623338Y-61426712D01*
X117680118Y-61414113D01*
X118136799Y-61253314D01*
X118481148Y-61020924D01*
X118693872Y-60734214D01*
X118756867Y-60450289D01*
X118696603Y-60106100D01*
X118527865Y-59679777D01*
X118268735Y-59201691D01*
X117937294Y-58702214D01*
X117551625Y-58211716D01*
X117192101Y-57821965D01*
X116503538Y-57205299D01*
X115821211Y-56734289D01*
X115153661Y-56410916D01*
X114509427Y-56237159D01*
X113897051Y-56214999D01*
X113325074Y-56346417D01*
G37*
X113325074Y-56346417D02*
X112802035Y-56633391D01*
X112637711Y-56766007D01*
X112193459Y-57238569D01*
X111912541Y-57737791D01*
X111789288Y-58279768D01*
X111818032Y-58880592D01*
X111843726Y-59020020D01*
X112008740Y-59577562D01*
X112263975Y-60037092D01*
X112628862Y-60418787D01*
X113122830Y-60742827D01*
X113765310Y-61029387D01*
X113786356Y-61037342D01*
X114375063Y-61218737D01*
X115046409Y-61359562D01*
X115753652Y-61455295D01*
X116450049Y-61501413D01*
X117088858Y-61493393D01*
X117623338Y-61426712D01*
X117680118Y-61414113D01*
X118136799Y-61253314D01*
X118481148Y-61020924D01*
X118693872Y-60734214D01*
X118756867Y-60450289D01*
X118696603Y-60106100D01*
X118527865Y-59679777D01*
X118268735Y-59201691D01*
X117937294Y-58702214D01*
X117551625Y-58211716D01*
X117192101Y-57821965D01*
X116503538Y-57205299D01*
X115821211Y-56734289D01*
X115153661Y-56410916D01*
X114509427Y-56237159D01*
X113897051Y-56214999D01*
X113325074Y-56346417D01*
G36*
X172731867Y-38319618D02*
G01*
X170361200Y-38322135D01*
X170726404Y-38489880D01*
X171406892Y-38724762D01*
X172168923Y-38855313D01*
X172956707Y-38876265D01*
X173714455Y-38782352D01*
X173747867Y-38775140D01*
X174115355Y-38679710D01*
X174495194Y-38559079D01*
X174679200Y-38490155D01*
X175102533Y-38317100D01*
X172731867Y-38319618D01*
G37*
X172731867Y-38319618D02*
X170361200Y-38322135D01*
X170726404Y-38489880D01*
X171406892Y-38724762D01*
X172168923Y-38855313D01*
X172956707Y-38876265D01*
X173714455Y-38782352D01*
X173747867Y-38775140D01*
X174115355Y-38679710D01*
X174495194Y-38559079D01*
X174679200Y-38490155D01*
X175102533Y-38317100D01*
X172731867Y-38319618D01*
G36*
X138905259Y-43113881D02*
G01*
X138275554Y-43341105D01*
X138243905Y-43356364D01*
X137720694Y-43682209D01*
X137174880Y-44151219D01*
X136623380Y-44741904D01*
X136083109Y-45432771D01*
X135570985Y-46202330D01*
X135103925Y-47029088D01*
X134728029Y-47823013D01*
X134605403Y-48130791D01*
X134482072Y-48477667D01*
X134368682Y-48828053D01*
X134275876Y-49146358D01*
X134214300Y-49396994D01*
X134194598Y-49544370D01*
X134205948Y-49568533D01*
X134253769Y-49499434D01*
X134353830Y-49319344D01*
X134468759Y-49097975D01*
X134841880Y-48544713D01*
X135346819Y-48093271D01*
X135976431Y-47748708D01*
X136693814Y-47522661D01*
X136946463Y-47479957D01*
X137232723Y-47463823D01*
X137593529Y-47474344D01*
X138069816Y-47511608D01*
X138219493Y-47525871D01*
X138665299Y-47567988D01*
X138988086Y-47590168D01*
X139233317Y-47589447D01*
X139446451Y-47562860D01*
X139672952Y-47507444D01*
X139958281Y-47420234D01*
X139989172Y-47410480D01*
X140529043Y-47204028D01*
X140930158Y-46957238D01*
X141222648Y-46642051D01*
X141436644Y-46230412D01*
X141522764Y-45982448D01*
X141646197Y-45518791D01*
X141693470Y-45144119D01*
X141679105Y-44947549D01*
X140679201Y-44947549D01*
X140661553Y-45338612D01*
X140529176Y-45705333D01*
X140281588Y-46010054D01*
X140075992Y-46148259D01*
X139793607Y-46281454D01*
X139536198Y-46363839D01*
X139249863Y-46404943D01*
X138880702Y-46414295D01*
X138602325Y-46408780D01*
X138161815Y-46384734D01*
X137855021Y-46338225D01*
X137647127Y-46263272D01*
X137602941Y-46237058D01*
X137381951Y-46034856D01*
X137305809Y-45803197D01*
X137376347Y-45528941D01*
X137595395Y-45198949D01*
X137776313Y-44992700D01*
X138298354Y-44517164D01*
X138851317Y-44163994D01*
X139349509Y-43968734D01*
X139619649Y-43910369D01*
X139816161Y-43917023D01*
X140023513Y-43993065D01*
X140048589Y-44004888D01*
X140372238Y-44243029D01*
X140582602Y-44569802D01*
X140679201Y-44947549D01*
X141679105Y-44947549D01*
X141668178Y-44798042D01*
X141608706Y-44538599D01*
X141381473Y-44002750D01*
X141039465Y-43577322D01*
X140601762Y-43269017D01*
X140087442Y-43084540D01*
X139515581Y-43030594D01*
X138905259Y-43113881D01*
G37*
X138905259Y-43113881D02*
X138275554Y-43341105D01*
X138243905Y-43356364D01*
X137720694Y-43682209D01*
X137174880Y-44151219D01*
X136623380Y-44741904D01*
X136083109Y-45432771D01*
X135570985Y-46202330D01*
X135103925Y-47029088D01*
X134728029Y-47823013D01*
X134605403Y-48130791D01*
X134482072Y-48477667D01*
X134368682Y-48828053D01*
X134275876Y-49146358D01*
X134214300Y-49396994D01*
X134194598Y-49544370D01*
X134205948Y-49568533D01*
X134253769Y-49499434D01*
X134353830Y-49319344D01*
X134468759Y-49097975D01*
X134841880Y-48544713D01*
X135346819Y-48093271D01*
X135976431Y-47748708D01*
X136693814Y-47522661D01*
X136946463Y-47479957D01*
X137232723Y-47463823D01*
X137593529Y-47474344D01*
X138069816Y-47511608D01*
X138219493Y-47525871D01*
X138665299Y-47567988D01*
X138988086Y-47590168D01*
X139233317Y-47589447D01*
X139446451Y-47562860D01*
X139672952Y-47507444D01*
X139958281Y-47420234D01*
X139989172Y-47410480D01*
X140529043Y-47204028D01*
X140930158Y-46957238D01*
X141222648Y-46642051D01*
X141436644Y-46230412D01*
X141522764Y-45982448D01*
X141646197Y-45518791D01*
X141693470Y-45144119D01*
X141679105Y-44947549D01*
X140679201Y-44947549D01*
X140661553Y-45338612D01*
X140529176Y-45705333D01*
X140281588Y-46010054D01*
X140075992Y-46148259D01*
X139793607Y-46281454D01*
X139536198Y-46363839D01*
X139249863Y-46404943D01*
X138880702Y-46414295D01*
X138602325Y-46408780D01*
X138161815Y-46384734D01*
X137855021Y-46338225D01*
X137647127Y-46263272D01*
X137602941Y-46237058D01*
X137381951Y-46034856D01*
X137305809Y-45803197D01*
X137376347Y-45528941D01*
X137595395Y-45198949D01*
X137776313Y-44992700D01*
X138298354Y-44517164D01*
X138851317Y-44163994D01*
X139349509Y-43968734D01*
X139619649Y-43910369D01*
X139816161Y-43917023D01*
X140023513Y-43993065D01*
X140048589Y-44004888D01*
X140372238Y-44243029D01*
X140582602Y-44569802D01*
X140679201Y-44947549D01*
X141679105Y-44947549D01*
X141668178Y-44798042D01*
X141608706Y-44538599D01*
X141381473Y-44002750D01*
X141039465Y-43577322D01*
X140601762Y-43269017D01*
X140087442Y-43084540D01*
X139515581Y-43030594D01*
X138905259Y-43113881D01*
G36*
X111053890Y-49456448D02*
G01*
X110804778Y-49612836D01*
X110622140Y-49862962D01*
X110544692Y-50169207D01*
X110544200Y-50195685D01*
X110614553Y-50513904D01*
X110799457Y-50782780D01*
X111059680Y-50972453D01*
X111355990Y-51053064D01*
X111614641Y-51010403D01*
X111865121Y-50822376D01*
X112026455Y-50530392D01*
X112068200Y-50270697D01*
X111992381Y-49973857D01*
X111795098Y-49698932D01*
X111521615Y-49497435D01*
X111330759Y-49431418D01*
X111053890Y-49456448D01*
G37*
X111053890Y-49456448D02*
X110804778Y-49612836D01*
X110622140Y-49862962D01*
X110544692Y-50169207D01*
X110544200Y-50195685D01*
X110614553Y-50513904D01*
X110799457Y-50782780D01*
X111059680Y-50972453D01*
X111355990Y-51053064D01*
X111614641Y-51010403D01*
X111865121Y-50822376D01*
X112026455Y-50530392D01*
X112068200Y-50270697D01*
X111992381Y-49973857D01*
X111795098Y-49698932D01*
X111521615Y-49497435D01*
X111330759Y-49431418D01*
X111053890Y-49456448D01*
G36*
X114681828Y-48800246D02*
G01*
X114350917Y-48965388D01*
X114084737Y-49241748D01*
X113913820Y-49617302D01*
X113874083Y-49834028D01*
X113905623Y-50249840D01*
X114069896Y-50615342D01*
X114337145Y-50907388D01*
X114677611Y-51102834D01*
X115061535Y-51178534D01*
X115459160Y-51111343D01*
X115497200Y-51096425D01*
X115822198Y-50879403D01*
X116038313Y-50565016D01*
X116140851Y-50189385D01*
X116125119Y-49788629D01*
X115986423Y-49398870D01*
X115757617Y-49092350D01*
X115415710Y-48851704D01*
X115046936Y-48758344D01*
X114681828Y-48800246D01*
G37*
X114681828Y-48800246D02*
X114350917Y-48965388D01*
X114084737Y-49241748D01*
X113913820Y-49617302D01*
X113874083Y-49834028D01*
X113905623Y-50249840D01*
X114069896Y-50615342D01*
X114337145Y-50907388D01*
X114677611Y-51102834D01*
X115061535Y-51178534D01*
X115459160Y-51111343D01*
X115497200Y-51096425D01*
X115822198Y-50879403D01*
X116038313Y-50565016D01*
X116140851Y-50189385D01*
X116125119Y-49788629D01*
X115986423Y-49398870D01*
X115757617Y-49092350D01*
X115415710Y-48851704D01*
X115046936Y-48758344D01*
X114681828Y-48800246D01*
G36*
X137472369Y-50438716D02*
G01*
X137181734Y-50532621D01*
X136844964Y-50759667D01*
X136611918Y-51095170D01*
X136510721Y-51496063D01*
X136508645Y-51563245D01*
X136582537Y-51968395D01*
X136782627Y-52301339D01*
X137076530Y-52543519D01*
X137431863Y-52676379D01*
X137816243Y-52681362D01*
X138197286Y-52539910D01*
X138204923Y-52535294D01*
X138505590Y-52265018D01*
X138682323Y-51922377D01*
X138736720Y-51545341D01*
X138670382Y-51171879D01*
X138484907Y-50839961D01*
X138181896Y-50587556D01*
X138121567Y-50556590D01*
X137780789Y-50436287D01*
X137472369Y-50438716D01*
G37*
X137472369Y-50438716D02*
X137181734Y-50532621D01*
X136844964Y-50759667D01*
X136611918Y-51095170D01*
X136510721Y-51496063D01*
X136508645Y-51563245D01*
X136582537Y-51968395D01*
X136782627Y-52301339D01*
X137076530Y-52543519D01*
X137431863Y-52676379D01*
X137816243Y-52681362D01*
X138197286Y-52539910D01*
X138204923Y-52535294D01*
X138505590Y-52265018D01*
X138682323Y-51922377D01*
X138736720Y-51545341D01*
X138670382Y-51171879D01*
X138484907Y-50839961D01*
X138181896Y-50587556D01*
X138121567Y-50556590D01*
X137780789Y-50436287D01*
X137472369Y-50438716D01*
G36*
X140878445Y-51453636D02*
G01*
X140671417Y-51639622D01*
X140539497Y-51883251D01*
X140505407Y-52157222D01*
X140591870Y-52434236D01*
X140776696Y-52651340D01*
X141068574Y-52829026D01*
X141356686Y-52847778D01*
X141626345Y-52743564D01*
X141871016Y-52525944D01*
X141991647Y-52237008D01*
X141984474Y-51924629D01*
X141845736Y-51636684D01*
X141722934Y-51514527D01*
X141426926Y-51363788D01*
X141137855Y-51352591D01*
X140878445Y-51453636D01*
G37*
X140878445Y-51453636D02*
X140671417Y-51639622D01*
X140539497Y-51883251D01*
X140505407Y-52157222D01*
X140591870Y-52434236D01*
X140776696Y-52651340D01*
X141068574Y-52829026D01*
X141356686Y-52847778D01*
X141626345Y-52743564D01*
X141871016Y-52525944D01*
X141991647Y-52237008D01*
X141984474Y-51924629D01*
X141845736Y-51636684D01*
X141722934Y-51514527D01*
X141426926Y-51363788D01*
X141137855Y-51352591D01*
X140878445Y-51453636D01*
G36*
X118310571Y-50801053D02*
G01*
X117950464Y-50958808D01*
X117657695Y-51235769D01*
X117480437Y-51577684D01*
X117421837Y-51984421D01*
X117502328Y-52360067D01*
X117695450Y-52682799D01*
X117974741Y-52930796D01*
X118313741Y-53082235D01*
X118685989Y-53115294D01*
X119065025Y-53008152D01*
X119154923Y-52958628D01*
X119452457Y-52688002D01*
X119628638Y-52339239D01*
X119684706Y-51951013D01*
X119621902Y-51561994D01*
X119441467Y-51210856D01*
X119144641Y-50936272D01*
X119088992Y-50903435D01*
X118702064Y-50777572D01*
X118310571Y-50801053D01*
G37*
X118310571Y-50801053D02*
X117950464Y-50958808D01*
X117657695Y-51235769D01*
X117480437Y-51577684D01*
X117421837Y-51984421D01*
X117502328Y-52360067D01*
X117695450Y-52682799D01*
X117974741Y-52930796D01*
X118313741Y-53082235D01*
X118685989Y-53115294D01*
X119065025Y-53008152D01*
X119154923Y-52958628D01*
X119452457Y-52688002D01*
X119628638Y-52339239D01*
X119684706Y-51951013D01*
X119621902Y-51561994D01*
X119441467Y-51210856D01*
X119144641Y-50936272D01*
X119088992Y-50903435D01*
X118702064Y-50777572D01*
X118310571Y-50801053D01*
G36*
X133484564Y-52177584D02*
G01*
X133184839Y-52423640D01*
X133050909Y-52621754D01*
X132920612Y-53024840D01*
X132940132Y-53429251D01*
X133098317Y-53796401D01*
X133384015Y-54087701D01*
X133494088Y-54155158D01*
X133869408Y-54289342D01*
X134239900Y-54269498D01*
X134469714Y-54189520D01*
X134793378Y-53969809D01*
X135027013Y-53655863D01*
X135150209Y-53292779D01*
X135142558Y-52925656D01*
X135101069Y-52794402D01*
X134875566Y-52434317D01*
X134567109Y-52189725D01*
X134209753Y-52063494D01*
X133837553Y-52058491D01*
X133484564Y-52177584D01*
G37*
X133484564Y-52177584D02*
X133184839Y-52423640D01*
X133050909Y-52621754D01*
X132920612Y-53024840D01*
X132940132Y-53429251D01*
X133098317Y-53796401D01*
X133384015Y-54087701D01*
X133494088Y-54155158D01*
X133869408Y-54289342D01*
X134239900Y-54269498D01*
X134469714Y-54189520D01*
X134793378Y-53969809D01*
X135027013Y-53655863D01*
X135150209Y-53292779D01*
X135142558Y-52925656D01*
X135101069Y-52794402D01*
X134875566Y-52434317D01*
X134567109Y-52189725D01*
X134209753Y-52063494D01*
X133837553Y-52058491D01*
X133484564Y-52177584D01*
G36*
X130949009Y-54754284D02*
G01*
X130597935Y-54974871D01*
X130378484Y-55232554D01*
X130220831Y-55595917D01*
X130208183Y-55956616D01*
X130317401Y-56291943D01*
X130525347Y-56579191D01*
X130808882Y-56795652D01*
X131144868Y-56918619D01*
X131510166Y-56925384D01*
X131881639Y-56793241D01*
X131935550Y-56760620D01*
X132239399Y-56477049D01*
X132413564Y-56123114D01*
X132454289Y-55737796D01*
X132357816Y-55360076D01*
X132120389Y-55028933D01*
X132103919Y-55013535D01*
X131730479Y-54770001D01*
X131336016Y-54684788D01*
X130949009Y-54754284D01*
G37*
X130949009Y-54754284D02*
X130597935Y-54974871D01*
X130378484Y-55232554D01*
X130220831Y-55595917D01*
X130208183Y-55956616D01*
X130317401Y-56291943D01*
X130525347Y-56579191D01*
X130808882Y-56795652D01*
X131144868Y-56918619D01*
X131510166Y-56925384D01*
X131881639Y-56793241D01*
X131935550Y-56760620D01*
X132239399Y-56477049D01*
X132413564Y-56123114D01*
X132454289Y-55737796D01*
X132357816Y-55360076D01*
X132120389Y-55028933D01*
X132103919Y-55013535D01*
X131730479Y-54770001D01*
X131336016Y-54684788D01*
X130949009Y-54754284D01*
G36*
X129474669Y-58287542D02*
G01*
X129119841Y-58491126D01*
X128855055Y-58788554D01*
X128697856Y-59150951D01*
X128685775Y-59511805D01*
X128796043Y-59847469D01*
X129005893Y-60134295D01*
X129292558Y-60348634D01*
X129633271Y-60466839D01*
X130005265Y-60465263D01*
X130349658Y-60340965D01*
X130675929Y-60075166D01*
X130871802Y-59732230D01*
X130932299Y-59348793D01*
X130852437Y-58961493D01*
X130627237Y-58606966D01*
X130590590Y-58568745D01*
X130240269Y-58322523D01*
X129858220Y-58230064D01*
X129474669Y-58287542D01*
G37*
X129474669Y-58287542D02*
X129119841Y-58491126D01*
X128855055Y-58788554D01*
X128697856Y-59150951D01*
X128685775Y-59511805D01*
X128796043Y-59847469D01*
X129005893Y-60134295D01*
X129292558Y-60348634D01*
X129633271Y-60466839D01*
X130005265Y-60465263D01*
X130349658Y-60340965D01*
X130675929Y-60075166D01*
X130871802Y-59732230D01*
X130932299Y-59348793D01*
X130852437Y-58961493D01*
X130627237Y-58606966D01*
X130590590Y-58568745D01*
X130240269Y-58322523D01*
X129858220Y-58230064D01*
X129474669Y-58287542D01*
G36*
X126461533Y-38332559D02*
G01*
X125638952Y-38426058D01*
X124892827Y-38625156D01*
X124194343Y-38943588D01*
X123514684Y-39395086D01*
X122825034Y-39993386D01*
X122680714Y-40134513D01*
X122331307Y-40491247D01*
X122072426Y-40785050D01*
X121867990Y-41065441D01*
X121681921Y-41381939D01*
X121478139Y-41784063D01*
X121476692Y-41787037D01*
X121053691Y-42837499D01*
X120761753Y-43982716D01*
X120600848Y-45224748D01*
X120570948Y-46565653D01*
X120672023Y-48007489D01*
X120904043Y-49552315D01*
X121266979Y-51202189D01*
X121338352Y-51480480D01*
X121905975Y-53435646D01*
X122559350Y-55291469D01*
X123292677Y-57034682D01*
X124100152Y-58652014D01*
X124975972Y-60130198D01*
X125389501Y-60744533D01*
X125706134Y-61192860D01*
X126006909Y-61612617D01*
X126272077Y-61976710D01*
X126481891Y-62258043D01*
X126616602Y-62429523D01*
X126623700Y-62437867D01*
X126878542Y-62734200D01*
X126577093Y-62014533D01*
X126208550Y-60986814D01*
X125942077Y-59923296D01*
X125784349Y-58864311D01*
X125742042Y-57850195D01*
X125782156Y-57210835D01*
X125877007Y-56513903D01*
X126001748Y-55920672D01*
X126174412Y-55365924D01*
X126413035Y-54784441D01*
X126513128Y-54567509D01*
X126713480Y-54166677D01*
X126930504Y-53787430D01*
X127180092Y-53409450D01*
X127478134Y-53012422D01*
X127840523Y-52576027D01*
X128283150Y-52079949D01*
X128821906Y-51503870D01*
X129295453Y-51010362D01*
X130041087Y-50220687D01*
X130664970Y-49515347D01*
X131179280Y-48875059D01*
X131596198Y-48280544D01*
X131927903Y-47712521D01*
X132186576Y-47151709D01*
X132384396Y-46578826D01*
X132533544Y-45974593D01*
X132559576Y-45843200D01*
X132614363Y-45419442D01*
X132642582Y-44900888D01*
X132644023Y-44571654D01*
X130627007Y-44571654D01*
X130595206Y-45103165D01*
X130488604Y-45599698D01*
X130295090Y-46082005D01*
X130002551Y-46570839D01*
X129598875Y-47086949D01*
X129071948Y-47651090D01*
X128519212Y-48182847D01*
X127730295Y-48924421D01*
X127027525Y-49603588D01*
X126418701Y-50212263D01*
X125911627Y-50742361D01*
X125514102Y-51185796D01*
X125233928Y-51534485D01*
X125117265Y-51708488D01*
X124697078Y-52582543D01*
X124425940Y-53508756D01*
X124306517Y-54461978D01*
X124341475Y-55417055D01*
X124533481Y-56348837D01*
X124602557Y-56564260D01*
X124709843Y-56886661D01*
X124756850Y-57066834D01*
X124737326Y-57104351D01*
X124645017Y-56998785D01*
X124473670Y-56749711D01*
X124340189Y-56546353D01*
X124004344Y-55952659D01*
X123670721Y-55215301D01*
X123346837Y-54359865D01*
X123040210Y-53411938D01*
X122758358Y-52397105D01*
X122508799Y-51340953D01*
X122299051Y-50269069D01*
X122136631Y-49207037D01*
X122102484Y-48930571D01*
X121995121Y-47602184D01*
X121990831Y-46351530D01*
X122087989Y-45191337D01*
X122284973Y-44134335D01*
X122580159Y-43193252D01*
X122928093Y-42456533D01*
X123209828Y-42044333D01*
X123584583Y-41612912D01*
X124004800Y-41209632D01*
X124422924Y-40881859D01*
X124647539Y-40744048D01*
X125405909Y-40429627D01*
X126181670Y-40280332D01*
X126959119Y-40295396D01*
X127722555Y-40474054D01*
X128456276Y-40815540D01*
X128652991Y-40939387D01*
X129282713Y-41456425D01*
X129809941Y-42085876D01*
X130219069Y-42799022D01*
X130494489Y-43567145D01*
X130620594Y-44361526D01*
X130627007Y-44571654D01*
X132644023Y-44571654D01*
X132645030Y-44341719D01*
X132622502Y-43796118D01*
X132575793Y-43318267D01*
X132517938Y-43006867D01*
X132300552Y-42360979D01*
X131984506Y-41683584D01*
X131603651Y-41037568D01*
X131191840Y-40485820D01*
X131113079Y-40397041D01*
X130349763Y-39672390D01*
X129529947Y-39099029D01*
X128662427Y-38680862D01*
X127755999Y-38421792D01*
X126819460Y-38325724D01*
X126461533Y-38332559D01*
G37*
X126461533Y-38332559D02*
X125638952Y-38426058D01*
X124892827Y-38625156D01*
X124194343Y-38943588D01*
X123514684Y-39395086D01*
X122825034Y-39993386D01*
X122680714Y-40134513D01*
X122331307Y-40491247D01*
X122072426Y-40785050D01*
X121867990Y-41065441D01*
X121681921Y-41381939D01*
X121478139Y-41784063D01*
X121476692Y-41787037D01*
X121053691Y-42837499D01*
X120761753Y-43982716D01*
X120600848Y-45224748D01*
X120570948Y-46565653D01*
X120672023Y-48007489D01*
X120904043Y-49552315D01*
X121266979Y-51202189D01*
X121338352Y-51480480D01*
X121905975Y-53435646D01*
X122559350Y-55291469D01*
X123292677Y-57034682D01*
X124100152Y-58652014D01*
X124975972Y-60130198D01*
X125389501Y-60744533D01*
X125706134Y-61192860D01*
X126006909Y-61612617D01*
X126272077Y-61976710D01*
X126481891Y-62258043D01*
X126616602Y-62429523D01*
X126623700Y-62437867D01*
X126878542Y-62734200D01*
X126577093Y-62014533D01*
X126208550Y-60986814D01*
X125942077Y-59923296D01*
X125784349Y-58864311D01*
X125742042Y-57850195D01*
X125782156Y-57210835D01*
X125877007Y-56513903D01*
X126001748Y-55920672D01*
X126174412Y-55365924D01*
X126413035Y-54784441D01*
X126513128Y-54567509D01*
X126713480Y-54166677D01*
X126930504Y-53787430D01*
X127180092Y-53409450D01*
X127478134Y-53012422D01*
X127840523Y-52576027D01*
X128283150Y-52079949D01*
X128821906Y-51503870D01*
X129295453Y-51010362D01*
X130041087Y-50220687D01*
X130664970Y-49515347D01*
X131179280Y-48875059D01*
X131596198Y-48280544D01*
X131927903Y-47712521D01*
X132186576Y-47151709D01*
X132384396Y-46578826D01*
X132533544Y-45974593D01*
X132559576Y-45843200D01*
X132614363Y-45419442D01*
X132642582Y-44900888D01*
X132644023Y-44571654D01*
X130627007Y-44571654D01*
X130595206Y-45103165D01*
X130488604Y-45599698D01*
X130295090Y-46082005D01*
X130002551Y-46570839D01*
X129598875Y-47086949D01*
X129071948Y-47651090D01*
X128519212Y-48182847D01*
X127730295Y-48924421D01*
X127027525Y-49603588D01*
X126418701Y-50212263D01*
X125911627Y-50742361D01*
X125514102Y-51185796D01*
X125233928Y-51534485D01*
X125117265Y-51708488D01*
X124697078Y-52582543D01*
X124425940Y-53508756D01*
X124306517Y-54461978D01*
X124341475Y-55417055D01*
X124533481Y-56348837D01*
X124602557Y-56564260D01*
X124709843Y-56886661D01*
X124756850Y-57066834D01*
X124737326Y-57104351D01*
X124645017Y-56998785D01*
X124473670Y-56749711D01*
X124340189Y-56546353D01*
X124004344Y-55952659D01*
X123670721Y-55215301D01*
X123346837Y-54359865D01*
X123040210Y-53411938D01*
X122758358Y-52397105D01*
X122508799Y-51340953D01*
X122299051Y-50269069D01*
X122136631Y-49207037D01*
X122102484Y-48930571D01*
X121995121Y-47602184D01*
X121990831Y-46351530D01*
X122087989Y-45191337D01*
X122284973Y-44134335D01*
X122580159Y-43193252D01*
X122928093Y-42456533D01*
X123209828Y-42044333D01*
X123584583Y-41612912D01*
X124004800Y-41209632D01*
X124422924Y-40881859D01*
X124647539Y-40744048D01*
X125405909Y-40429627D01*
X126181670Y-40280332D01*
X126959119Y-40295396D01*
X127722555Y-40474054D01*
X128456276Y-40815540D01*
X128652991Y-40939387D01*
X129282713Y-41456425D01*
X129809941Y-42085876D01*
X130219069Y-42799022D01*
X130494489Y-43567145D01*
X130620594Y-44361526D01*
X130627007Y-44571654D01*
X132644023Y-44571654D01*
X132645030Y-44341719D01*
X132622502Y-43796118D01*
X132575793Y-43318267D01*
X132517938Y-43006867D01*
X132300552Y-42360979D01*
X131984506Y-41683584D01*
X131603651Y-41037568D01*
X131191840Y-40485820D01*
X131113079Y-40397041D01*
X130349763Y-39672390D01*
X129529947Y-39099029D01*
X128662427Y-38680862D01*
X127755999Y-38421792D01*
X126819460Y-38325724D01*
X126461533Y-38332559D01*
G36*
X128344568Y-61948592D02*
G01*
X128137301Y-62133895D01*
X128005422Y-62377279D01*
X127971574Y-62651540D01*
X128058399Y-62929475D01*
X128246030Y-63150007D01*
X128537907Y-63327692D01*
X128826019Y-63346444D01*
X129095678Y-63242230D01*
X129340349Y-63024611D01*
X129460980Y-62735674D01*
X129453807Y-62423296D01*
X129315069Y-62135351D01*
X129192267Y-62013194D01*
X128894694Y-61861038D01*
X128604580Y-61848572D01*
X128344568Y-61948592D01*
G37*
X128344568Y-61948592D02*
X128137301Y-62133895D01*
X128005422Y-62377279D01*
X127971574Y-62651540D01*
X128058399Y-62929475D01*
X128246030Y-63150007D01*
X128537907Y-63327692D01*
X128826019Y-63346444D01*
X129095678Y-63242230D01*
X129340349Y-63024611D01*
X129460980Y-62735674D01*
X129453807Y-62423296D01*
X129315069Y-62135351D01*
X129192267Y-62013194D01*
X128894694Y-61861038D01*
X128604580Y-61848572D01*
X128344568Y-61948592D01*
G36*
X164291051Y-60634440D02*
G01*
X163960866Y-60789058D01*
X163525586Y-61050523D01*
X163470538Y-61085941D01*
X162680765Y-61596681D01*
X161807501Y-61498418D01*
X161262968Y-61447086D01*
X160868909Y-61445813D01*
X160609653Y-61512699D01*
X160469530Y-61665847D01*
X160432869Y-61923357D01*
X160483998Y-62303329D01*
X160607248Y-62823867D01*
X160619401Y-62870765D01*
X160854006Y-63772957D01*
X160494428Y-64565912D01*
X160285377Y-65063607D01*
X160168237Y-65438553D01*
X160139650Y-65707993D01*
X160196262Y-65889170D01*
X160229166Y-65928699D01*
X160381034Y-65999548D01*
X160667426Y-66062757D01*
X161053556Y-66113352D01*
X161504634Y-66146356D01*
X161818789Y-66156055D01*
X162074075Y-66164393D01*
X162259676Y-66196271D01*
X162424540Y-66274696D01*
X162617612Y-66422674D01*
X162877122Y-66653507D01*
X163279838Y-67013546D01*
X163581919Y-67267176D01*
X163805032Y-67425104D01*
X163970844Y-67498037D01*
X164101023Y-67496680D01*
X164217237Y-67431740D01*
X164299649Y-67356418D01*
X164396479Y-67211628D01*
X164529783Y-66948880D01*
X164679547Y-66609849D01*
X164784029Y-66347949D01*
X165106961Y-65500929D01*
X165903747Y-65050044D01*
X166339886Y-64791060D01*
X166637776Y-64580852D01*
X166814965Y-64401848D01*
X166888999Y-64236479D01*
X166879089Y-64073390D01*
X166796514Y-63949423D01*
X166608658Y-63751282D01*
X166344686Y-63507739D01*
X166077643Y-63282795D01*
X165779494Y-63038961D01*
X165536997Y-62835262D01*
X165376396Y-62694112D01*
X165323533Y-62638729D01*
X165302277Y-62474806D01*
X165246240Y-62200160D01*
X165167023Y-61860562D01*
X165076225Y-61501786D01*
X164985447Y-61169603D01*
X164906288Y-60909785D01*
X164850349Y-60768105D01*
X164848859Y-60765700D01*
X164715265Y-60627357D01*
X164535923Y-60582072D01*
X164291051Y-60634440D01*
G37*
X164291051Y-60634440D02*
X163960866Y-60789058D01*
X163525586Y-61050523D01*
X163470538Y-61085941D01*
X162680765Y-61596681D01*
X161807501Y-61498418D01*
X161262968Y-61447086D01*
X160868909Y-61445813D01*
X160609653Y-61512699D01*
X160469530Y-61665847D01*
X160432869Y-61923357D01*
X160483998Y-62303329D01*
X160607248Y-62823867D01*
X160619401Y-62870765D01*
X160854006Y-63772957D01*
X160494428Y-64565912D01*
X160285377Y-65063607D01*
X160168237Y-65438553D01*
X160139650Y-65707993D01*
X160196262Y-65889170D01*
X160229166Y-65928699D01*
X160381034Y-65999548D01*
X160667426Y-66062757D01*
X161053556Y-66113352D01*
X161504634Y-66146356D01*
X161818789Y-66156055D01*
X162074075Y-66164393D01*
X162259676Y-66196271D01*
X162424540Y-66274696D01*
X162617612Y-66422674D01*
X162877122Y-66653507D01*
X163279838Y-67013546D01*
X163581919Y-67267176D01*
X163805032Y-67425104D01*
X163970844Y-67498037D01*
X164101023Y-67496680D01*
X164217237Y-67431740D01*
X164299649Y-67356418D01*
X164396479Y-67211628D01*
X164529783Y-66948880D01*
X164679547Y-66609849D01*
X164784029Y-66347949D01*
X165106961Y-65500929D01*
X165903747Y-65050044D01*
X166339886Y-64791060D01*
X166637776Y-64580852D01*
X166814965Y-64401848D01*
X166888999Y-64236479D01*
X166879089Y-64073390D01*
X166796514Y-63949423D01*
X166608658Y-63751282D01*
X166344686Y-63507739D01*
X166077643Y-63282795D01*
X165779494Y-63038961D01*
X165536997Y-62835262D01*
X165376396Y-62694112D01*
X165323533Y-62638729D01*
X165302277Y-62474806D01*
X165246240Y-62200160D01*
X165167023Y-61860562D01*
X165076225Y-61501786D01*
X164985447Y-61169603D01*
X164906288Y-60909785D01*
X164850349Y-60768105D01*
X164848859Y-60765700D01*
X164715265Y-60627357D01*
X164535923Y-60582072D01*
X164291051Y-60634440D01*
G36*
X113438248Y-53026947D02*
G01*
X112805852Y-53081606D01*
X112364533Y-53163147D01*
X111560485Y-53416460D01*
X110866332Y-53757586D01*
X110233869Y-54213700D01*
X109820564Y-54597221D01*
X109281977Y-55203315D01*
X108862171Y-55831113D01*
X108529403Y-56533993D01*
X108329818Y-57103867D01*
X108246454Y-57395965D01*
X108190185Y-57670250D01*
X108156224Y-57971762D01*
X108139782Y-58345540D01*
X108136072Y-58836625D01*
X108136322Y-58924200D01*
X108141669Y-59425265D01*
X108157121Y-59802544D01*
X108188289Y-60101527D01*
X108240787Y-60367703D01*
X108320227Y-60646559D01*
X108366376Y-60788652D01*
X108766785Y-61732069D01*
X109307984Y-62591130D01*
X109979435Y-63357464D01*
X110770601Y-64022700D01*
X111670945Y-64578467D01*
X112669931Y-65016396D01*
X113757020Y-65328116D01*
X114184867Y-65410701D01*
X114395381Y-65436591D01*
X114746771Y-65468818D01*
X115210792Y-65505273D01*
X115759195Y-65543850D01*
X116363737Y-65582440D01*
X116920064Y-65614756D01*
X117563779Y-65654108D01*
X118188148Y-65699164D01*
X118762111Y-65747159D01*
X119254610Y-65795332D01*
X119634585Y-65840920D01*
X119841064Y-65874570D01*
X120953630Y-66187705D01*
X121992846Y-66650265D01*
X122952024Y-67256012D01*
X123824476Y-67998713D01*
X124603517Y-68872131D01*
X125282458Y-69870030D01*
X125854612Y-70986176D01*
X126166165Y-71772367D01*
X126276669Y-72073837D01*
X126367280Y-72302274D01*
X126422886Y-72420233D01*
X126430919Y-72428533D01*
X126440194Y-72352251D01*
X126431320Y-72154591D01*
X126412469Y-71941700D01*
X126321629Y-71150135D01*
X126212736Y-70338061D01*
X126091126Y-69536811D01*
X125962133Y-68777718D01*
X125831096Y-68092114D01*
X125703350Y-67511330D01*
X125584231Y-67066701D01*
X125579724Y-67052200D01*
X125551157Y-66967533D01*
X124194317Y-66967533D01*
X123848560Y-66290200D01*
X123634404Y-65904741D01*
X123385322Y-65506824D01*
X123149973Y-65173511D01*
X123116613Y-65131038D01*
X122520291Y-64511870D01*
X121799192Y-63972830D01*
X120987566Y-63535865D01*
X120153867Y-63232455D01*
X119986016Y-63192689D01*
X119777031Y-63159191D01*
X119508857Y-63130955D01*
X119163439Y-63106974D01*
X118722722Y-63086240D01*
X118168650Y-63067745D01*
X117483169Y-63050483D01*
X116648222Y-63033446D01*
X116555533Y-63031711D01*
X115737018Y-63015804D01*
X115068682Y-63000742D01*
X114531385Y-62985301D01*
X114105984Y-62968258D01*
X113773341Y-62948389D01*
X113514312Y-62924471D01*
X113309757Y-62895280D01*
X113140535Y-62859592D01*
X112987505Y-62816185D01*
X112939065Y-62800542D01*
X112213892Y-62495247D01*
X111617181Y-62092594D01*
X111127191Y-61573409D01*
X110722180Y-60918521D01*
X110659057Y-60789878D01*
X110350091Y-59971470D01*
X110193719Y-59158620D01*
X110183327Y-58367197D01*
X110312298Y-57613068D01*
X110574019Y-56912101D01*
X110961873Y-56280163D01*
X111469245Y-55733123D01*
X112089520Y-55286847D01*
X112816083Y-54957204D01*
X113130052Y-54862841D01*
X113934329Y-54739698D01*
X114760901Y-54780316D01*
X115604536Y-54981374D01*
X116460004Y-55339552D01*
X117322074Y-55851529D01*
X118185517Y-56513984D01*
X119045100Y-57323598D01*
X119895594Y-58277049D01*
X120731769Y-59371017D01*
X121119891Y-59935112D01*
X121703436Y-60850752D01*
X122247810Y-61782032D01*
X122743187Y-62707694D01*
X123179739Y-63606480D01*
X123547640Y-64457132D01*
X123837063Y-65238395D01*
X124038179Y-65929008D01*
X124136028Y-66459533D01*
X124194317Y-66967533D01*
X125551157Y-66967533D01*
X124963547Y-65226005D01*
X124288403Y-63491512D01*
X123559861Y-61858139D01*
X122783486Y-60335306D01*
X121964847Y-58932433D01*
X121109511Y-57658941D01*
X120223044Y-56524248D01*
X119311013Y-55537774D01*
X118378987Y-54708939D01*
X118204725Y-54573568D01*
X117715358Y-54240301D01*
X117139546Y-53908750D01*
X116529095Y-53604405D01*
X115935815Y-53352755D01*
X115411511Y-53179286D01*
X115327867Y-53158191D01*
X114764925Y-53065129D01*
X114113163Y-53021418D01*
X113438248Y-53026947D01*
G37*
X113438248Y-53026947D02*
X112805852Y-53081606D01*
X112364533Y-53163147D01*
X111560485Y-53416460D01*
X110866332Y-53757586D01*
X110233869Y-54213700D01*
X109820564Y-54597221D01*
X109281977Y-55203315D01*
X108862171Y-55831113D01*
X108529403Y-56533993D01*
X108329818Y-57103867D01*
X108246454Y-57395965D01*
X108190185Y-57670250D01*
X108156224Y-57971762D01*
X108139782Y-58345540D01*
X108136072Y-58836625D01*
X108136322Y-58924200D01*
X108141669Y-59425265D01*
X108157121Y-59802544D01*
X108188289Y-60101527D01*
X108240787Y-60367703D01*
X108320227Y-60646559D01*
X108366376Y-60788652D01*
X108766785Y-61732069D01*
X109307984Y-62591130D01*
X109979435Y-63357464D01*
X110770601Y-64022700D01*
X111670945Y-64578467D01*
X112669931Y-65016396D01*
X113757020Y-65328116D01*
X114184867Y-65410701D01*
X114395381Y-65436591D01*
X114746771Y-65468818D01*
X115210792Y-65505273D01*
X115759195Y-65543850D01*
X116363737Y-65582440D01*
X116920064Y-65614756D01*
X117563779Y-65654108D01*
X118188148Y-65699164D01*
X118762111Y-65747159D01*
X119254610Y-65795332D01*
X119634585Y-65840920D01*
X119841064Y-65874570D01*
X120953630Y-66187705D01*
X121992846Y-66650265D01*
X122952024Y-67256012D01*
X123824476Y-67998713D01*
X124603517Y-68872131D01*
X125282458Y-69870030D01*
X125854612Y-70986176D01*
X126166165Y-71772367D01*
X126276669Y-72073837D01*
X126367280Y-72302274D01*
X126422886Y-72420233D01*
X126430919Y-72428533D01*
X126440194Y-72352251D01*
X126431320Y-72154591D01*
X126412469Y-71941700D01*
X126321629Y-71150135D01*
X126212736Y-70338061D01*
X126091126Y-69536811D01*
X125962133Y-68777718D01*
X125831096Y-68092114D01*
X125703350Y-67511330D01*
X125584231Y-67066701D01*
X125579724Y-67052200D01*
X125551157Y-66967533D01*
X124194317Y-66967533D01*
X123848560Y-66290200D01*
X123634404Y-65904741D01*
X123385322Y-65506824D01*
X123149973Y-65173511D01*
X123116613Y-65131038D01*
X122520291Y-64511870D01*
X121799192Y-63972830D01*
X120987566Y-63535865D01*
X120153867Y-63232455D01*
X119986016Y-63192689D01*
X119777031Y-63159191D01*
X119508857Y-63130955D01*
X119163439Y-63106974D01*
X118722722Y-63086240D01*
X118168650Y-63067745D01*
X117483169Y-63050483D01*
X116648222Y-63033446D01*
X116555533Y-63031711D01*
X115737018Y-63015804D01*
X115068682Y-63000742D01*
X114531385Y-62985301D01*
X114105984Y-62968258D01*
X113773341Y-62948389D01*
X113514312Y-62924471D01*
X113309757Y-62895280D01*
X113140535Y-62859592D01*
X112987505Y-62816185D01*
X112939065Y-62800542D01*
X112213892Y-62495247D01*
X111617181Y-62092594D01*
X111127191Y-61573409D01*
X110722180Y-60918521D01*
X110659057Y-60789878D01*
X110350091Y-59971470D01*
X110193719Y-59158620D01*
X110183327Y-58367197D01*
X110312298Y-57613068D01*
X110574019Y-56912101D01*
X110961873Y-56280163D01*
X111469245Y-55733123D01*
X112089520Y-55286847D01*
X112816083Y-54957204D01*
X113130052Y-54862841D01*
X113934329Y-54739698D01*
X114760901Y-54780316D01*
X115604536Y-54981374D01*
X116460004Y-55339552D01*
X117322074Y-55851529D01*
X118185517Y-56513984D01*
X119045100Y-57323598D01*
X119895594Y-58277049D01*
X120731769Y-59371017D01*
X121119891Y-59935112D01*
X121703436Y-60850752D01*
X122247810Y-61782032D01*
X122743187Y-62707694D01*
X123179739Y-63606480D01*
X123547640Y-64457132D01*
X123837063Y-65238395D01*
X124038179Y-65929008D01*
X124136028Y-66459533D01*
X124194317Y-66967533D01*
X125551157Y-66967533D01*
X124963547Y-65226005D01*
X124288403Y-63491512D01*
X123559861Y-61858139D01*
X122783486Y-60335306D01*
X121964847Y-58932433D01*
X121109511Y-57658941D01*
X120223044Y-56524248D01*
X119311013Y-55537774D01*
X118378987Y-54708939D01*
X118204725Y-54573568D01*
X117715358Y-54240301D01*
X117139546Y-53908750D01*
X116529095Y-53604405D01*
X115935815Y-53352755D01*
X115411511Y-53179286D01*
X115327867Y-53158191D01*
X114764925Y-53065129D01*
X114113163Y-53021418D01*
X113438248Y-53026947D01*
G36*
X115126850Y-67778669D02*
G01*
X114441815Y-67975486D01*
X113852059Y-68293493D01*
X113369819Y-68727824D01*
X113022767Y-69243090D01*
X112840018Y-69771205D01*
X112794162Y-70341782D01*
X112886082Y-70899953D01*
X112991669Y-71173465D01*
X113189992Y-71488942D01*
X113479518Y-71832388D01*
X113814264Y-72158321D01*
X114148246Y-72421257D01*
X114392918Y-72559479D01*
X114783490Y-72655151D01*
X115264159Y-72670857D01*
X115776759Y-72608437D01*
X116171475Y-72503235D01*
X116448927Y-72400423D01*
X116689647Y-72288339D01*
X116926321Y-72145123D01*
X117191632Y-71948911D01*
X117518264Y-71677843D01*
X117887888Y-71355157D01*
X118224017Y-71073488D01*
X118566367Y-70812087D01*
X118865788Y-70607350D01*
X119011021Y-70523455D01*
X119756370Y-70224848D01*
X120495120Y-70083094D01*
X121212154Y-70098850D01*
X121892356Y-70272768D01*
X122152071Y-70387434D01*
X122690547Y-70656513D01*
X122395874Y-70352058D01*
X121967541Y-69978971D01*
X121534076Y-69681996D01*
X117634031Y-69681996D01*
X117507456Y-69972037D01*
X117401892Y-70129522D01*
X117031046Y-70545709D01*
X116585790Y-70893728D01*
X116097056Y-71161796D01*
X115595779Y-71338130D01*
X115112892Y-71410946D01*
X114679329Y-71368461D01*
X114422706Y-71264367D01*
X114132298Y-71008427D01*
X113945293Y-70666022D01*
X113861850Y-70276569D01*
X113882129Y-69879483D01*
X114006288Y-69514181D01*
X114234487Y-69220079D01*
X114413956Y-69097973D01*
X114858196Y-68932315D01*
X115375623Y-68838098D01*
X115923917Y-68813384D01*
X116460756Y-68856236D01*
X116943820Y-68964716D01*
X117330789Y-69136886D01*
X117465700Y-69237687D01*
X117619522Y-69445469D01*
X117634031Y-69681996D01*
X121534076Y-69681996D01*
X121403645Y-69592636D01*
X120735686Y-69207428D01*
X119995166Y-68837723D01*
X119213585Y-68497897D01*
X118422445Y-68202327D01*
X117653247Y-67965389D01*
X116937492Y-67801459D01*
X116733792Y-67768064D01*
X115894922Y-67707907D01*
X115126850Y-67778669D01*
G37*
X115126850Y-67778669D02*
X114441815Y-67975486D01*
X113852059Y-68293493D01*
X113369819Y-68727824D01*
X113022767Y-69243090D01*
X112840018Y-69771205D01*
X112794162Y-70341782D01*
X112886082Y-70899953D01*
X112991669Y-71173465D01*
X113189992Y-71488942D01*
X113479518Y-71832388D01*
X113814264Y-72158321D01*
X114148246Y-72421257D01*
X114392918Y-72559479D01*
X114783490Y-72655151D01*
X115264159Y-72670857D01*
X115776759Y-72608437D01*
X116171475Y-72503235D01*
X116448927Y-72400423D01*
X116689647Y-72288339D01*
X116926321Y-72145123D01*
X117191632Y-71948911D01*
X117518264Y-71677843D01*
X117887888Y-71355157D01*
X118224017Y-71073488D01*
X118566367Y-70812087D01*
X118865788Y-70607350D01*
X119011021Y-70523455D01*
X119756370Y-70224848D01*
X120495120Y-70083094D01*
X121212154Y-70098850D01*
X121892356Y-70272768D01*
X122152071Y-70387434D01*
X122690547Y-70656513D01*
X122395874Y-70352058D01*
X121967541Y-69978971D01*
X121534076Y-69681996D01*
X117634031Y-69681996D01*
X117507456Y-69972037D01*
X117401892Y-70129522D01*
X117031046Y-70545709D01*
X116585790Y-70893728D01*
X116097056Y-71161796D01*
X115595779Y-71338130D01*
X115112892Y-71410946D01*
X114679329Y-71368461D01*
X114422706Y-71264367D01*
X114132298Y-71008427D01*
X113945293Y-70666022D01*
X113861850Y-70276569D01*
X113882129Y-69879483D01*
X114006288Y-69514181D01*
X114234487Y-69220079D01*
X114413956Y-69097973D01*
X114858196Y-68932315D01*
X115375623Y-68838098D01*
X115923917Y-68813384D01*
X116460756Y-68856236D01*
X116943820Y-68964716D01*
X117330789Y-69136886D01*
X117465700Y-69237687D01*
X117619522Y-69445469D01*
X117634031Y-69681996D01*
X121534076Y-69681996D01*
X121403645Y-69592636D01*
X120735686Y-69207428D01*
X119995166Y-68837723D01*
X119213585Y-68497897D01*
X118422445Y-68202327D01*
X117653247Y-67965389D01*
X116937492Y-67801459D01*
X116733792Y-67768064D01*
X115894922Y-67707907D01*
X115126850Y-67778669D01*
G36*
X122105598Y-71681558D02*
G01*
X121916237Y-71748012D01*
X121724431Y-71898966D01*
X121625573Y-71995239D01*
X121426454Y-72215660D01*
X121328252Y-72402542D01*
X121297997Y-72626016D01*
X121297183Y-72693739D01*
X121371223Y-73118895D01*
X121572378Y-73478461D01*
X121870365Y-73750934D01*
X122234896Y-73914816D01*
X122635688Y-73948604D01*
X122954772Y-73870504D01*
X123181023Y-73715072D01*
X123404141Y-73462601D01*
X123572404Y-73178264D01*
X123623837Y-73027405D01*
X123618429Y-72718221D01*
X123502322Y-72375439D01*
X123304796Y-72060745D01*
X123059460Y-71838441D01*
X122687216Y-71698622D01*
X122366406Y-71666850D01*
X122105598Y-71681558D01*
G37*
X122105598Y-71681558D02*
X121916237Y-71748012D01*
X121724431Y-71898966D01*
X121625573Y-71995239D01*
X121426454Y-72215660D01*
X121328252Y-72402542D01*
X121297997Y-72626016D01*
X121297183Y-72693739D01*
X121371223Y-73118895D01*
X121572378Y-73478461D01*
X121870365Y-73750934D01*
X122234896Y-73914816D01*
X122635688Y-73948604D01*
X122954772Y-73870504D01*
X123181023Y-73715072D01*
X123404141Y-73462601D01*
X123572404Y-73178264D01*
X123623837Y-73027405D01*
X123618429Y-72718221D01*
X123502322Y-72375439D01*
X123304796Y-72060745D01*
X123059460Y-71838441D01*
X122687216Y-71698622D01*
X122366406Y-71666850D01*
X122105598Y-71681558D01*
G36*
X118193277Y-73005504D02*
G01*
X117853012Y-73184781D01*
X117593320Y-73432907D01*
X117561854Y-73480090D01*
X117424141Y-73847735D01*
X117430811Y-74220907D01*
X117559854Y-74573720D01*
X117789260Y-74880285D01*
X118097019Y-75114716D01*
X118461120Y-75251124D01*
X118859553Y-75263622D01*
X119043099Y-75222261D01*
X119390483Y-75035337D01*
X119654128Y-74739817D01*
X119807447Y-74379537D01*
X119823850Y-73998331D01*
X119814690Y-73950212D01*
X119655680Y-73588308D01*
X119373453Y-73275133D01*
X119013665Y-73046984D01*
X118621977Y-72940156D01*
X118539548Y-72936533D01*
X118193277Y-73005504D01*
G37*
X118193277Y-73005504D02*
X117853012Y-73184781D01*
X117593320Y-73432907D01*
X117561854Y-73480090D01*
X117424141Y-73847735D01*
X117430811Y-74220907D01*
X117559854Y-74573720D01*
X117789260Y-74880285D01*
X118097019Y-75114716D01*
X118461120Y-75251124D01*
X118859553Y-75263622D01*
X119043099Y-75222261D01*
X119390483Y-75035337D01*
X119654128Y-74739817D01*
X119807447Y-74379537D01*
X119823850Y-73998331D01*
X119814690Y-73950212D01*
X119655680Y-73588308D01*
X119373453Y-73275133D01*
X119013665Y-73046984D01*
X118621977Y-72940156D01*
X118539548Y-72936533D01*
X118193277Y-73005504D01*
G36*
X149949615Y-62724710D02*
G01*
X149515289Y-62869871D01*
X149400258Y-62922935D01*
X149299987Y-62970809D01*
X149213387Y-63024811D01*
X149139372Y-63096260D01*
X149076854Y-63196475D01*
X149024744Y-63336775D01*
X148981956Y-63528480D01*
X148947401Y-63782908D01*
X148919993Y-64111379D01*
X148898644Y-64525211D01*
X148882265Y-65035725D01*
X148869770Y-65654238D01*
X148860070Y-66392070D01*
X148852079Y-67260539D01*
X148844708Y-68270966D01*
X148836870Y-69434670D01*
X148833200Y-69968619D01*
X148825038Y-71167207D01*
X148818570Y-72208149D01*
X148813970Y-73103126D01*
X148811416Y-73863820D01*
X148811083Y-74501909D01*
X148813146Y-75029077D01*
X148817780Y-75457003D01*
X148825162Y-75797368D01*
X148835467Y-76061854D01*
X148848871Y-76262140D01*
X148865549Y-76409909D01*
X148885678Y-76516839D01*
X148909431Y-76594614D01*
X148933631Y-76648518D01*
X149162049Y-76919491D01*
X149502160Y-77116127D01*
X149908667Y-77227546D01*
X150336270Y-77242870D01*
X150739670Y-77151219D01*
X150839515Y-77106235D01*
X151087495Y-76938567D01*
X151295046Y-76732684D01*
X151305182Y-76719248D01*
X151337785Y-76671515D01*
X151366220Y-76615477D01*
X151390897Y-76539509D01*
X151412228Y-76431985D01*
X151430626Y-76281280D01*
X151446503Y-76075767D01*
X151460270Y-75803820D01*
X151472339Y-75453815D01*
X151483124Y-75014124D01*
X151493035Y-74473122D01*
X151502484Y-73819183D01*
X151511884Y-73040681D01*
X151521646Y-72125990D01*
X151532183Y-71063485D01*
X151542061Y-70035026D01*
X151554174Y-68801771D01*
X151564744Y-67726521D01*
X151572804Y-66797948D01*
X151577386Y-66004725D01*
X151577524Y-65335525D01*
X151572250Y-64779020D01*
X151560599Y-64323882D01*
X151541602Y-63958785D01*
X151514293Y-63672400D01*
X151477705Y-63453401D01*
X151430870Y-63290459D01*
X151372823Y-63172248D01*
X151302596Y-63087440D01*
X151219223Y-63024707D01*
X151121735Y-62972722D01*
X151009167Y-62920158D01*
X150931490Y-62882367D01*
X150441320Y-62718876D01*
X149949615Y-62724710D01*
G37*
X149949615Y-62724710D02*
X149515289Y-62869871D01*
X149400258Y-62922935D01*
X149299987Y-62970809D01*
X149213387Y-63024811D01*
X149139372Y-63096260D01*
X149076854Y-63196475D01*
X149024744Y-63336775D01*
X148981956Y-63528480D01*
X148947401Y-63782908D01*
X148919993Y-64111379D01*
X148898644Y-64525211D01*
X148882265Y-65035725D01*
X148869770Y-65654238D01*
X148860070Y-66392070D01*
X148852079Y-67260539D01*
X148844708Y-68270966D01*
X148836870Y-69434670D01*
X148833200Y-69968619D01*
X148825038Y-71167207D01*
X148818570Y-72208149D01*
X148813970Y-73103126D01*
X148811416Y-73863820D01*
X148811083Y-74501909D01*
X148813146Y-75029077D01*
X148817780Y-75457003D01*
X148825162Y-75797368D01*
X148835467Y-76061854D01*
X148848871Y-76262140D01*
X148865549Y-76409909D01*
X148885678Y-76516839D01*
X148909431Y-76594614D01*
X148933631Y-76648518D01*
X149162049Y-76919491D01*
X149502160Y-77116127D01*
X149908667Y-77227546D01*
X150336270Y-77242870D01*
X150739670Y-77151219D01*
X150839515Y-77106235D01*
X151087495Y-76938567D01*
X151295046Y-76732684D01*
X151305182Y-76719248D01*
X151337785Y-76671515D01*
X151366220Y-76615477D01*
X151390897Y-76539509D01*
X151412228Y-76431985D01*
X151430626Y-76281280D01*
X151446503Y-76075767D01*
X151460270Y-75803820D01*
X151472339Y-75453815D01*
X151483124Y-75014124D01*
X151493035Y-74473122D01*
X151502484Y-73819183D01*
X151511884Y-73040681D01*
X151521646Y-72125990D01*
X151532183Y-71063485D01*
X151542061Y-70035026D01*
X151554174Y-68801771D01*
X151564744Y-67726521D01*
X151572804Y-66797948D01*
X151577386Y-66004725D01*
X151577524Y-65335525D01*
X151572250Y-64779020D01*
X151560599Y-64323882D01*
X151541602Y-63958785D01*
X151514293Y-63672400D01*
X151477705Y-63453401D01*
X151430870Y-63290459D01*
X151372823Y-63172248D01*
X151302596Y-63087440D01*
X151219223Y-63024707D01*
X151121735Y-62972722D01*
X151009167Y-62920158D01*
X150931490Y-62882367D01*
X150441320Y-62718876D01*
X149949615Y-62724710D01*
G36*
X162755546Y-68355030D02*
G01*
X162374686Y-68501777D01*
X162079466Y-68718317D01*
X161948038Y-68904916D01*
X161921077Y-69050570D01*
X161901316Y-69343566D01*
X161888303Y-69762088D01*
X161881585Y-70284317D01*
X161880711Y-70888436D01*
X161885226Y-71552628D01*
X161894680Y-72255074D01*
X161908619Y-72973958D01*
X161926591Y-73687461D01*
X161948144Y-74373766D01*
X161972824Y-75011055D01*
X162000181Y-75577512D01*
X162029760Y-76051317D01*
X162061110Y-76410654D01*
X162093778Y-76633706D01*
X162109392Y-76685113D01*
X162257529Y-76888924D01*
X162473053Y-77075704D01*
X162500207Y-77093239D01*
X162802434Y-77216846D01*
X163189052Y-77292426D01*
X163580880Y-77310307D01*
X163891518Y-77263213D01*
X164287520Y-77072537D01*
X164565027Y-76806856D01*
X164648010Y-76657498D01*
X164673607Y-76556666D01*
X164692881Y-76384344D01*
X164705912Y-76127301D01*
X164712781Y-75772309D01*
X164713569Y-75306138D01*
X164708358Y-74715557D01*
X164697228Y-73987338D01*
X164680261Y-73108251D01*
X164672114Y-72723301D01*
X164652391Y-71804147D01*
X164634743Y-71038867D01*
X164616640Y-70412068D01*
X164595552Y-69908353D01*
X164568946Y-69512328D01*
X164534293Y-69208596D01*
X164489062Y-68981763D01*
X164430722Y-68816433D01*
X164356742Y-68697212D01*
X164264593Y-68608702D01*
X164151742Y-68535510D01*
X164015660Y-68462240D01*
X163967463Y-68436622D01*
X163596385Y-68312145D01*
X163177596Y-68288383D01*
X162755546Y-68355030D01*
G37*
X162755546Y-68355030D02*
X162374686Y-68501777D01*
X162079466Y-68718317D01*
X161948038Y-68904916D01*
X161921077Y-69050570D01*
X161901316Y-69343566D01*
X161888303Y-69762088D01*
X161881585Y-70284317D01*
X161880711Y-70888436D01*
X161885226Y-71552628D01*
X161894680Y-72255074D01*
X161908619Y-72973958D01*
X161926591Y-73687461D01*
X161948144Y-74373766D01*
X161972824Y-75011055D01*
X162000181Y-75577512D01*
X162029760Y-76051317D01*
X162061110Y-76410654D01*
X162093778Y-76633706D01*
X162109392Y-76685113D01*
X162257529Y-76888924D01*
X162473053Y-77075704D01*
X162500207Y-77093239D01*
X162802434Y-77216846D01*
X163189052Y-77292426D01*
X163580880Y-77310307D01*
X163891518Y-77263213D01*
X164287520Y-77072537D01*
X164565027Y-76806856D01*
X164648010Y-76657498D01*
X164673607Y-76556666D01*
X164692881Y-76384344D01*
X164705912Y-76127301D01*
X164712781Y-75772309D01*
X164713569Y-75306138D01*
X164708358Y-74715557D01*
X164697228Y-73987338D01*
X164680261Y-73108251D01*
X164672114Y-72723301D01*
X164652391Y-71804147D01*
X164634743Y-71038867D01*
X164616640Y-70412068D01*
X164595552Y-69908353D01*
X164568946Y-69512328D01*
X164534293Y-69208596D01*
X164489062Y-68981763D01*
X164430722Y-68816433D01*
X164356742Y-68697212D01*
X164264593Y-68608702D01*
X164151742Y-68535510D01*
X164015660Y-68462240D01*
X163967463Y-68436622D01*
X163596385Y-68312145D01*
X163177596Y-68288383D01*
X162755546Y-68355030D01*
G36*
X142194955Y-67930832D02*
G01*
X141371003Y-68142475D01*
X140636291Y-68488352D01*
X140000435Y-68962848D01*
X139473052Y-69560347D01*
X139101889Y-70192738D01*
X138955091Y-70518264D01*
X138860496Y-70787871D01*
X138803968Y-71063105D01*
X138771370Y-71405511D01*
X138756100Y-71698139D01*
X138750930Y-72257435D01*
X138796921Y-72679845D01*
X138901561Y-72992088D01*
X139072340Y-73220884D01*
X139214060Y-73332114D01*
X139287737Y-73372920D01*
X139383520Y-73406232D01*
X139518826Y-73433001D01*
X139711068Y-73454178D01*
X139977662Y-73470715D01*
X140336024Y-73483563D01*
X140803568Y-73493673D01*
X141397709Y-73501996D01*
X142135863Y-73509484D01*
X142523131Y-73512864D01*
X143325542Y-73519998D01*
X143974798Y-73527085D01*
X144487072Y-73535101D01*
X144878540Y-73545017D01*
X145165377Y-73557809D01*
X145363756Y-73574449D01*
X145489853Y-73595911D01*
X145559843Y-73623169D01*
X145589900Y-73657197D01*
X145596200Y-73697852D01*
X145517823Y-74054400D01*
X145299194Y-74420416D01*
X144965064Y-74767325D01*
X144540187Y-75066551D01*
X144306032Y-75187263D01*
X144013215Y-75310225D01*
X143754867Y-75383553D01*
X143466402Y-75419375D01*
X143083230Y-75429824D01*
X143013867Y-75429953D01*
X142541413Y-75414237D01*
X142170774Y-75353254D01*
X141848102Y-75226116D01*
X141519548Y-75011940D01*
X141151572Y-74707642D01*
X140755949Y-74401478D01*
X140418482Y-74240770D01*
X140112848Y-74224218D01*
X139812721Y-74350523D01*
X139491777Y-74618388D01*
X139484748Y-74625397D01*
X139282894Y-74853103D01*
X139186181Y-75050023D01*
X139161533Y-75280663D01*
X139241434Y-75684917D01*
X139466308Y-76095780D01*
X139813914Y-76493157D01*
X140262010Y-76856955D01*
X140788357Y-77167079D01*
X141370711Y-77403434D01*
X141577494Y-77463414D01*
X142049804Y-77546060D01*
X142627406Y-77586059D01*
X143251927Y-77584226D01*
X143864999Y-77541374D01*
X144408250Y-77458318D01*
X144564063Y-77421752D01*
X145288403Y-77176574D01*
X145908713Y-76837437D01*
X146477466Y-76375035D01*
X146531162Y-76323200D01*
X147022457Y-75729368D01*
X147409639Y-75025336D01*
X147685919Y-74239474D01*
X147844508Y-73400153D01*
X147878617Y-72535744D01*
X147781456Y-71674617D01*
X147763887Y-71596382D01*
X145596200Y-71596382D01*
X145596200Y-71835867D01*
X143359458Y-71835867D01*
X142755225Y-71833981D01*
X142202701Y-71828670D01*
X141725734Y-71820449D01*
X141348172Y-71809837D01*
X141093863Y-71797349D01*
X140988792Y-71784475D01*
X140891683Y-71665752D01*
X140856408Y-71444745D01*
X140883933Y-71177188D01*
X140973822Y-70921495D01*
X141253646Y-70556647D01*
X141659773Y-70259812D01*
X142159112Y-70041853D01*
X142718568Y-69913634D01*
X143305049Y-69886019D01*
X143878272Y-69968064D01*
X144323472Y-70132867D01*
X144744208Y-70384787D01*
X145110691Y-70695588D01*
X145393132Y-71037036D01*
X145561742Y-71380895D01*
X145596200Y-71596382D01*
X147763887Y-71596382D01*
X147714717Y-71377434D01*
X147507525Y-70725583D01*
X147230180Y-70162326D01*
X146849855Y-69628852D01*
X146547982Y-69287310D01*
X145894498Y-68709288D01*
X145160507Y-68280172D01*
X144346516Y-68000173D01*
X143453030Y-67869498D01*
X143098533Y-67859036D01*
X142194955Y-67930832D01*
G37*
X142194955Y-67930832D02*
X141371003Y-68142475D01*
X140636291Y-68488352D01*
X140000435Y-68962848D01*
X139473052Y-69560347D01*
X139101889Y-70192738D01*
X138955091Y-70518264D01*
X138860496Y-70787871D01*
X138803968Y-71063105D01*
X138771370Y-71405511D01*
X138756100Y-71698139D01*
X138750930Y-72257435D01*
X138796921Y-72679845D01*
X138901561Y-72992088D01*
X139072340Y-73220884D01*
X139214060Y-73332114D01*
X139287737Y-73372920D01*
X139383520Y-73406232D01*
X139518826Y-73433001D01*
X139711068Y-73454178D01*
X139977662Y-73470715D01*
X140336024Y-73483563D01*
X140803568Y-73493673D01*
X141397709Y-73501996D01*
X142135863Y-73509484D01*
X142523131Y-73512864D01*
X143325542Y-73519998D01*
X143974798Y-73527085D01*
X144487072Y-73535101D01*
X144878540Y-73545017D01*
X145165377Y-73557809D01*
X145363756Y-73574449D01*
X145489853Y-73595911D01*
X145559843Y-73623169D01*
X145589900Y-73657197D01*
X145596200Y-73697852D01*
X145517823Y-74054400D01*
X145299194Y-74420416D01*
X144965064Y-74767325D01*
X144540187Y-75066551D01*
X144306032Y-75187263D01*
X144013215Y-75310225D01*
X143754867Y-75383553D01*
X143466402Y-75419375D01*
X143083230Y-75429824D01*
X143013867Y-75429953D01*
X142541413Y-75414237D01*
X142170774Y-75353254D01*
X141848102Y-75226116D01*
X141519548Y-75011940D01*
X141151572Y-74707642D01*
X140755949Y-74401478D01*
X140418482Y-74240770D01*
X140112848Y-74224218D01*
X139812721Y-74350523D01*
X139491777Y-74618388D01*
X139484748Y-74625397D01*
X139282894Y-74853103D01*
X139186181Y-75050023D01*
X139161533Y-75280663D01*
X139241434Y-75684917D01*
X139466308Y-76095780D01*
X139813914Y-76493157D01*
X140262010Y-76856955D01*
X140788357Y-77167079D01*
X141370711Y-77403434D01*
X141577494Y-77463414D01*
X142049804Y-77546060D01*
X142627406Y-77586059D01*
X143251927Y-77584226D01*
X143864999Y-77541374D01*
X144408250Y-77458318D01*
X144564063Y-77421752D01*
X145288403Y-77176574D01*
X145908713Y-76837437D01*
X146477466Y-76375035D01*
X146531162Y-76323200D01*
X147022457Y-75729368D01*
X147409639Y-75025336D01*
X147685919Y-74239474D01*
X147844508Y-73400153D01*
X147878617Y-72535744D01*
X147781456Y-71674617D01*
X147763887Y-71596382D01*
X145596200Y-71596382D01*
X145596200Y-71835867D01*
X143359458Y-71835867D01*
X142755225Y-71833981D01*
X142202701Y-71828670D01*
X141725734Y-71820449D01*
X141348172Y-71809837D01*
X141093863Y-71797349D01*
X140988792Y-71784475D01*
X140891683Y-71665752D01*
X140856408Y-71444745D01*
X140883933Y-71177188D01*
X140973822Y-70921495D01*
X141253646Y-70556647D01*
X141659773Y-70259812D01*
X142159112Y-70041853D01*
X142718568Y-69913634D01*
X143305049Y-69886019D01*
X143878272Y-69968064D01*
X144323472Y-70132867D01*
X144744208Y-70384787D01*
X145110691Y-70695588D01*
X145393132Y-71037036D01*
X145561742Y-71380895D01*
X145596200Y-71596382D01*
X147763887Y-71596382D01*
X147714717Y-71377434D01*
X147507525Y-70725583D01*
X147230180Y-70162326D01*
X146849855Y-69628852D01*
X146547982Y-69287310D01*
X145894498Y-68709288D01*
X145160507Y-68280172D01*
X144346516Y-68000173D01*
X143453030Y-67869498D01*
X143098533Y-67859036D01*
X142194955Y-67930832D01*
G36*
X155817923Y-67669499D02*
G01*
X155072253Y-67802610D01*
X154381247Y-68059059D01*
X154174191Y-68169266D01*
X153665808Y-68552139D01*
X153254752Y-69041700D01*
X152964480Y-69602241D01*
X152818451Y-70198053D01*
X152814316Y-70239291D01*
X152814955Y-70720600D01*
X152922734Y-71078227D01*
X153147753Y-71322541D01*
X153500111Y-71463908D01*
X153989907Y-71512698D01*
X154054864Y-71512846D01*
X154365864Y-71503782D01*
X154563605Y-71469047D01*
X154703985Y-71390642D01*
X154832249Y-71262541D01*
X154995128Y-71007393D01*
X155100879Y-70710960D01*
X155107100Y-70677294D01*
X155244032Y-70288963D01*
X155504314Y-70009725D01*
X155872013Y-69855978D01*
X155912563Y-69848391D01*
X156357505Y-69820436D01*
X156742441Y-69883768D01*
X157049176Y-70021531D01*
X157259514Y-70216873D01*
X157355260Y-70452937D01*
X157318218Y-70712869D01*
X157132033Y-70978003D01*
X156926528Y-71122850D01*
X156579560Y-71287724D01*
X156080973Y-71477160D01*
X155798533Y-71573592D01*
X155125453Y-71804708D01*
X154590542Y-72007868D01*
X154167753Y-72196430D01*
X153831040Y-72383753D01*
X153554356Y-72583195D01*
X153311655Y-72808117D01*
X153237366Y-72887159D01*
X152935487Y-73268227D01*
X152744035Y-73650839D01*
X152647949Y-74082736D01*
X152632167Y-74611660D01*
X152639928Y-74780907D01*
X152751453Y-75454162D01*
X153004660Y-76037814D01*
X153402438Y-76536017D01*
X153947675Y-76952929D01*
X154273435Y-77130704D01*
X154876021Y-77356991D01*
X155574996Y-77508380D01*
X156312058Y-77578852D01*
X157028905Y-77562389D01*
X157589413Y-77472989D01*
X158302685Y-77224817D01*
X158964144Y-76850139D01*
X159462858Y-76437007D01*
X159750246Y-76106430D01*
X160004465Y-75734774D01*
X160199985Y-75366912D01*
X160311272Y-75047718D01*
X160327373Y-74917554D01*
X160255343Y-74650379D01*
X160060746Y-74366232D01*
X159779227Y-74108499D01*
X159544254Y-73964400D01*
X159210025Y-73830064D01*
X158925998Y-73801900D01*
X158658273Y-73890518D01*
X158372948Y-74106524D01*
X158065569Y-74427098D01*
X157636517Y-74868765D01*
X157247343Y-75170121D01*
X156871839Y-75346760D01*
X156483796Y-75414276D01*
X156403474Y-75416057D01*
X155956073Y-75366235D01*
X155620029Y-75225408D01*
X155409359Y-75006533D01*
X155338081Y-74722569D01*
X155384670Y-74474284D01*
X155456675Y-74337286D01*
X155584792Y-74209160D01*
X155790543Y-74078107D01*
X156095449Y-73932329D01*
X156521031Y-73760029D01*
X157038626Y-73567592D01*
X157676555Y-73328644D01*
X158178788Y-73120944D01*
X158572641Y-72929906D01*
X158885432Y-72740944D01*
X159144475Y-72539472D01*
X159362192Y-72326920D01*
X159673609Y-71953299D01*
X159872692Y-71596038D01*
X159981323Y-71198218D01*
X160021383Y-70702919D01*
X160022917Y-70608200D01*
X159977829Y-70001866D01*
X159817156Y-69488262D01*
X159522128Y-69021193D01*
X159260545Y-68731755D01*
X158715418Y-68300575D01*
X158067002Y-67975265D01*
X157346888Y-67759320D01*
X156586664Y-67656234D01*
X155817923Y-67669499D01*
G37*
X155817923Y-67669499D02*
X155072253Y-67802610D01*
X154381247Y-68059059D01*
X154174191Y-68169266D01*
X153665808Y-68552139D01*
X153254752Y-69041700D01*
X152964480Y-69602241D01*
X152818451Y-70198053D01*
X152814316Y-70239291D01*
X152814955Y-70720600D01*
X152922734Y-71078227D01*
X153147753Y-71322541D01*
X153500111Y-71463908D01*
X153989907Y-71512698D01*
X154054864Y-71512846D01*
X154365864Y-71503782D01*
X154563605Y-71469047D01*
X154703985Y-71390642D01*
X154832249Y-71262541D01*
X154995128Y-71007393D01*
X155100879Y-70710960D01*
X155107100Y-70677294D01*
X155244032Y-70288963D01*
X155504314Y-70009725D01*
X155872013Y-69855978D01*
X155912563Y-69848391D01*
X156357505Y-69820436D01*
X156742441Y-69883768D01*
X157049176Y-70021531D01*
X157259514Y-70216873D01*
X157355260Y-70452937D01*
X157318218Y-70712869D01*
X157132033Y-70978003D01*
X156926528Y-71122850D01*
X156579560Y-71287724D01*
X156080973Y-71477160D01*
X155798533Y-71573592D01*
X155125453Y-71804708D01*
X154590542Y-72007868D01*
X154167753Y-72196430D01*
X153831040Y-72383753D01*
X153554356Y-72583195D01*
X153311655Y-72808117D01*
X153237366Y-72887159D01*
X152935487Y-73268227D01*
X152744035Y-73650839D01*
X152647949Y-74082736D01*
X152632167Y-74611660D01*
X152639928Y-74780907D01*
X152751453Y-75454162D01*
X153004660Y-76037814D01*
X153402438Y-76536017D01*
X153947675Y-76952929D01*
X154273435Y-77130704D01*
X154876021Y-77356991D01*
X155574996Y-77508380D01*
X156312058Y-77578852D01*
X157028905Y-77562389D01*
X157589413Y-77472989D01*
X158302685Y-77224817D01*
X158964144Y-76850139D01*
X159462858Y-76437007D01*
X159750246Y-76106430D01*
X160004465Y-75734774D01*
X160199985Y-75366912D01*
X160311272Y-75047718D01*
X160327373Y-74917554D01*
X160255343Y-74650379D01*
X160060746Y-74366232D01*
X159779227Y-74108499D01*
X159544254Y-73964400D01*
X159210025Y-73830064D01*
X158925998Y-73801900D01*
X158658273Y-73890518D01*
X158372948Y-74106524D01*
X158065569Y-74427098D01*
X157636517Y-74868765D01*
X157247343Y-75170121D01*
X156871839Y-75346760D01*
X156483796Y-75414276D01*
X156403474Y-75416057D01*
X155956073Y-75366235D01*
X155620029Y-75225408D01*
X155409359Y-75006533D01*
X155338081Y-74722569D01*
X155384670Y-74474284D01*
X155456675Y-74337286D01*
X155584792Y-74209160D01*
X155790543Y-74078107D01*
X156095449Y-73932329D01*
X156521031Y-73760029D01*
X157038626Y-73567592D01*
X157676555Y-73328644D01*
X158178788Y-73120944D01*
X158572641Y-72929906D01*
X158885432Y-72740944D01*
X159144475Y-72539472D01*
X159362192Y-72326920D01*
X159673609Y-71953299D01*
X159872692Y-71596038D01*
X159981323Y-71198218D01*
X160021383Y-70702919D01*
X160022917Y-70608200D01*
X159977829Y-70001866D01*
X159817156Y-69488262D01*
X159522128Y-69021193D01*
X159260545Y-68731755D01*
X158715418Y-68300575D01*
X158067002Y-67975265D01*
X157346888Y-67759320D01*
X156586664Y-67656234D01*
X155817923Y-67669499D01*
G36*
X170902147Y-68261558D02*
G01*
X170265050Y-68430378D01*
X169718003Y-68723059D01*
X169566738Y-68841393D01*
X169367289Y-69006121D01*
X169262899Y-69067113D01*
X169223398Y-69034614D01*
X169218200Y-68959755D01*
X169143434Y-68712568D01*
X168942468Y-68521128D01*
X168650306Y-68389331D01*
X168301947Y-68321076D01*
X167932395Y-68320259D01*
X167576649Y-68390779D01*
X167269712Y-68536533D01*
X167074410Y-68721035D01*
X166995896Y-68838868D01*
X166952979Y-68958180D01*
X166943089Y-69120544D01*
X166963657Y-69367531D01*
X167011611Y-69737035D01*
X167043221Y-70043477D01*
X167074742Y-70485296D01*
X167104468Y-71028545D01*
X167130693Y-71639275D01*
X167151713Y-72283539D01*
X167162489Y-72740048D01*
X167205868Y-74956562D01*
X166988216Y-75174214D01*
X166802136Y-75321261D01*
X166634720Y-75393219D01*
X166618549Y-75394559D01*
X166359167Y-75471954D01*
X166168199Y-75669995D01*
X166048955Y-75953011D01*
X166004742Y-76285332D01*
X166038871Y-76631288D01*
X166154650Y-76955206D01*
X166355388Y-77221416D01*
X166442555Y-77291727D01*
X166676146Y-77380578D01*
X167015349Y-77419193D01*
X167403557Y-77405891D01*
X167784161Y-77338990D01*
X167808898Y-77332300D01*
X168060059Y-77220865D01*
X168343664Y-77035542D01*
X168494060Y-76910951D01*
X168852857Y-76580223D01*
X169056695Y-76798435D01*
X169478392Y-77134017D01*
X170028313Y-77387955D01*
X170683481Y-77554837D01*
X171420917Y-77629252D01*
X172217641Y-77605786D01*
X172402502Y-77586490D01*
X173221960Y-77413693D01*
X173945057Y-77102669D01*
X174566851Y-76657727D01*
X175082398Y-76083177D01*
X175486756Y-75383327D01*
X175745294Y-74672200D01*
X175811425Y-74321262D01*
X175853165Y-73856653D01*
X175871067Y-73324460D01*
X175868122Y-73021200D01*
X173153931Y-73021200D01*
X173149874Y-73470817D01*
X173132156Y-73796477D01*
X173094515Y-74043394D01*
X173030688Y-74256784D01*
X172959072Y-74428212D01*
X172718350Y-74843748D01*
X172417522Y-75188397D01*
X172094182Y-75422576D01*
X171961933Y-75478078D01*
X171653264Y-75528082D01*
X171270956Y-75524155D01*
X170887375Y-75472917D01*
X170574888Y-75380985D01*
X170502664Y-75344609D01*
X170302114Y-75175807D01*
X170105614Y-74933809D01*
X170052754Y-74849159D01*
X169983777Y-74719632D01*
X169933019Y-74589874D01*
X169897674Y-74432258D01*
X169874938Y-74219154D01*
X169862006Y-73922937D01*
X169856073Y-73515977D01*
X169854334Y-72970647D01*
X169854274Y-72894200D01*
X169855020Y-72329693D01*
X169859863Y-71907574D01*
X169871418Y-71600904D01*
X169892301Y-71382744D01*
X169925125Y-71226154D01*
X169972506Y-71104196D01*
X170037060Y-70989931D01*
X170039517Y-70985975D01*
X170344302Y-70642245D01*
X170732092Y-70421373D01*
X171168554Y-70324128D01*
X171619356Y-70351282D01*
X172050165Y-70503602D01*
X172426647Y-70781859D01*
X172555088Y-70929580D01*
X172810335Y-71302947D01*
X172984477Y-71666791D01*
X173090830Y-72067619D01*
X173142710Y-72551937D01*
X173153931Y-73021200D01*
X175868122Y-73021200D01*
X175865689Y-72770770D01*
X175837584Y-72241670D01*
X175787309Y-71783246D01*
X175715418Y-71441586D01*
X175706018Y-71412533D01*
X175337578Y-70553657D01*
X174862031Y-69824611D01*
X174281232Y-69227106D01*
X173597034Y-68762855D01*
X172811291Y-68433571D01*
X172350867Y-68313629D01*
X171605387Y-68221132D01*
X170902147Y-68261558D01*
G37*
X170902147Y-68261558D02*
X170265050Y-68430378D01*
X169718003Y-68723059D01*
X169566738Y-68841393D01*
X169367289Y-69006121D01*
X169262899Y-69067113D01*
X169223398Y-69034614D01*
X169218200Y-68959755D01*
X169143434Y-68712568D01*
X168942468Y-68521128D01*
X168650306Y-68389331D01*
X168301947Y-68321076D01*
X167932395Y-68320259D01*
X167576649Y-68390779D01*
X167269712Y-68536533D01*
X167074410Y-68721035D01*
X166995896Y-68838868D01*
X166952979Y-68958180D01*
X166943089Y-69120544D01*
X166963657Y-69367531D01*
X167011611Y-69737035D01*
X167043221Y-70043477D01*
X167074742Y-70485296D01*
X167104468Y-71028545D01*
X167130693Y-71639275D01*
X167151713Y-72283539D01*
X167162489Y-72740048D01*
X167205868Y-74956562D01*
X166988216Y-75174214D01*
X166802136Y-75321261D01*
X166634720Y-75393219D01*
X166618549Y-75394559D01*
X166359167Y-75471954D01*
X166168199Y-75669995D01*
X166048955Y-75953011D01*
X166004742Y-76285332D01*
X166038871Y-76631288D01*
X166154650Y-76955206D01*
X166355388Y-77221416D01*
X166442555Y-77291727D01*
X166676146Y-77380578D01*
X167015349Y-77419193D01*
X167403557Y-77405891D01*
X167784161Y-77338990D01*
X167808898Y-77332300D01*
X168060059Y-77220865D01*
X168343664Y-77035542D01*
X168494060Y-76910951D01*
X168852857Y-76580223D01*
X169056695Y-76798435D01*
X169478392Y-77134017D01*
X170028313Y-77387955D01*
X170683481Y-77554837D01*
X171420917Y-77629252D01*
X172217641Y-77605786D01*
X172402502Y-77586490D01*
X173221960Y-77413693D01*
X173945057Y-77102669D01*
X174566851Y-76657727D01*
X175082398Y-76083177D01*
X175486756Y-75383327D01*
X175745294Y-74672200D01*
X175811425Y-74321262D01*
X175853165Y-73856653D01*
X175871067Y-73324460D01*
X175868122Y-73021200D01*
X173153931Y-73021200D01*
X173149874Y-73470817D01*
X173132156Y-73796477D01*
X173094515Y-74043394D01*
X173030688Y-74256784D01*
X172959072Y-74428212D01*
X172718350Y-74843748D01*
X172417522Y-75188397D01*
X172094182Y-75422576D01*
X171961933Y-75478078D01*
X171653264Y-75528082D01*
X171270956Y-75524155D01*
X170887375Y-75472917D01*
X170574888Y-75380985D01*
X170502664Y-75344609D01*
X170302114Y-75175807D01*
X170105614Y-74933809D01*
X170052754Y-74849159D01*
X169983777Y-74719632D01*
X169933019Y-74589874D01*
X169897674Y-74432258D01*
X169874938Y-74219154D01*
X169862006Y-73922937D01*
X169856073Y-73515977D01*
X169854334Y-72970647D01*
X169854274Y-72894200D01*
X169855020Y-72329693D01*
X169859863Y-71907574D01*
X169871418Y-71600904D01*
X169892301Y-71382744D01*
X169925125Y-71226154D01*
X169972506Y-71104196D01*
X170037060Y-70989931D01*
X170039517Y-70985975D01*
X170344302Y-70642245D01*
X170732092Y-70421373D01*
X171168554Y-70324128D01*
X171619356Y-70351282D01*
X172050165Y-70503602D01*
X172426647Y-70781859D01*
X172555088Y-70929580D01*
X172810335Y-71302947D01*
X172984477Y-71666791D01*
X173090830Y-72067619D01*
X173142710Y-72551937D01*
X173153931Y-73021200D01*
X175868122Y-73021200D01*
X175865689Y-72770770D01*
X175837584Y-72241670D01*
X175787309Y-71783246D01*
X175715418Y-71441586D01*
X175706018Y-71412533D01*
X175337578Y-70553657D01*
X174862031Y-69824611D01*
X174281232Y-69227106D01*
X173597034Y-68762855D01*
X172811291Y-68433571D01*
X172350867Y-68313629D01*
X171605387Y-68221132D01*
X170902147Y-68261558D01*
G36*
X115954200Y-76364177D02*
G01*
X115707812Y-76542617D01*
X115562252Y-76806506D01*
X115539533Y-76976888D01*
X115591324Y-77331950D01*
X115760289Y-77583970D01*
X115961172Y-77719323D01*
X116276894Y-77830222D01*
X116576797Y-77804545D01*
X116694641Y-77763246D01*
X116964941Y-77579421D01*
X117109974Y-77322616D01*
X117132529Y-77030641D01*
X117035399Y-76741308D01*
X116821373Y-76492427D01*
X116590851Y-76357145D01*
X116261764Y-76294562D01*
X115954200Y-76364177D01*
G37*
X115954200Y-76364177D02*
X115707812Y-76542617D01*
X115562252Y-76806506D01*
X115539533Y-76976888D01*
X115591324Y-77331950D01*
X115760289Y-77583970D01*
X115961172Y-77719323D01*
X116276894Y-77830222D01*
X116576797Y-77804545D01*
X116694641Y-77763246D01*
X116964941Y-77579421D01*
X117109974Y-77322616D01*
X117132529Y-77030641D01*
X117035399Y-76741308D01*
X116821373Y-76492427D01*
X116590851Y-76357145D01*
X116261764Y-76294562D01*
X115954200Y-76364177D01*
G36*
X180829985Y-67903684D02*
G01*
X179995485Y-68069115D01*
X179224210Y-68374998D01*
X178531389Y-68810097D01*
X177932250Y-69363176D01*
X177442023Y-70023001D01*
X177075937Y-70778335D01*
X176880360Y-71454867D01*
X176754673Y-72406480D01*
X176776119Y-73328726D01*
X176940182Y-74203966D01*
X177242346Y-75014562D01*
X177678096Y-75742875D01*
X178105385Y-76240072D01*
X178665900Y-76722963D01*
X179264509Y-77075952D01*
X179952243Y-77327082D01*
X180198302Y-77390236D01*
X180694399Y-77466067D01*
X181293594Y-77495167D01*
X181936936Y-77479934D01*
X182565474Y-77422764D01*
X183120258Y-77326057D01*
X183357533Y-77261735D01*
X183633931Y-77174109D01*
X183835134Y-77111057D01*
X183918692Y-77085877D01*
X183918928Y-77085847D01*
X183923555Y-77166324D01*
X183930428Y-77392205D01*
X183938979Y-77739586D01*
X183948641Y-78184562D01*
X183958848Y-78703226D01*
X183964042Y-78986339D01*
X183975511Y-79600827D01*
X183986769Y-80069096D01*
X184000457Y-80414235D01*
X184019214Y-80659335D01*
X184045681Y-80827486D01*
X184082499Y-80941778D01*
X184132306Y-81025300D01*
X184197743Y-81101143D01*
X184206981Y-81111050D01*
X184420805Y-81303217D01*
X184643127Y-81452864D01*
X184644496Y-81453578D01*
X184918958Y-81535034D01*
X185284597Y-81566185D01*
X185671178Y-81547910D01*
X186008467Y-81481090D01*
X186126253Y-81435023D01*
X186231577Y-81384651D01*
X186321387Y-81336742D01*
X186396774Y-81278292D01*
X186458829Y-81196293D01*
X186508644Y-81077739D01*
X186547310Y-80909625D01*
X186575919Y-80678945D01*
X186595562Y-80372691D01*
X186607330Y-79977859D01*
X186612316Y-79481442D01*
X186611609Y-78870435D01*
X186606302Y-78131830D01*
X186597486Y-77252622D01*
X186586253Y-76219805D01*
X186583705Y-75983654D01*
X186574992Y-75070508D01*
X186568760Y-74198028D01*
X186567340Y-73891282D01*
X183805585Y-73891282D01*
X183803627Y-74315861D01*
X183793199Y-74654487D01*
X183773449Y-74875669D01*
X183755621Y-74940893D01*
X183630582Y-75032331D01*
X183382258Y-75138746D01*
X183054118Y-75245666D01*
X182689629Y-75338621D01*
X182393417Y-75394379D01*
X181859238Y-75429574D01*
X181322999Y-75385117D01*
X180859818Y-75267833D01*
X180817533Y-75251182D01*
X180349557Y-74969054D01*
X179973235Y-74549642D01*
X179694990Y-74001980D01*
X179543663Y-73459193D01*
X179469507Y-72792985D01*
X179502213Y-72140079D01*
X179633372Y-71530788D01*
X179854576Y-70995428D01*
X180157417Y-70564311D01*
X180407467Y-70344930D01*
X180612152Y-70217988D01*
X180812844Y-70139963D01*
X181065865Y-70096193D01*
X181427535Y-70072014D01*
X181461378Y-70070549D01*
X181843015Y-70062462D01*
X182120345Y-70083301D01*
X182357322Y-70142957D01*
X182611726Y-70248466D01*
X183102151Y-70539225D01*
X183480793Y-70897598D01*
X183653510Y-71157844D01*
X183687047Y-71302328D01*
X183718064Y-71581301D01*
X183745710Y-71963270D01*
X183769135Y-72416744D01*
X183787489Y-72910232D01*
X183799923Y-73412242D01*
X183805585Y-73891282D01*
X186567340Y-73891282D01*
X186564985Y-73382700D01*
X186563648Y-72641004D01*
X186564728Y-71989425D01*
X186568202Y-71444444D01*
X186574051Y-71022545D01*
X186582253Y-70740211D01*
X186590552Y-70625517D01*
X186714509Y-70210817D01*
X186909040Y-69868004D01*
X187107074Y-69533061D01*
X187155687Y-69241872D01*
X187052900Y-68954957D01*
X186850034Y-68690501D01*
X186458582Y-68344099D01*
X186043199Y-68155514D01*
X185677446Y-68110533D01*
X185466664Y-68135749D01*
X185277171Y-68231716D01*
X185052523Y-68428912D01*
X185011057Y-68470367D01*
X184800548Y-68695462D01*
X184631729Y-68898082D01*
X184561999Y-68999533D01*
X184497423Y-69096030D01*
X184424998Y-69103143D01*
X184300410Y-69009908D01*
X184188502Y-68907134D01*
X183637065Y-68471768D01*
X183041426Y-68165376D01*
X182366104Y-67973383D01*
X181712481Y-67889939D01*
X180829985Y-67903684D01*
G37*
X180829985Y-67903684D02*
X179995485Y-68069115D01*
X179224210Y-68374998D01*
X178531389Y-68810097D01*
X177932250Y-69363176D01*
X177442023Y-70023001D01*
X177075937Y-70778335D01*
X176880360Y-71454867D01*
X176754673Y-72406480D01*
X176776119Y-73328726D01*
X176940182Y-74203966D01*
X177242346Y-75014562D01*
X177678096Y-75742875D01*
X178105385Y-76240072D01*
X178665900Y-76722963D01*
X179264509Y-77075952D01*
X179952243Y-77327082D01*
X180198302Y-77390236D01*
X180694399Y-77466067D01*
X181293594Y-77495167D01*
X181936936Y-77479934D01*
X182565474Y-77422764D01*
X183120258Y-77326057D01*
X183357533Y-77261735D01*
X183633931Y-77174109D01*
X183835134Y-77111057D01*
X183918692Y-77085877D01*
X183918928Y-77085847D01*
X183923555Y-77166324D01*
X183930428Y-77392205D01*
X183938979Y-77739586D01*
X183948641Y-78184562D01*
X183958848Y-78703226D01*
X183964042Y-78986339D01*
X183975511Y-79600827D01*
X183986769Y-80069096D01*
X184000457Y-80414235D01*
X184019214Y-80659335D01*
X184045681Y-80827486D01*
X184082499Y-80941778D01*
X184132306Y-81025300D01*
X184197743Y-81101143D01*
X184206981Y-81111050D01*
X184420805Y-81303217D01*
X184643127Y-81452864D01*
X184644496Y-81453578D01*
X184918958Y-81535034D01*
X185284597Y-81566185D01*
X185671178Y-81547910D01*
X186008467Y-81481090D01*
X186126253Y-81435023D01*
X186231577Y-81384651D01*
X186321387Y-81336742D01*
X186396774Y-81278292D01*
X186458829Y-81196293D01*
X186508644Y-81077739D01*
X186547310Y-80909625D01*
X186575919Y-80678945D01*
X186595562Y-80372691D01*
X186607330Y-79977859D01*
X186612316Y-79481442D01*
X186611609Y-78870435D01*
X186606302Y-78131830D01*
X186597486Y-77252622D01*
X186586253Y-76219805D01*
X186583705Y-75983654D01*
X186574992Y-75070508D01*
X186568760Y-74198028D01*
X186567340Y-73891282D01*
X183805585Y-73891282D01*
X183803627Y-74315861D01*
X183793199Y-74654487D01*
X183773449Y-74875669D01*
X183755621Y-74940893D01*
X183630582Y-75032331D01*
X183382258Y-75138746D01*
X183054118Y-75245666D01*
X182689629Y-75338621D01*
X182393417Y-75394379D01*
X181859238Y-75429574D01*
X181322999Y-75385117D01*
X180859818Y-75267833D01*
X180817533Y-75251182D01*
X180349557Y-74969054D01*
X179973235Y-74549642D01*
X179694990Y-74001980D01*
X179543663Y-73459193D01*
X179469507Y-72792985D01*
X179502213Y-72140079D01*
X179633372Y-71530788D01*
X179854576Y-70995428D01*
X180157417Y-70564311D01*
X180407467Y-70344930D01*
X180612152Y-70217988D01*
X180812844Y-70139963D01*
X181065865Y-70096193D01*
X181427535Y-70072014D01*
X181461378Y-70070549D01*
X181843015Y-70062462D01*
X182120345Y-70083301D01*
X182357322Y-70142957D01*
X182611726Y-70248466D01*
X183102151Y-70539225D01*
X183480793Y-70897598D01*
X183653510Y-71157844D01*
X183687047Y-71302328D01*
X183718064Y-71581301D01*
X183745710Y-71963270D01*
X183769135Y-72416744D01*
X183787489Y-72910232D01*
X183799923Y-73412242D01*
X183805585Y-73891282D01*
X186567340Y-73891282D01*
X186564985Y-73382700D01*
X186563648Y-72641004D01*
X186564728Y-71989425D01*
X186568202Y-71444444D01*
X186574051Y-71022545D01*
X186582253Y-70740211D01*
X186590552Y-70625517D01*
X186714509Y-70210817D01*
X186909040Y-69868004D01*
X187107074Y-69533061D01*
X187155687Y-69241872D01*
X187052900Y-68954957D01*
X186850034Y-68690501D01*
X186458582Y-68344099D01*
X186043199Y-68155514D01*
X185677446Y-68110533D01*
X185466664Y-68135749D01*
X185277171Y-68231716D01*
X185052523Y-68428912D01*
X185011057Y-68470367D01*
X184800548Y-68695462D01*
X184631729Y-68898082D01*
X184561999Y-68999533D01*
X184497423Y-69096030D01*
X184424998Y-69103143D01*
X184300410Y-69009908D01*
X184188502Y-68907134D01*
X183637065Y-68471768D01*
X183041426Y-68165376D01*
X182366104Y-67973383D01*
X181712481Y-67889939D01*
X180829985Y-67903684D01*
G36*
X130089756Y-67958093D02*
G01*
X129681392Y-68108094D01*
X129379124Y-68337613D01*
X129204958Y-68631845D01*
X129170867Y-68851988D01*
X129197756Y-69108383D01*
X129276669Y-69515697D01*
X129404979Y-70064581D01*
X129580057Y-70745682D01*
X129799273Y-71549650D01*
X130060000Y-72467134D01*
X130359608Y-73488783D01*
X130695469Y-74605245D01*
X131064954Y-75807171D01*
X131465434Y-77085208D01*
X131640050Y-77635533D01*
X131950579Y-78605077D01*
X132217965Y-79425382D01*
X132447509Y-80109468D01*
X132644511Y-80670353D01*
X132814272Y-81121055D01*
X132962093Y-81474591D01*
X133093273Y-81743981D01*
X133213112Y-81942243D01*
X133326913Y-82082395D01*
X133439973Y-82177455D01*
X133504918Y-82215834D01*
X133867889Y-82319890D01*
X134295276Y-82313048D01*
X134726417Y-82198554D01*
X134846760Y-82144033D01*
X135211033Y-81882428D01*
X135429448Y-81544857D01*
X135494473Y-81144584D01*
X135484048Y-81022200D01*
X135443709Y-80849472D01*
X135354717Y-80543503D01*
X135225422Y-80130502D01*
X135064174Y-79636677D01*
X134879324Y-79088237D01*
X134732474Y-78663286D01*
X134026912Y-76643038D01*
X134471535Y-76222532D01*
X134951275Y-75695512D01*
X135435005Y-75027725D01*
X135908770Y-74246787D01*
X136358615Y-73380311D01*
X136770588Y-72455910D01*
X137130732Y-71501199D01*
X137425095Y-70543793D01*
X137511586Y-70206628D01*
X137601750Y-69796585D01*
X137672622Y-69402200D01*
X137714666Y-69080507D01*
X137722091Y-68947451D01*
X137654270Y-68542031D01*
X137454188Y-68238929D01*
X137127301Y-68041933D01*
X136679063Y-67954830D01*
X136301171Y-67960841D01*
X136009362Y-68006570D01*
X135787878Y-68105207D01*
X135617033Y-68281902D01*
X135477143Y-68561806D01*
X135348523Y-68970068D01*
X135270972Y-69277075D01*
X135075601Y-70020268D01*
X134843268Y-70788479D01*
X134591788Y-71528029D01*
X134338980Y-72185240D01*
X134198576Y-72507950D01*
X134032509Y-72835479D01*
X133834157Y-73177425D01*
X133625685Y-73501175D01*
X133429262Y-73774118D01*
X133267056Y-73963640D01*
X133161233Y-74037129D01*
X133159103Y-74037200D01*
X133120101Y-73958792D01*
X133045124Y-73738008D01*
X132940224Y-73396505D01*
X132811454Y-72955943D01*
X132664867Y-72437979D01*
X132506515Y-71864271D01*
X132342451Y-71256479D01*
X132178727Y-70636259D01*
X132021396Y-70025272D01*
X131881423Y-69465200D01*
X131735134Y-68911147D01*
X131595821Y-68503221D01*
X131445703Y-68220036D01*
X131267001Y-68040204D01*
X131041934Y-67942338D01*
X130752722Y-67905051D01*
X130582212Y-67902415D01*
X130089756Y-67958093D01*
G37*
X130089756Y-67958093D02*
X129681392Y-68108094D01*
X129379124Y-68337613D01*
X129204958Y-68631845D01*
X129170867Y-68851988D01*
X129197756Y-69108383D01*
X129276669Y-69515697D01*
X129404979Y-70064581D01*
X129580057Y-70745682D01*
X129799273Y-71549650D01*
X130060000Y-72467134D01*
X130359608Y-73488783D01*
X130695469Y-74605245D01*
X131064954Y-75807171D01*
X131465434Y-77085208D01*
X131640050Y-77635533D01*
X131950579Y-78605077D01*
X132217965Y-79425382D01*
X132447509Y-80109468D01*
X132644511Y-80670353D01*
X132814272Y-81121055D01*
X132962093Y-81474591D01*
X133093273Y-81743981D01*
X133213112Y-81942243D01*
X133326913Y-82082395D01*
X133439973Y-82177455D01*
X133504918Y-82215834D01*
X133867889Y-82319890D01*
X134295276Y-82313048D01*
X134726417Y-82198554D01*
X134846760Y-82144033D01*
X135211033Y-81882428D01*
X135429448Y-81544857D01*
X135494473Y-81144584D01*
X135484048Y-81022200D01*
X135443709Y-80849472D01*
X135354717Y-80543503D01*
X135225422Y-80130502D01*
X135064174Y-79636677D01*
X134879324Y-79088237D01*
X134732474Y-78663286D01*
X134026912Y-76643038D01*
X134471535Y-76222532D01*
X134951275Y-75695512D01*
X135435005Y-75027725D01*
X135908770Y-74246787D01*
X136358615Y-73380311D01*
X136770588Y-72455910D01*
X137130732Y-71501199D01*
X137425095Y-70543793D01*
X137511586Y-70206628D01*
X137601750Y-69796585D01*
X137672622Y-69402200D01*
X137714666Y-69080507D01*
X137722091Y-68947451D01*
X137654270Y-68542031D01*
X137454188Y-68238929D01*
X137127301Y-68041933D01*
X136679063Y-67954830D01*
X136301171Y-67960841D01*
X136009362Y-68006570D01*
X135787878Y-68105207D01*
X135617033Y-68281902D01*
X135477143Y-68561806D01*
X135348523Y-68970068D01*
X135270972Y-69277075D01*
X135075601Y-70020268D01*
X134843268Y-70788479D01*
X134591788Y-71528029D01*
X134338980Y-72185240D01*
X134198576Y-72507950D01*
X134032509Y-72835479D01*
X133834157Y-73177425D01*
X133625685Y-73501175D01*
X133429262Y-73774118D01*
X133267056Y-73963640D01*
X133161233Y-74037129D01*
X133159103Y-74037200D01*
X133120101Y-73958792D01*
X133045124Y-73738008D01*
X132940224Y-73396505D01*
X132811454Y-72955943D01*
X132664867Y-72437979D01*
X132506515Y-71864271D01*
X132342451Y-71256479D01*
X132178727Y-70636259D01*
X132021396Y-70025272D01*
X131881423Y-69465200D01*
X131735134Y-68911147D01*
X131595821Y-68503221D01*
X131445703Y-68220036D01*
X131267001Y-68040204D01*
X131041934Y-67942338D01*
X130752722Y-67905051D01*
X130582212Y-67902415D01*
X130089756Y-67958093D01*
D12*
X26826100Y-35716900D02*
X26826100Y-38256900D01*
X24286100Y-20476900D02*
X24286100Y-38256900D01*
X24286100Y-38256900D02*
X57306100Y-38256900D01*
X57306100Y-38256900D02*
X57306100Y-20476900D01*
X57306100Y-20476900D02*
X24286100Y-20476900D01*
D13*
G36*
X32715130Y-23522265D02*
G01*
X32815130Y-23522265D01*
X32815130Y-23022265D01*
X32715130Y-23022265D01*
X32715130Y-23522265D01*
G37*
X32715130Y-23522265D02*
X32815130Y-23522265D01*
X32815130Y-23022265D01*
X32715130Y-23022265D01*
X32715130Y-23522265D01*
G36*
X32715130Y-23522265D02*
G01*
X33015130Y-23522265D01*
X33015130Y-23422265D01*
X32715130Y-23422265D01*
X32715130Y-23522265D01*
G37*
X32715130Y-23522265D02*
X33015130Y-23522265D01*
X33015130Y-23422265D01*
X32715130Y-23422265D01*
X32715130Y-23522265D01*
G36*
X33315130Y-23522265D02*
G01*
X33515130Y-23522265D01*
X33515130Y-23422265D01*
X33315130Y-23422265D01*
X33315130Y-23522265D01*
G37*
X33315130Y-23522265D02*
X33515130Y-23522265D01*
X33515130Y-23422265D01*
X33315130Y-23422265D01*
X33315130Y-23522265D01*
G36*
X32715130Y-23122265D02*
G01*
X33515130Y-23122265D01*
X33515130Y-23022265D01*
X32715130Y-23022265D01*
X32715130Y-23122265D01*
G37*
X32715130Y-23122265D02*
X33515130Y-23122265D01*
X33515130Y-23022265D01*
X32715130Y-23022265D01*
X32715130Y-23122265D01*
G36*
X33115130Y-23322265D02*
G01*
X33215130Y-23322265D01*
X33215130Y-23222265D01*
X33115130Y-23222265D01*
X33115130Y-23322265D01*
G37*
X33115130Y-23322265D02*
X33215130Y-23322265D01*
X33215130Y-23222265D01*
X33115130Y-23222265D01*
X33115130Y-23322265D01*
D12*
X26826100Y-35716900D02*
X29366100Y-35716900D01*
X29366100Y-35716900D02*
X29366100Y-38256900D01*
D14*
X74401500Y-58927500D02*
X74401500Y-62827500D01*
X76401500Y-58927500D02*
X76401500Y-62827500D01*
X74401500Y-58927500D02*
X76401500Y-58927500D01*
X155358900Y-20829900D02*
X155358900Y-24729900D01*
X157358900Y-20829900D02*
X157358900Y-24729900D01*
X155358900Y-20829900D02*
X157358900Y-20829900D01*
X93450300Y-58864900D02*
X93450300Y-62764900D01*
X95450300Y-58864900D02*
X95450300Y-62764900D01*
X93450300Y-58864900D02*
X95450300Y-58864900D01*
X79163700Y-77851100D02*
X79163700Y-81751100D01*
X81163700Y-77851100D02*
X81163700Y-81751100D01*
X79163700Y-77851100D02*
X81163700Y-77851100D01*
X79163700Y-20767300D02*
X79163700Y-24667300D01*
X81163700Y-20767300D02*
X81163700Y-24667300D01*
X79163700Y-20767300D02*
X81163700Y-20767300D01*
X131547900Y-58802300D02*
X131547900Y-62702300D01*
X133547900Y-58802300D02*
X133547900Y-62702300D01*
X131547900Y-58802300D02*
X133547900Y-58802300D01*
X174407700Y-20829900D02*
X174407700Y-24729900D01*
X176407700Y-20829900D02*
X176407700Y-24729900D01*
X174407700Y-20829900D02*
X176407700Y-20829900D01*
X52984200Y-23604700D02*
X49084200Y-23604700D01*
X52984200Y-25604700D02*
X49084200Y-25604700D01*
X52984200Y-23604700D02*
X52984200Y-25604700D01*
X136310100Y-20829900D02*
X136310100Y-24729900D01*
X138310100Y-20829900D02*
X138310100Y-24729900D01*
X136310100Y-20829900D02*
X138310100Y-20829900D01*
X133929000Y-77851100D02*
X133929000Y-81751100D01*
X135929000Y-77851100D02*
X135929000Y-81751100D01*
X133929000Y-77851100D02*
X135929000Y-77851100D01*
X250602900Y-77976300D02*
X250602900Y-81876300D01*
X252602900Y-77976300D02*
X252602900Y-81876300D01*
X250602900Y-77976300D02*
X252602900Y-77976300D01*
X181551000Y-77913700D02*
X181551000Y-81813700D01*
X183551000Y-77913700D02*
X183551000Y-81813700D01*
X181551000Y-77913700D02*
X183551000Y-77913700D01*
X245840700Y-58927500D02*
X245840700Y-62827500D01*
X247840700Y-58927500D02*
X247840700Y-62827500D01*
X245840700Y-58927500D02*
X247840700Y-58927500D01*
X55352700Y-58864900D02*
X55352700Y-62764900D01*
X57352700Y-58864900D02*
X57352700Y-62764900D01*
X55352700Y-58864900D02*
X57352700Y-58864900D01*
X236316300Y-39753500D02*
X236316300Y-43653500D01*
X238316300Y-39753500D02*
X238316300Y-43653500D01*
X236316300Y-39753500D02*
X238316300Y-39753500D01*
X83925900Y-39753500D02*
X83925900Y-43653500D01*
X85925900Y-39753500D02*
X85925900Y-43653500D01*
X83925900Y-39753500D02*
X85925900Y-39753500D01*
X117198700Y-20829900D02*
X117198700Y-24729900D01*
X119198700Y-20829900D02*
X119198700Y-24729900D01*
X117198700Y-20829900D02*
X119198700Y-20829900D01*
X255365100Y-39753500D02*
X255365100Y-43653500D01*
X257365100Y-39753500D02*
X257365100Y-43653500D01*
X255365100Y-39753500D02*
X257365100Y-39753500D01*
X60114900Y-20767300D02*
X60114900Y-24667300D01*
X62114900Y-20767300D02*
X62114900Y-24667300D01*
X60114900Y-20767300D02*
X62114900Y-20767300D01*
X231554100Y-20829900D02*
X231554100Y-24729900D01*
X233554100Y-20829900D02*
X233554100Y-24729900D01*
X231554100Y-20829900D02*
X233554100Y-20829900D01*
X212505300Y-20829900D02*
X212505300Y-24729900D01*
X214505300Y-20829900D02*
X214505300Y-24729900D01*
X212505300Y-20829900D02*
X214505300Y-20829900D01*
X169645500Y-58802300D02*
X169645500Y-62702300D01*
X171645500Y-58802300D02*
X171645500Y-62702300D01*
X169645500Y-58802300D02*
X171645500Y-58802300D01*
X212505300Y-77976300D02*
X212505300Y-81876300D01*
X214505300Y-77976300D02*
X214505300Y-81876300D01*
X212505300Y-77976300D02*
X214505300Y-77976300D01*
X188694300Y-58802300D02*
X188694300Y-62702300D01*
X190694300Y-58802300D02*
X190694300Y-62702300D01*
X188694300Y-58802300D02*
X190694300Y-58802300D01*
X217267500Y-39753500D02*
X217267500Y-43653500D01*
X219267500Y-39753500D02*
X219267500Y-43653500D01*
X217267500Y-39753500D02*
X219267500Y-39753500D01*
X198218700Y-39753500D02*
X198218700Y-43653500D01*
X200218700Y-39753500D02*
X200218700Y-43653500D01*
X198218700Y-39753500D02*
X200218700Y-39753500D01*
X179169900Y-39753500D02*
X179169900Y-43653500D01*
X181169900Y-39753500D02*
X181169900Y-43653500D01*
X179169900Y-39753500D02*
X181169900Y-39753500D01*
X193456500Y-20829900D02*
X193456500Y-24729900D01*
X195456500Y-20829900D02*
X195456500Y-24729900D01*
X193456500Y-20829900D02*
X195456500Y-20829900D01*
X160121100Y-39816100D02*
X160121100Y-43716100D01*
X162121100Y-39816100D02*
X162121100Y-43716100D01*
X160121100Y-39816100D02*
X162121100Y-39816100D01*
X141072300Y-39753500D02*
X141072300Y-43653500D01*
X143072300Y-39753500D02*
X143072300Y-43653500D01*
X141072300Y-39753500D02*
X143072300Y-39753500D01*
X122023500Y-39753500D02*
X122023500Y-43653500D01*
X124023500Y-39753500D02*
X124023500Y-43653500D01*
X122023500Y-39753500D02*
X124023500Y-39753500D01*
X230760400Y-77913700D02*
X230760400Y-81813700D01*
X232760400Y-77913700D02*
X232760400Y-81813700D01*
X230760400Y-77913700D02*
X232760400Y-77913700D01*
X98212500Y-20704700D02*
X98212500Y-24604700D01*
X100212500Y-20704700D02*
X100212500Y-24604700D01*
X98212500Y-20704700D02*
X100212500Y-20704700D01*
X226791900Y-58802300D02*
X226791900Y-62702300D01*
X228791900Y-58802300D02*
X228791900Y-62702300D01*
X226791900Y-58802300D02*
X228791900Y-58802300D01*
X102974700Y-39753500D02*
X102974700Y-43653500D01*
X104974700Y-39753500D02*
X104974700Y-43653500D01*
X102974700Y-39753500D02*
X104974700Y-39753500D01*
X45828300Y-39816100D02*
X45828300Y-43716100D01*
X47828300Y-39816100D02*
X47828300Y-43716100D01*
X45828300Y-39816100D02*
X47828300Y-39816100D01*
X60114900Y-77913700D02*
X60114900Y-81813700D01*
X62114900Y-77913700D02*
X62114900Y-81813700D01*
X60114900Y-77913700D02*
X62114900Y-77913700D01*
X207743100Y-58802300D02*
X207743100Y-62702300D01*
X209743100Y-58802300D02*
X209743100Y-62702300D01*
X207743100Y-58802300D02*
X209743100Y-58802300D01*
X112499100Y-58802300D02*
X112499100Y-62702300D01*
X114499100Y-58802300D02*
X114499100Y-62702300D01*
X112499100Y-58802300D02*
X114499100Y-58802300D01*
X250602900Y-20829900D02*
X250602900Y-24729900D01*
X252602900Y-20829900D02*
X252602900Y-24729900D01*
X250602900Y-20829900D02*
X252602900Y-20829900D01*
X150596700Y-58864900D02*
X150596700Y-62764900D01*
X152596700Y-58864900D02*
X152596700Y-62764900D01*
X150596700Y-58864900D02*
X152596700Y-58864900D01*
X98212500Y-77851100D02*
X98212500Y-81751100D01*
X100212500Y-77851100D02*
X100212500Y-81751100D01*
X98212500Y-77851100D02*
X100212500Y-77851100D01*
X64877100Y-39753500D02*
X64877100Y-43653500D01*
X66877100Y-39753500D02*
X66877100Y-43653500D01*
X64877100Y-39753500D02*
X66877100Y-39753500D01*
X264889500Y-58802300D02*
X264889500Y-62702300D01*
X266889500Y-58802300D02*
X266889500Y-62702300D01*
X264889500Y-58802300D02*
X266889500Y-58802300D01*
D13*
X33479909Y-23793566D02*
X33518004Y-23907852D01*
X33518004Y-24098328D01*
X33479909Y-24174519D01*
X33441814Y-24212614D01*
X33365623Y-24250709D01*
X33289433Y-24250709D01*
X33213242Y-24212614D01*
X33175147Y-24174519D01*
X33137052Y-24098328D01*
X33098957Y-23945947D01*
X33060861Y-23869757D01*
X33022766Y-23831661D01*
X32946576Y-23793566D01*
X32870385Y-23793566D01*
X32794195Y-23831661D01*
X32756100Y-23869757D01*
X32718004Y-23945947D01*
X32718004Y-24136423D01*
X32756100Y-24250709D01*
X32718004Y-24479280D02*
X32718004Y-24936423D01*
X33518004Y-24707852D02*
X32718004Y-24707852D01*
X27658004Y-30748295D02*
X27658004Y-31205438D01*
X28458004Y-30976867D02*
X27658004Y-30976867D01*
X27658004Y-31395914D02*
X28458004Y-31929248D01*
X27658004Y-31929248D02*
X28458004Y-31395914D01*
X27658004Y-32386391D02*
X27658004Y-32462581D01*
X27696100Y-32538772D01*
X27734195Y-32576867D01*
X27810385Y-32614962D01*
X27962766Y-32653057D01*
X28153242Y-32653057D01*
X28305623Y-32614962D01*
X28381814Y-32576867D01*
X28419909Y-32538772D01*
X28458004Y-32462581D01*
X28458004Y-32386391D01*
X28419909Y-32310200D01*
X28381814Y-32272105D01*
X28305623Y-32234010D01*
X28153242Y-32195914D01*
X27962766Y-32195914D01*
X27810385Y-32234010D01*
X27734195Y-32272105D01*
X27696100Y-32310200D01*
X27658004Y-32386391D01*
X27619909Y-33567343D02*
X28648480Y-32881629D01*
X28458004Y-33834010D02*
X27658004Y-33834010D01*
X27658004Y-34024486D01*
X27696100Y-34138772D01*
X27772290Y-34214962D01*
X27848480Y-34253057D01*
X28000861Y-34291152D01*
X28115147Y-34291152D01*
X28267528Y-34253057D01*
X28343719Y-34214962D01*
X28419909Y-34138772D01*
X28458004Y-34024486D01*
X28458004Y-33834010D01*
X27658004Y-34557819D02*
X27658004Y-35053057D01*
X27962766Y-34786391D01*
X27962766Y-34900676D01*
X28000861Y-34976867D01*
X28038957Y-35014962D01*
X28115147Y-35053057D01*
X28305623Y-35053057D01*
X28381814Y-35014962D01*
X28419909Y-34976867D01*
X28458004Y-34900676D01*
X28458004Y-34672105D01*
X28419909Y-34595914D01*
X28381814Y-34557819D01*
X53438957Y-23582090D02*
X53477052Y-23696376D01*
X53515147Y-23734471D01*
X53591338Y-23772566D01*
X53705623Y-23772566D01*
X53781814Y-23734471D01*
X53819909Y-23696376D01*
X53858004Y-23620185D01*
X53858004Y-23315423D01*
X53058004Y-23315423D01*
X53058004Y-23582090D01*
X53096100Y-23658280D01*
X53134195Y-23696376D01*
X53210385Y-23734471D01*
X53286576Y-23734471D01*
X53362766Y-23696376D01*
X53400861Y-23658280D01*
X53438957Y-23582090D01*
X53438957Y-23315423D01*
X53134195Y-24077328D02*
X53096100Y-24115423D01*
X53058004Y-24191614D01*
X53058004Y-24382090D01*
X53096100Y-24458280D01*
X53134195Y-24496376D01*
X53210385Y-24534471D01*
X53286576Y-24534471D01*
X53400861Y-24496376D01*
X53858004Y-24039233D01*
X53858004Y-24534471D01*
X45818957Y-23639233D02*
X45818957Y-23372566D01*
X46238004Y-23372566D02*
X45438004Y-23372566D01*
X45438004Y-23753519D01*
X45438004Y-23982090D02*
X45438004Y-24515423D01*
X46238004Y-24172566D01*
X43278957Y-23639233D02*
X43278957Y-23372566D01*
X43698004Y-23372566D02*
X42898004Y-23372566D01*
X42898004Y-23753519D01*
X42898004Y-24401138D02*
X42898004Y-24248757D01*
X42936100Y-24172566D01*
X42974195Y-24134471D01*
X43088480Y-24058280D01*
X43240861Y-24020185D01*
X43545623Y-24020185D01*
X43621814Y-24058280D01*
X43659909Y-24096376D01*
X43698004Y-24172566D01*
X43698004Y-24324947D01*
X43659909Y-24401138D01*
X43621814Y-24439233D01*
X43545623Y-24477328D01*
X43355147Y-24477328D01*
X43278957Y-24439233D01*
X43240861Y-24401138D01*
X43202766Y-24324947D01*
X43202766Y-24172566D01*
X43240861Y-24096376D01*
X43278957Y-24058280D01*
X43355147Y-24020185D01*
X40738957Y-23639233D02*
X40738957Y-23372566D01*
X41158004Y-23372566D02*
X40358004Y-23372566D01*
X40358004Y-23753519D01*
X40358004Y-24439233D02*
X40358004Y-24058280D01*
X40738957Y-24020185D01*
X40700861Y-24058280D01*
X40662766Y-24134471D01*
X40662766Y-24324947D01*
X40700861Y-24401138D01*
X40738957Y-24439233D01*
X40815147Y-24477328D01*
X41005623Y-24477328D01*
X41081814Y-24439233D01*
X41119909Y-24401138D01*
X41158004Y-24324947D01*
X41158004Y-24134471D01*
X41119909Y-24058280D01*
X41081814Y-24020185D01*
X28458004Y-23353519D02*
X28077052Y-23086852D01*
X28458004Y-22896376D02*
X27658004Y-22896376D01*
X27658004Y-23201138D01*
X27696100Y-23277328D01*
X27734195Y-23315423D01*
X27810385Y-23353519D01*
X27924671Y-23353519D01*
X28000861Y-23315423D01*
X28038957Y-23277328D01*
X28077052Y-23201138D01*
X28077052Y-22896376D01*
X28229433Y-23658280D02*
X28229433Y-24039233D01*
X28458004Y-23582090D02*
X27658004Y-23848757D01*
X28458004Y-24115423D01*
X27658004Y-24305900D02*
X28458004Y-24496376D01*
X27886576Y-24648757D01*
X28458004Y-24801138D01*
X27658004Y-24991614D01*
X30236100Y-23296376D02*
X30198004Y-23220185D01*
X30198004Y-23105900D01*
X30236100Y-22991614D01*
X30312290Y-22915423D01*
X30388480Y-22877328D01*
X30540861Y-22839233D01*
X30655147Y-22839233D01*
X30807528Y-22877328D01*
X30883719Y-22915423D01*
X30959909Y-22991614D01*
X30998004Y-23105900D01*
X30998004Y-23182090D01*
X30959909Y-23296376D01*
X30921814Y-23334471D01*
X30655147Y-23334471D01*
X30655147Y-23182090D01*
X30998004Y-23677328D02*
X30198004Y-23677328D01*
X30998004Y-24134471D01*
X30198004Y-24134471D01*
X30998004Y-24515423D02*
X30198004Y-24515423D01*
X30198004Y-24705900D01*
X30236100Y-24820185D01*
X30312290Y-24896376D01*
X30388480Y-24934471D01*
X30540861Y-24972566D01*
X30655147Y-24972566D01*
X30807528Y-24934471D01*
X30883719Y-24896376D01*
X30959909Y-24820185D01*
X30998004Y-24705900D01*
X30998004Y-24515423D01*
X35278004Y-22839233D02*
X36078004Y-23105900D01*
X35278004Y-23372566D01*
X36001814Y-24096376D02*
X36039909Y-24058280D01*
X36078004Y-23943995D01*
X36078004Y-23867804D01*
X36039909Y-23753519D01*
X35963719Y-23677328D01*
X35887528Y-23639233D01*
X35735147Y-23601138D01*
X35620861Y-23601138D01*
X35468480Y-23639233D01*
X35392290Y-23677328D01*
X35316100Y-23753519D01*
X35278004Y-23867804D01*
X35278004Y-23943995D01*
X35316100Y-24058280D01*
X35354195Y-24096376D01*
X36001814Y-24896376D02*
X36039909Y-24858280D01*
X36078004Y-24743995D01*
X36078004Y-24667804D01*
X36039909Y-24553519D01*
X35963719Y-24477328D01*
X35887528Y-24439233D01*
X35735147Y-24401138D01*
X35620861Y-24401138D01*
X35468480Y-24439233D01*
X35392290Y-24477328D01*
X35316100Y-24553519D01*
X35278004Y-24667804D01*
X35278004Y-24743995D01*
X35316100Y-24858280D01*
X35354195Y-24896376D01*
X38198957Y-23639233D02*
X38198957Y-23372566D01*
X38618004Y-23372566D02*
X37818004Y-23372566D01*
X37818004Y-23753519D01*
X38084671Y-24401138D02*
X38618004Y-24401138D01*
X37779909Y-24210661D02*
X38351338Y-24020185D01*
X38351338Y-24515423D01*
X48358957Y-23582090D02*
X48397052Y-23696376D01*
X48435147Y-23734471D01*
X48511338Y-23772566D01*
X48625623Y-23772566D01*
X48701814Y-23734471D01*
X48739909Y-23696376D01*
X48778004Y-23620185D01*
X48778004Y-23315423D01*
X47978004Y-23315423D01*
X47978004Y-23582090D01*
X48016100Y-23658280D01*
X48054195Y-23696376D01*
X48130385Y-23734471D01*
X48206576Y-23734471D01*
X48282766Y-23696376D01*
X48320861Y-23658280D01*
X48358957Y-23582090D01*
X48358957Y-23315423D01*
X48778004Y-24534471D02*
X48778004Y-24077328D01*
X48778004Y-24305900D02*
X47978004Y-24305900D01*
X48092290Y-24229709D01*
X48168480Y-24153519D01*
X48206576Y-24077328D01*
X50898957Y-23582090D02*
X50937052Y-23696376D01*
X50975147Y-23734471D01*
X51051338Y-23772566D01*
X51165623Y-23772566D01*
X51241814Y-23734471D01*
X51279909Y-23696376D01*
X51318004Y-23620185D01*
X51318004Y-23315423D01*
X50518004Y-23315423D01*
X50518004Y-23582090D01*
X50556100Y-23658280D01*
X50594195Y-23696376D01*
X50670385Y-23734471D01*
X50746576Y-23734471D01*
X50822766Y-23696376D01*
X50860861Y-23658280D01*
X50898957Y-23582090D01*
X50898957Y-23315423D01*
X50518004Y-24039233D02*
X50518004Y-24534471D01*
X50822766Y-24267804D01*
X50822766Y-24382090D01*
X50860861Y-24458280D01*
X50898957Y-24496376D01*
X50975147Y-24534471D01*
X51165623Y-24534471D01*
X51241814Y-24496376D01*
X51279909Y-24458280D01*
X51318004Y-24382090D01*
X51318004Y-24153519D01*
X51279909Y-24077328D01*
X51241814Y-24039233D01*
X55978957Y-23582090D02*
X56017052Y-23696376D01*
X56055147Y-23734471D01*
X56131338Y-23772566D01*
X56245623Y-23772566D01*
X56321814Y-23734471D01*
X56359909Y-23696376D01*
X56398004Y-23620185D01*
X56398004Y-23315423D01*
X55598004Y-23315423D01*
X55598004Y-23582090D01*
X55636100Y-23658280D01*
X55674195Y-23696376D01*
X55750385Y-23734471D01*
X55826576Y-23734471D01*
X55902766Y-23696376D01*
X55940861Y-23658280D01*
X55978957Y-23582090D01*
X55978957Y-23315423D01*
X55598004Y-24458280D02*
X55598004Y-24305900D01*
X55636100Y-24229709D01*
X55674195Y-24191614D01*
X55788480Y-24115423D01*
X55940861Y-24077328D01*
X56245623Y-24077328D01*
X56321814Y-24115423D01*
X56359909Y-24153519D01*
X56398004Y-24229709D01*
X56398004Y-24382090D01*
X56359909Y-24458280D01*
X56321814Y-24496376D01*
X56245623Y-24534471D01*
X56055147Y-24534471D01*
X55978957Y-24496376D01*
X55940861Y-24458280D01*
X55902766Y-24382090D01*
X55902766Y-24229709D01*
X55940861Y-24153519D01*
X55978957Y-24115423D01*
X56055147Y-24077328D01*
X55978957Y-34504090D02*
X56017052Y-34618376D01*
X56055147Y-34656471D01*
X56131338Y-34694566D01*
X56245623Y-34694566D01*
X56321814Y-34656471D01*
X56359909Y-34618376D01*
X56398004Y-34542185D01*
X56398004Y-34237423D01*
X55598004Y-34237423D01*
X55598004Y-34504090D01*
X55636100Y-34580280D01*
X55674195Y-34618376D01*
X55750385Y-34656471D01*
X55826576Y-34656471D01*
X55902766Y-34618376D01*
X55940861Y-34580280D01*
X55978957Y-34504090D01*
X55978957Y-34237423D01*
X55598004Y-35418376D02*
X55598004Y-35037423D01*
X55978957Y-34999328D01*
X55940861Y-35037423D01*
X55902766Y-35113614D01*
X55902766Y-35304090D01*
X55940861Y-35380280D01*
X55978957Y-35418376D01*
X56055147Y-35456471D01*
X56245623Y-35456471D01*
X56321814Y-35418376D01*
X56359909Y-35380280D01*
X56398004Y-35304090D01*
X56398004Y-35113614D01*
X56359909Y-35037423D01*
X56321814Y-34999328D01*
X53438957Y-34504090D02*
X53477052Y-34618376D01*
X53515147Y-34656471D01*
X53591338Y-34694566D01*
X53705623Y-34694566D01*
X53781814Y-34656471D01*
X53819909Y-34618376D01*
X53858004Y-34542185D01*
X53858004Y-34237423D01*
X53058004Y-34237423D01*
X53058004Y-34504090D01*
X53096100Y-34580280D01*
X53134195Y-34618376D01*
X53210385Y-34656471D01*
X53286576Y-34656471D01*
X53362766Y-34618376D01*
X53400861Y-34580280D01*
X53438957Y-34504090D01*
X53438957Y-34237423D01*
X53324671Y-35380280D02*
X53858004Y-35380280D01*
X53019909Y-35189804D02*
X53591338Y-34999328D01*
X53591338Y-35494566D01*
X50898957Y-34275519D02*
X50898957Y-34542185D01*
X51318004Y-34656471D02*
X51318004Y-34275519D01*
X50518004Y-34275519D01*
X50518004Y-34656471D01*
X50518004Y-35342185D02*
X50518004Y-35189804D01*
X50556100Y-35113614D01*
X50594195Y-35075519D01*
X50708480Y-34999328D01*
X50860861Y-34961233D01*
X51165623Y-34961233D01*
X51241814Y-34999328D01*
X51279909Y-35037423D01*
X51318004Y-35113614D01*
X51318004Y-35265995D01*
X51279909Y-35342185D01*
X51241814Y-35380280D01*
X51165623Y-35418376D01*
X50975147Y-35418376D01*
X50898957Y-35380280D01*
X50860861Y-35342185D01*
X50822766Y-35265995D01*
X50822766Y-35113614D01*
X50860861Y-35037423D01*
X50898957Y-34999328D01*
X50975147Y-34961233D01*
X48778004Y-34237423D02*
X47978004Y-34237423D01*
X47978004Y-34427900D01*
X48016100Y-34542185D01*
X48092290Y-34618376D01*
X48168480Y-34656471D01*
X48320861Y-34694566D01*
X48435147Y-34694566D01*
X48587528Y-34656471D01*
X48663719Y-34618376D01*
X48739909Y-34542185D01*
X48778004Y-34427900D01*
X48778004Y-34237423D01*
X47978004Y-34961233D02*
X47978004Y-35494566D01*
X48778004Y-35151709D01*
X46161814Y-34694566D02*
X46199909Y-34656471D01*
X46238004Y-34542185D01*
X46238004Y-34465995D01*
X46199909Y-34351709D01*
X46123719Y-34275519D01*
X46047528Y-34237423D01*
X45895147Y-34199328D01*
X45780861Y-34199328D01*
X45628480Y-34237423D01*
X45552290Y-34275519D01*
X45476100Y-34351709D01*
X45438004Y-34465995D01*
X45438004Y-34542185D01*
X45476100Y-34656471D01*
X45514195Y-34694566D01*
X45438004Y-35380280D02*
X45438004Y-35227900D01*
X45476100Y-35151709D01*
X45514195Y-35113614D01*
X45628480Y-35037423D01*
X45780861Y-34999328D01*
X46085623Y-34999328D01*
X46161814Y-35037423D01*
X46199909Y-35075519D01*
X46238004Y-35151709D01*
X46238004Y-35304090D01*
X46199909Y-35380280D01*
X46161814Y-35418376D01*
X46085623Y-35456471D01*
X45895147Y-35456471D01*
X45818957Y-35418376D01*
X45780861Y-35380280D01*
X45742766Y-35304090D01*
X45742766Y-35151709D01*
X45780861Y-35075519D01*
X45818957Y-35037423D01*
X45895147Y-34999328D01*
X43698004Y-34237423D02*
X42898004Y-34237423D01*
X42898004Y-34427900D01*
X42936100Y-34542185D01*
X43012290Y-34618376D01*
X43088480Y-34656471D01*
X43240861Y-34694566D01*
X43355147Y-34694566D01*
X43507528Y-34656471D01*
X43583719Y-34618376D01*
X43659909Y-34542185D01*
X43698004Y-34427900D01*
X43698004Y-34237423D01*
X43164671Y-35380280D02*
X43698004Y-35380280D01*
X42859909Y-35189804D02*
X43431338Y-34999328D01*
X43431338Y-35494566D01*
X32776100Y-34218376D02*
X32738004Y-34142185D01*
X32738004Y-34027900D01*
X32776100Y-33913614D01*
X32852290Y-33837423D01*
X32928480Y-33799328D01*
X33080861Y-33761233D01*
X33195147Y-33761233D01*
X33347528Y-33799328D01*
X33423719Y-33837423D01*
X33499909Y-33913614D01*
X33538004Y-34027900D01*
X33538004Y-34104090D01*
X33499909Y-34218376D01*
X33461814Y-34256471D01*
X33195147Y-34256471D01*
X33195147Y-34104090D01*
X33538004Y-34599328D02*
X32738004Y-34599328D01*
X33538004Y-35056471D01*
X32738004Y-35056471D01*
X33538004Y-35437423D02*
X32738004Y-35437423D01*
X32738004Y-35627900D01*
X32776100Y-35742185D01*
X32852290Y-35818376D01*
X32928480Y-35856471D01*
X33080861Y-35894566D01*
X33195147Y-35894566D01*
X33347528Y-35856471D01*
X33423719Y-35818376D01*
X33499909Y-35742185D01*
X33538004Y-35627900D01*
X33538004Y-35437423D01*
X35316100Y-34218376D02*
X35278004Y-34142185D01*
X35278004Y-34027900D01*
X35316100Y-33913614D01*
X35392290Y-33837423D01*
X35468480Y-33799328D01*
X35620861Y-33761233D01*
X35735147Y-33761233D01*
X35887528Y-33799328D01*
X35963719Y-33837423D01*
X36039909Y-33913614D01*
X36078004Y-34027900D01*
X36078004Y-34104090D01*
X36039909Y-34218376D01*
X36001814Y-34256471D01*
X35735147Y-34256471D01*
X35735147Y-34104090D01*
X36078004Y-34599328D02*
X35278004Y-34599328D01*
X36078004Y-35056471D01*
X35278004Y-35056471D01*
X36078004Y-35437423D02*
X35278004Y-35437423D01*
X35278004Y-35627900D01*
X35316100Y-35742185D01*
X35392290Y-35818376D01*
X35468480Y-35856471D01*
X35620861Y-35894566D01*
X35735147Y-35894566D01*
X35887528Y-35856471D01*
X35963719Y-35818376D01*
X36039909Y-35742185D01*
X36078004Y-35627900D01*
X36078004Y-35437423D01*
X38618004Y-34237423D02*
X37818004Y-34237423D01*
X37818004Y-34427900D01*
X37856100Y-34542185D01*
X37932290Y-34618376D01*
X38008480Y-34656471D01*
X38160861Y-34694566D01*
X38275147Y-34694566D01*
X38427528Y-34656471D01*
X38503719Y-34618376D01*
X38579909Y-34542185D01*
X38618004Y-34427900D01*
X38618004Y-34237423D01*
X38618004Y-35456471D02*
X38618004Y-34999328D01*
X38618004Y-35227900D02*
X37818004Y-35227900D01*
X37932290Y-35151709D01*
X38008480Y-35075519D01*
X38046576Y-34999328D01*
X41158004Y-34237423D02*
X40358004Y-34237423D01*
X40358004Y-34427900D01*
X40396100Y-34542185D01*
X40472290Y-34618376D01*
X40548480Y-34656471D01*
X40700861Y-34694566D01*
X40815147Y-34694566D01*
X40967528Y-34656471D01*
X41043719Y-34618376D01*
X41119909Y-34542185D01*
X41158004Y-34427900D01*
X41158004Y-34237423D01*
X40358004Y-35189804D02*
X40358004Y-35265995D01*
X40396100Y-35342185D01*
X40434195Y-35380280D01*
X40510385Y-35418376D01*
X40662766Y-35456471D01*
X40853242Y-35456471D01*
X41005623Y-35418376D01*
X41081814Y-35380280D01*
X41119909Y-35342185D01*
X41158004Y-35265995D01*
X41158004Y-35189804D01*
X41119909Y-35113614D01*
X41081814Y-35075519D01*
X41005623Y-35037423D01*
X40853242Y-34999328D01*
X40662766Y-34999328D01*
X40510385Y-35037423D01*
X40434195Y-35075519D01*
X40396100Y-35113614D01*
X40358004Y-35189804D01*
X30998004Y-34237423D02*
X30198004Y-34237423D01*
X30198004Y-34427900D01*
X30236100Y-34542185D01*
X30312290Y-34618376D01*
X30388480Y-34656471D01*
X30540861Y-34694566D01*
X30655147Y-34694566D01*
X30807528Y-34656471D01*
X30883719Y-34618376D01*
X30959909Y-34542185D01*
X30998004Y-34427900D01*
X30998004Y-34237423D01*
X30274195Y-34999328D02*
X30236100Y-35037423D01*
X30198004Y-35113614D01*
X30198004Y-35304090D01*
X30236100Y-35380280D01*
X30274195Y-35418376D01*
X30350385Y-35456471D01*
X30426576Y-35456471D01*
X30540861Y-35418376D01*
X30998004Y-34961233D01*
X30998004Y-35456471D01*
X73853880Y-59582261D02*
X72853880Y-59582261D01*
X72853880Y-59820357D01*
X72901500Y-59963214D01*
X72996738Y-60058452D01*
X73091976Y-60106071D01*
X73282452Y-60153690D01*
X73425309Y-60153690D01*
X73615785Y-60106071D01*
X73711023Y-60058452D01*
X73806261Y-59963214D01*
X73853880Y-59820357D01*
X73853880Y-59582261D01*
X73949119Y-60344166D02*
X73949119Y-61106071D01*
X72853880Y-61248928D02*
X72853880Y-61915595D01*
X73853880Y-61248928D01*
X73853880Y-61915595D01*
X73853880Y-62820357D02*
X73853880Y-62248928D01*
X73853880Y-62534642D02*
X72853880Y-62534642D01*
X72996738Y-62439404D01*
X73091976Y-62344166D01*
X73139595Y-62248928D01*
X154811280Y-21532280D02*
X153811280Y-21532280D01*
X153811280Y-21770376D01*
X153858900Y-21913233D01*
X153954138Y-22008471D01*
X154049376Y-22056090D01*
X154239852Y-22103709D01*
X154382709Y-22103709D01*
X154573185Y-22056090D01*
X154668423Y-22008471D01*
X154763661Y-21913233D01*
X154811280Y-21770376D01*
X154811280Y-21532280D01*
X154906519Y-22294185D02*
X154906519Y-23056090D01*
X154335090Y-23484661D02*
X154811280Y-23484661D01*
X153811280Y-23151328D02*
X154335090Y-23484661D01*
X153811280Y-23817995D01*
X154811280Y-24675138D02*
X154811280Y-24103709D01*
X154811280Y-24389423D02*
X153811280Y-24389423D01*
X153954138Y-24294185D01*
X154049376Y-24198947D01*
X154096995Y-24103709D01*
X92902680Y-59519661D02*
X91902680Y-59519661D01*
X91902680Y-59757757D01*
X91950300Y-59900614D01*
X92045538Y-59995852D01*
X92140776Y-60043471D01*
X92331252Y-60091090D01*
X92474109Y-60091090D01*
X92664585Y-60043471D01*
X92759823Y-59995852D01*
X92855061Y-59900614D01*
X92902680Y-59757757D01*
X92902680Y-59519661D01*
X92997919Y-60281566D02*
X92997919Y-61043471D01*
X91902680Y-61186328D02*
X92902680Y-61852995D01*
X91902680Y-61852995D02*
X92902680Y-61186328D01*
X92902680Y-62757757D02*
X92902680Y-62186328D01*
X92902680Y-62472042D02*
X91902680Y-62472042D01*
X92045538Y-62376804D01*
X92140776Y-62281566D01*
X92188395Y-62186328D01*
X78616080Y-77648719D02*
X77616080Y-77648719D01*
X77616080Y-77886814D01*
X77663700Y-78029671D01*
X77758938Y-78124909D01*
X77854176Y-78172528D01*
X78044652Y-78220147D01*
X78187509Y-78220147D01*
X78377985Y-78172528D01*
X78473223Y-78124909D01*
X78568461Y-78029671D01*
X78616080Y-77886814D01*
X78616080Y-77648719D01*
X78711319Y-78410623D02*
X78711319Y-79172528D01*
X77616080Y-79315385D02*
X78616080Y-79553480D01*
X77901795Y-79743957D01*
X78616080Y-79934433D01*
X77616080Y-80172528D01*
X78616080Y-80553480D02*
X77616080Y-80553480D01*
X78616080Y-81029671D02*
X77616080Y-81029671D01*
X78616080Y-81601100D01*
X77616080Y-81601100D01*
X78616080Y-82601100D02*
X78616080Y-82029671D01*
X78616080Y-82315385D02*
X77616080Y-82315385D01*
X77758938Y-82220147D01*
X77854176Y-82124909D01*
X77901795Y-82029671D01*
X78616080Y-21326823D02*
X77616080Y-21326823D01*
X77616080Y-21564919D01*
X77663700Y-21707776D01*
X77758938Y-21803014D01*
X77854176Y-21850633D01*
X78044652Y-21898252D01*
X78187509Y-21898252D01*
X78377985Y-21850633D01*
X78473223Y-21803014D01*
X78568461Y-21707776D01*
X78616080Y-21564919D01*
X78616080Y-21326823D01*
X78711319Y-22088728D02*
X78711319Y-22850633D01*
X77616080Y-22993490D02*
X78616080Y-23231585D01*
X77901795Y-23422061D01*
X78616080Y-23612538D01*
X77616080Y-23850633D01*
X78616080Y-24755395D02*
X78616080Y-24183966D01*
X78616080Y-24469680D02*
X77616080Y-24469680D01*
X77758938Y-24374442D01*
X77854176Y-24279204D01*
X77901795Y-24183966D01*
X131000280Y-59504680D02*
X130000280Y-59504680D01*
X130000280Y-59742776D01*
X130047900Y-59885633D01*
X130143138Y-59980871D01*
X130238376Y-60028490D01*
X130428852Y-60076109D01*
X130571709Y-60076109D01*
X130762185Y-60028490D01*
X130857423Y-59980871D01*
X130952661Y-59885633D01*
X131000280Y-59742776D01*
X131000280Y-59504680D01*
X131095519Y-60266585D02*
X131095519Y-61028490D01*
X130000280Y-61123728D02*
X131000280Y-61457061D01*
X130000280Y-61790395D01*
X131000280Y-62647538D02*
X131000280Y-62076109D01*
X131000280Y-62361823D02*
X130000280Y-62361823D01*
X130143138Y-62266585D01*
X130238376Y-62171347D01*
X130285995Y-62076109D01*
X173860080Y-21437042D02*
X172860080Y-21437042D01*
X172860080Y-21675138D01*
X172907700Y-21817995D01*
X173002938Y-21913233D01*
X173098176Y-21960852D01*
X173288652Y-22008471D01*
X173431509Y-22008471D01*
X173621985Y-21960852D01*
X173717223Y-21913233D01*
X173812461Y-21817995D01*
X173860080Y-21675138D01*
X173860080Y-21437042D01*
X173955319Y-22198947D02*
X173955319Y-22960852D01*
X172860080Y-23198947D02*
X173669604Y-23198947D01*
X173764842Y-23246566D01*
X173812461Y-23294185D01*
X173860080Y-23389423D01*
X173860080Y-23579900D01*
X173812461Y-23675138D01*
X173764842Y-23722757D01*
X173669604Y-23770376D01*
X172860080Y-23770376D01*
X173860080Y-24770376D02*
X173860080Y-24198947D01*
X173860080Y-24484661D02*
X172860080Y-24484661D01*
X173002938Y-24389423D01*
X173098176Y-24294185D01*
X173145795Y-24198947D01*
X53162771Y-23057080D02*
X53162771Y-22057080D01*
X52924676Y-22057080D01*
X52781819Y-22104700D01*
X52686580Y-22199938D01*
X52638961Y-22295176D01*
X52591342Y-22485652D01*
X52591342Y-22628509D01*
X52638961Y-22818985D01*
X52686580Y-22914223D01*
X52781819Y-23009461D01*
X52924676Y-23057080D01*
X53162771Y-23057080D01*
X52400866Y-23152319D02*
X51638961Y-23152319D01*
X51543723Y-22057080D02*
X50972295Y-22057080D01*
X51258009Y-23057080D02*
X51258009Y-22057080D01*
X50686580Y-22771366D02*
X50210390Y-22771366D01*
X50781819Y-23057080D02*
X50448485Y-22057080D01*
X50115152Y-23057080D01*
X49448485Y-22533271D02*
X49305628Y-22580890D01*
X49258009Y-22628509D01*
X49210390Y-22723747D01*
X49210390Y-22866604D01*
X49258009Y-22961842D01*
X49305628Y-23009461D01*
X49400866Y-23057080D01*
X49781819Y-23057080D01*
X49781819Y-22057080D01*
X49448485Y-22057080D01*
X49353247Y-22104700D01*
X49305628Y-22152319D01*
X49258009Y-22247557D01*
X49258009Y-22342795D01*
X49305628Y-22438033D01*
X49353247Y-22485652D01*
X49448485Y-22533271D01*
X49781819Y-22533271D01*
X48258009Y-23057080D02*
X48829438Y-23057080D01*
X48543723Y-23057080D02*
X48543723Y-22057080D01*
X48638961Y-22199938D01*
X48734200Y-22295176D01*
X48829438Y-22342795D01*
X135762480Y-21579900D02*
X134762480Y-21579900D01*
X134762480Y-21817995D01*
X134810100Y-21960852D01*
X134905338Y-22056090D01*
X135000576Y-22103709D01*
X135191052Y-22151328D01*
X135333909Y-22151328D01*
X135524385Y-22103709D01*
X135619623Y-22056090D01*
X135714861Y-21960852D01*
X135762480Y-21817995D01*
X135762480Y-21579900D01*
X135857719Y-22341804D02*
X135857719Y-23103709D01*
X134762480Y-23198947D02*
X134762480Y-23770376D01*
X135762480Y-23484661D02*
X134762480Y-23484661D01*
X135762480Y-24627519D02*
X135762480Y-24056090D01*
X135762480Y-24341804D02*
X134762480Y-24341804D01*
X134905338Y-24246566D01*
X135000576Y-24151328D01*
X135048195Y-24056090D01*
X133381380Y-76624909D02*
X132381380Y-76624909D01*
X132381380Y-76863004D01*
X132429000Y-77005861D01*
X132524238Y-77101100D01*
X132619476Y-77148719D01*
X132809952Y-77196338D01*
X132952809Y-77196338D01*
X133143285Y-77148719D01*
X133238523Y-77101100D01*
X133333761Y-77005861D01*
X133381380Y-76863004D01*
X133381380Y-76624909D01*
X133476619Y-77386814D02*
X133476619Y-78148719D01*
X133333761Y-78339195D02*
X133381380Y-78482052D01*
X133381380Y-78720147D01*
X133333761Y-78815385D01*
X133286142Y-78863004D01*
X133190904Y-78910623D01*
X133095666Y-78910623D01*
X133000428Y-78863004D01*
X132952809Y-78815385D01*
X132905190Y-78720147D01*
X132857571Y-78529671D01*
X132809952Y-78434433D01*
X132762333Y-78386814D01*
X132667095Y-78339195D01*
X132571857Y-78339195D01*
X132476619Y-78386814D01*
X132429000Y-78434433D01*
X132381380Y-78529671D01*
X132381380Y-78767766D01*
X132429000Y-78910623D01*
X133381380Y-79339195D02*
X132381380Y-79339195D01*
X132381380Y-79720147D01*
X132429000Y-79815385D01*
X132476619Y-79863004D01*
X132571857Y-79910623D01*
X132714714Y-79910623D01*
X132809952Y-79863004D01*
X132857571Y-79815385D01*
X132905190Y-79720147D01*
X132905190Y-79339195D01*
X133095666Y-80291576D02*
X133095666Y-80767766D01*
X133381380Y-80196338D02*
X132381380Y-80529671D01*
X133381380Y-80863004D01*
X133286142Y-81767766D02*
X133333761Y-81720147D01*
X133381380Y-81577290D01*
X133381380Y-81482052D01*
X133333761Y-81339195D01*
X133238523Y-81243957D01*
X133143285Y-81196338D01*
X132952809Y-81148719D01*
X132809952Y-81148719D01*
X132619476Y-81196338D01*
X132524238Y-81243957D01*
X132429000Y-81339195D01*
X132381380Y-81482052D01*
X132381380Y-81577290D01*
X132429000Y-81720147D01*
X132476619Y-81767766D01*
X132857571Y-82196338D02*
X132857571Y-82529671D01*
X133381380Y-82672528D02*
X133381380Y-82196338D01*
X132381380Y-82196338D01*
X132381380Y-82672528D01*
X132381380Y-83005861D02*
X132381380Y-83624909D01*
X132762333Y-83291576D01*
X132762333Y-83434433D01*
X132809952Y-83529671D01*
X132857571Y-83577290D01*
X132952809Y-83624909D01*
X133190904Y-83624909D01*
X133286142Y-83577290D01*
X133333761Y-83529671D01*
X133381380Y-83434433D01*
X133381380Y-83148719D01*
X133333761Y-83053480D01*
X133286142Y-83005861D01*
X250055280Y-76750109D02*
X249055280Y-76750109D01*
X249055280Y-76988204D01*
X249102900Y-77131061D01*
X249198138Y-77226300D01*
X249293376Y-77273919D01*
X249483852Y-77321538D01*
X249626709Y-77321538D01*
X249817185Y-77273919D01*
X249912423Y-77226300D01*
X250007661Y-77131061D01*
X250055280Y-76988204D01*
X250055280Y-76750109D01*
X250150519Y-77512014D02*
X250150519Y-78273919D01*
X250007661Y-78464395D02*
X250055280Y-78607252D01*
X250055280Y-78845347D01*
X250007661Y-78940585D01*
X249960042Y-78988204D01*
X249864804Y-79035823D01*
X249769566Y-79035823D01*
X249674328Y-78988204D01*
X249626709Y-78940585D01*
X249579090Y-78845347D01*
X249531471Y-78654871D01*
X249483852Y-78559633D01*
X249436233Y-78512014D01*
X249340995Y-78464395D01*
X249245757Y-78464395D01*
X249150519Y-78512014D01*
X249102900Y-78559633D01*
X249055280Y-78654871D01*
X249055280Y-78892966D01*
X249102900Y-79035823D01*
X250055280Y-79464395D02*
X249055280Y-79464395D01*
X249055280Y-79845347D01*
X249102900Y-79940585D01*
X249150519Y-79988204D01*
X249245757Y-80035823D01*
X249388614Y-80035823D01*
X249483852Y-79988204D01*
X249531471Y-79940585D01*
X249579090Y-79845347D01*
X249579090Y-79464395D01*
X249769566Y-80416776D02*
X249769566Y-80892966D01*
X250055280Y-80321538D02*
X249055280Y-80654871D01*
X250055280Y-80988204D01*
X249960042Y-81892966D02*
X250007661Y-81845347D01*
X250055280Y-81702490D01*
X250055280Y-81607252D01*
X250007661Y-81464395D01*
X249912423Y-81369157D01*
X249817185Y-81321538D01*
X249626709Y-81273919D01*
X249483852Y-81273919D01*
X249293376Y-81321538D01*
X249198138Y-81369157D01*
X249102900Y-81464395D01*
X249055280Y-81607252D01*
X249055280Y-81702490D01*
X249102900Y-81845347D01*
X249150519Y-81892966D01*
X249531471Y-82321538D02*
X249531471Y-82654871D01*
X250055280Y-82797728D02*
X250055280Y-82321538D01*
X249055280Y-82321538D01*
X249055280Y-82797728D01*
X249150519Y-83178680D02*
X249102900Y-83226300D01*
X249055280Y-83321538D01*
X249055280Y-83559633D01*
X249102900Y-83654871D01*
X249150519Y-83702490D01*
X249245757Y-83750109D01*
X249340995Y-83750109D01*
X249483852Y-83702490D01*
X250055280Y-83131061D01*
X250055280Y-83750109D01*
X181003380Y-76687509D02*
X180003380Y-76687509D01*
X180003380Y-76925604D01*
X180051000Y-77068461D01*
X180146238Y-77163700D01*
X180241476Y-77211319D01*
X180431952Y-77258938D01*
X180574809Y-77258938D01*
X180765285Y-77211319D01*
X180860523Y-77163700D01*
X180955761Y-77068461D01*
X181003380Y-76925604D01*
X181003380Y-76687509D01*
X181098619Y-77449414D02*
X181098619Y-78211319D01*
X180955761Y-78401795D02*
X181003380Y-78544652D01*
X181003380Y-78782747D01*
X180955761Y-78877985D01*
X180908142Y-78925604D01*
X180812904Y-78973223D01*
X180717666Y-78973223D01*
X180622428Y-78925604D01*
X180574809Y-78877985D01*
X180527190Y-78782747D01*
X180479571Y-78592271D01*
X180431952Y-78497033D01*
X180384333Y-78449414D01*
X180289095Y-78401795D01*
X180193857Y-78401795D01*
X180098619Y-78449414D01*
X180051000Y-78497033D01*
X180003380Y-78592271D01*
X180003380Y-78830366D01*
X180051000Y-78973223D01*
X181003380Y-79401795D02*
X180003380Y-79401795D01*
X180003380Y-79782747D01*
X180051000Y-79877985D01*
X180098619Y-79925604D01*
X180193857Y-79973223D01*
X180336714Y-79973223D01*
X180431952Y-79925604D01*
X180479571Y-79877985D01*
X180527190Y-79782747D01*
X180527190Y-79401795D01*
X180717666Y-80354176D02*
X180717666Y-80830366D01*
X181003380Y-80258938D02*
X180003380Y-80592271D01*
X181003380Y-80925604D01*
X180908142Y-81830366D02*
X180955761Y-81782747D01*
X181003380Y-81639890D01*
X181003380Y-81544652D01*
X180955761Y-81401795D01*
X180860523Y-81306557D01*
X180765285Y-81258938D01*
X180574809Y-81211319D01*
X180431952Y-81211319D01*
X180241476Y-81258938D01*
X180146238Y-81306557D01*
X180051000Y-81401795D01*
X180003380Y-81544652D01*
X180003380Y-81639890D01*
X180051000Y-81782747D01*
X180098619Y-81830366D01*
X180479571Y-82258938D02*
X180479571Y-82592271D01*
X181003380Y-82735128D02*
X181003380Y-82258938D01*
X180003380Y-82258938D01*
X180003380Y-82735128D01*
X181003380Y-83687509D02*
X181003380Y-83116080D01*
X181003380Y-83401795D02*
X180003380Y-83401795D01*
X180146238Y-83306557D01*
X180241476Y-83211319D01*
X180289095Y-83116080D01*
X245293080Y-57748928D02*
X244293080Y-57748928D01*
X244293080Y-57987023D01*
X244340700Y-58129880D01*
X244435938Y-58225119D01*
X244531176Y-58272738D01*
X244721652Y-58320357D01*
X244864509Y-58320357D01*
X245054985Y-58272738D01*
X245150223Y-58225119D01*
X245245461Y-58129880D01*
X245293080Y-57987023D01*
X245293080Y-57748928D01*
X245388319Y-58510833D02*
X245388319Y-59272738D01*
X245245461Y-59463214D02*
X245293080Y-59606071D01*
X245293080Y-59844166D01*
X245245461Y-59939404D01*
X245197842Y-59987023D01*
X245102604Y-60034642D01*
X245007366Y-60034642D01*
X244912128Y-59987023D01*
X244864509Y-59939404D01*
X244816890Y-59844166D01*
X244769271Y-59653690D01*
X244721652Y-59558452D01*
X244674033Y-59510833D01*
X244578795Y-59463214D01*
X244483557Y-59463214D01*
X244388319Y-59510833D01*
X244340700Y-59558452D01*
X244293080Y-59653690D01*
X244293080Y-59891785D01*
X244340700Y-60034642D01*
X245293080Y-60939404D02*
X245293080Y-60463214D01*
X244293080Y-60463214D01*
X245007366Y-61225119D02*
X245007366Y-61701309D01*
X245293080Y-61129880D02*
X244293080Y-61463214D01*
X245293080Y-61796547D01*
X245245461Y-62082261D02*
X245293080Y-62225119D01*
X245293080Y-62463214D01*
X245245461Y-62558452D01*
X245197842Y-62606071D01*
X245102604Y-62653690D01*
X245007366Y-62653690D01*
X244912128Y-62606071D01*
X244864509Y-62558452D01*
X244816890Y-62463214D01*
X244769271Y-62272738D01*
X244721652Y-62177500D01*
X244674033Y-62129880D01*
X244578795Y-62082261D01*
X244483557Y-62082261D01*
X244388319Y-62129880D01*
X244340700Y-62177500D01*
X244293080Y-62272738D01*
X244293080Y-62510833D01*
X244340700Y-62653690D01*
X245293080Y-63082261D02*
X244293080Y-63082261D01*
X244769271Y-63082261D02*
X244769271Y-63653690D01*
X245293080Y-63653690D02*
X244293080Y-63653690D01*
X245293080Y-64653690D02*
X245293080Y-64082261D01*
X245293080Y-64367976D02*
X244293080Y-64367976D01*
X244435938Y-64272738D01*
X244531176Y-64177500D01*
X244578795Y-64082261D01*
X54805080Y-57948233D02*
X53805080Y-57948233D01*
X53805080Y-58186328D01*
X53852700Y-58329185D01*
X53947938Y-58424423D01*
X54043176Y-58472042D01*
X54233652Y-58519661D01*
X54376509Y-58519661D01*
X54566985Y-58472042D01*
X54662223Y-58424423D01*
X54757461Y-58329185D01*
X54805080Y-58186328D01*
X54805080Y-57948233D01*
X54900319Y-58710138D02*
X54900319Y-59472042D01*
X54757461Y-59662519D02*
X54805080Y-59805376D01*
X54805080Y-60043471D01*
X54757461Y-60138709D01*
X54709842Y-60186328D01*
X54614604Y-60233947D01*
X54519366Y-60233947D01*
X54424128Y-60186328D01*
X54376509Y-60138709D01*
X54328890Y-60043471D01*
X54281271Y-59852995D01*
X54233652Y-59757757D01*
X54186033Y-59710138D01*
X54090795Y-59662519D01*
X53995557Y-59662519D01*
X53900319Y-59710138D01*
X53852700Y-59757757D01*
X53805080Y-59852995D01*
X53805080Y-60091090D01*
X53852700Y-60233947D01*
X54805080Y-60662519D02*
X53805080Y-60662519D01*
X54281271Y-60662519D02*
X54281271Y-61233947D01*
X54805080Y-61233947D02*
X53805080Y-61233947D01*
X54805080Y-61710138D02*
X53805080Y-61710138D01*
X54281271Y-62519661D02*
X54281271Y-62186328D01*
X54805080Y-62186328D02*
X53805080Y-62186328D01*
X53805080Y-62662519D01*
X53805080Y-62900614D02*
X53805080Y-63472042D01*
X54805080Y-63186328D02*
X53805080Y-63186328D01*
X54805080Y-64329185D02*
X54805080Y-63757757D01*
X54805080Y-64043471D02*
X53805080Y-64043471D01*
X53947938Y-63948233D01*
X54043176Y-63852995D01*
X54090795Y-63757757D01*
X235768680Y-38646357D02*
X234768680Y-38646357D01*
X234768680Y-38884452D01*
X234816300Y-39027309D01*
X234911538Y-39122547D01*
X235006776Y-39170166D01*
X235197252Y-39217785D01*
X235340109Y-39217785D01*
X235530585Y-39170166D01*
X235625823Y-39122547D01*
X235721061Y-39027309D01*
X235768680Y-38884452D01*
X235768680Y-38646357D01*
X235863919Y-39408261D02*
X235863919Y-40170166D01*
X235721061Y-40360642D02*
X235768680Y-40503500D01*
X235768680Y-40741595D01*
X235721061Y-40836833D01*
X235673442Y-40884452D01*
X235578204Y-40932071D01*
X235482966Y-40932071D01*
X235387728Y-40884452D01*
X235340109Y-40836833D01*
X235292490Y-40741595D01*
X235244871Y-40551119D01*
X235197252Y-40455880D01*
X235149633Y-40408261D01*
X235054395Y-40360642D01*
X234959157Y-40360642D01*
X234863919Y-40408261D01*
X234816300Y-40455880D01*
X234768680Y-40551119D01*
X234768680Y-40789214D01*
X234816300Y-40932071D01*
X235244871Y-41360642D02*
X235244871Y-41693976D01*
X235768680Y-41836833D02*
X235768680Y-41360642D01*
X234768680Y-41360642D01*
X234768680Y-41836833D01*
X235768680Y-42265404D02*
X234768680Y-42265404D01*
X235482966Y-42598738D01*
X234768680Y-42932071D01*
X235768680Y-42932071D01*
X235768680Y-43408261D02*
X234768680Y-43408261D01*
X235673442Y-44455880D02*
X235721061Y-44408261D01*
X235768680Y-44265404D01*
X235768680Y-44170166D01*
X235721061Y-44027309D01*
X235625823Y-43932071D01*
X235530585Y-43884452D01*
X235340109Y-43836833D01*
X235197252Y-43836833D01*
X235006776Y-43884452D01*
X234911538Y-43932071D01*
X234816300Y-44027309D01*
X234768680Y-44170166D01*
X234768680Y-44265404D01*
X234816300Y-44408261D01*
X234863919Y-44455880D01*
X235768680Y-45408261D02*
X235768680Y-44836833D01*
X235768680Y-45122547D02*
X234768680Y-45122547D01*
X234911538Y-45027309D01*
X235006776Y-44932071D01*
X235054395Y-44836833D01*
X83378280Y-40408261D02*
X82378280Y-40408261D01*
X82378280Y-40646357D01*
X82425900Y-40789214D01*
X82521138Y-40884452D01*
X82616376Y-40932071D01*
X82806852Y-40979690D01*
X82949709Y-40979690D01*
X83140185Y-40932071D01*
X83235423Y-40884452D01*
X83330661Y-40789214D01*
X83378280Y-40646357D01*
X83378280Y-40408261D01*
X83473519Y-41170166D02*
X83473519Y-41932071D01*
X83330661Y-42122547D02*
X83378280Y-42265404D01*
X83378280Y-42503500D01*
X83330661Y-42598738D01*
X83283042Y-42646357D01*
X83187804Y-42693976D01*
X83092566Y-42693976D01*
X82997328Y-42646357D01*
X82949709Y-42598738D01*
X82902090Y-42503500D01*
X82854471Y-42313023D01*
X82806852Y-42217785D01*
X82759233Y-42170166D01*
X82663995Y-42122547D01*
X82568757Y-42122547D01*
X82473519Y-42170166D01*
X82425900Y-42217785D01*
X82378280Y-42313023D01*
X82378280Y-42551119D01*
X82425900Y-42693976D01*
X83378280Y-43646357D02*
X83378280Y-43074928D01*
X83378280Y-43360642D02*
X82378280Y-43360642D01*
X82521138Y-43265404D01*
X82616376Y-43170166D01*
X82663995Y-43074928D01*
X116651080Y-21460852D02*
X115651080Y-21460852D01*
X115651080Y-21698947D01*
X115698700Y-21841804D01*
X115793938Y-21937042D01*
X115889176Y-21984661D01*
X116079652Y-22032280D01*
X116222509Y-22032280D01*
X116412985Y-21984661D01*
X116508223Y-21937042D01*
X116603461Y-21841804D01*
X116651080Y-21698947D01*
X116651080Y-21460852D01*
X116746319Y-22222757D02*
X116746319Y-22984661D01*
X116651080Y-23794185D02*
X116174890Y-23460852D01*
X116651080Y-23222757D02*
X115651080Y-23222757D01*
X115651080Y-23603709D01*
X115698700Y-23698947D01*
X115746319Y-23746566D01*
X115841557Y-23794185D01*
X115984414Y-23794185D01*
X116079652Y-23746566D01*
X116127271Y-23698947D01*
X116174890Y-23603709D01*
X116174890Y-23222757D01*
X116651080Y-24746566D02*
X116651080Y-24175138D01*
X116651080Y-24460852D02*
X115651080Y-24460852D01*
X115793938Y-24365614D01*
X115889176Y-24270376D01*
X115936795Y-24175138D01*
X254817480Y-38479690D02*
X253817480Y-38479690D01*
X253817480Y-38717785D01*
X253865100Y-38860642D01*
X253960338Y-38955880D01*
X254055576Y-39003500D01*
X254246052Y-39051119D01*
X254388909Y-39051119D01*
X254579385Y-39003500D01*
X254674623Y-38955880D01*
X254769861Y-38860642D01*
X254817480Y-38717785D01*
X254817480Y-38479690D01*
X254912719Y-39241595D02*
X254912719Y-40003500D01*
X254912719Y-40908261D02*
X254865100Y-40813023D01*
X254769861Y-40717785D01*
X254627004Y-40574928D01*
X254579385Y-40479690D01*
X254579385Y-40384452D01*
X254817480Y-40432071D02*
X254769861Y-40336833D01*
X254674623Y-40241595D01*
X254484147Y-40193976D01*
X254150814Y-40193976D01*
X253960338Y-40241595D01*
X253865100Y-40336833D01*
X253817480Y-40432071D01*
X253817480Y-40622547D01*
X253865100Y-40717785D01*
X253960338Y-40813023D01*
X254150814Y-40860642D01*
X254484147Y-40860642D01*
X254674623Y-40813023D01*
X254769861Y-40717785D01*
X254817480Y-40622547D01*
X254817480Y-40432071D01*
X253817480Y-41289214D02*
X254627004Y-41289214D01*
X254722242Y-41336833D01*
X254769861Y-41384452D01*
X254817480Y-41479690D01*
X254817480Y-41670166D01*
X254769861Y-41765404D01*
X254722242Y-41813023D01*
X254627004Y-41860642D01*
X253817480Y-41860642D01*
X253817480Y-42527309D02*
X253817480Y-42717785D01*
X253865100Y-42813023D01*
X253960338Y-42908261D01*
X254150814Y-42955880D01*
X254484147Y-42955880D01*
X254674623Y-42908261D01*
X254769861Y-42813023D01*
X254817480Y-42717785D01*
X254817480Y-42527309D01*
X254769861Y-42432071D01*
X254674623Y-42336833D01*
X254484147Y-42289214D01*
X254150814Y-42289214D01*
X253960338Y-42336833D01*
X253865100Y-42432071D01*
X253817480Y-42527309D01*
X253817480Y-43241595D02*
X253817480Y-43813023D01*
X254817480Y-43527309D02*
X253817480Y-43527309D01*
X254293671Y-44146357D02*
X254293671Y-44479690D01*
X254817480Y-44622547D02*
X254817480Y-44146357D01*
X253817480Y-44146357D01*
X253817480Y-44622547D01*
X254817480Y-45574928D02*
X254817480Y-45003500D01*
X254817480Y-45289214D02*
X253817480Y-45289214D01*
X253960338Y-45193976D01*
X254055576Y-45098738D01*
X254103195Y-45003500D01*
X59567280Y-21374442D02*
X58567280Y-21374442D01*
X58567280Y-21612538D01*
X58614900Y-21755395D01*
X58710138Y-21850633D01*
X58805376Y-21898252D01*
X58995852Y-21945871D01*
X59138709Y-21945871D01*
X59329185Y-21898252D01*
X59424423Y-21850633D01*
X59519661Y-21755395D01*
X59567280Y-21612538D01*
X59567280Y-21374442D01*
X59662519Y-22136347D02*
X59662519Y-22898252D01*
X59662519Y-23803014D02*
X59614900Y-23707776D01*
X59519661Y-23612538D01*
X59376804Y-23469680D01*
X59329185Y-23374442D01*
X59329185Y-23279204D01*
X59567280Y-23326823D02*
X59519661Y-23231585D01*
X59424423Y-23136347D01*
X59233947Y-23088728D01*
X58900614Y-23088728D01*
X58710138Y-23136347D01*
X58614900Y-23231585D01*
X58567280Y-23326823D01*
X58567280Y-23517300D01*
X58614900Y-23612538D01*
X58710138Y-23707776D01*
X58900614Y-23755395D01*
X59233947Y-23755395D01*
X59424423Y-23707776D01*
X59519661Y-23612538D01*
X59567280Y-23517300D01*
X59567280Y-23326823D01*
X59567280Y-24707776D02*
X59567280Y-24136347D01*
X59567280Y-24422061D02*
X58567280Y-24422061D01*
X58710138Y-24326823D01*
X58805376Y-24231585D01*
X58852995Y-24136347D01*
X231006480Y-21460852D02*
X230006480Y-21460852D01*
X230006480Y-21698947D01*
X230054100Y-21841804D01*
X230149338Y-21937042D01*
X230244576Y-21984661D01*
X230435052Y-22032280D01*
X230577909Y-22032280D01*
X230768385Y-21984661D01*
X230863623Y-21937042D01*
X230958861Y-21841804D01*
X231006480Y-21698947D01*
X231006480Y-21460852D01*
X231101719Y-22222757D02*
X231101719Y-22984661D01*
X231006480Y-23222757D02*
X230006480Y-23222757D01*
X230006480Y-23603709D01*
X230054100Y-23698947D01*
X230101719Y-23746566D01*
X230196957Y-23794185D01*
X230339814Y-23794185D01*
X230435052Y-23746566D01*
X230482671Y-23698947D01*
X230530290Y-23603709D01*
X230530290Y-23222757D01*
X231006480Y-24746566D02*
X231006480Y-24175138D01*
X231006480Y-24460852D02*
X230006480Y-24460852D01*
X230149338Y-24365614D01*
X230244576Y-24270376D01*
X230292195Y-24175138D01*
X211957680Y-21437042D02*
X210957680Y-21437042D01*
X210957680Y-21675138D01*
X211005300Y-21817995D01*
X211100538Y-21913233D01*
X211195776Y-21960852D01*
X211386252Y-22008471D01*
X211529109Y-22008471D01*
X211719585Y-21960852D01*
X211814823Y-21913233D01*
X211910061Y-21817995D01*
X211957680Y-21675138D01*
X211957680Y-21437042D01*
X212052919Y-22198947D02*
X212052919Y-22960852D01*
X210957680Y-23389423D02*
X210957680Y-23579900D01*
X211005300Y-23675138D01*
X211100538Y-23770376D01*
X211291014Y-23817995D01*
X211624347Y-23817995D01*
X211814823Y-23770376D01*
X211910061Y-23675138D01*
X211957680Y-23579900D01*
X211957680Y-23389423D01*
X211910061Y-23294185D01*
X211814823Y-23198947D01*
X211624347Y-23151328D01*
X211291014Y-23151328D01*
X211100538Y-23198947D01*
X211005300Y-23294185D01*
X210957680Y-23389423D01*
X211957680Y-24770376D02*
X211957680Y-24198947D01*
X211957680Y-24484661D02*
X210957680Y-24484661D01*
X211100538Y-24389423D01*
X211195776Y-24294185D01*
X211243395Y-24198947D01*
X169097880Y-59409442D02*
X168097880Y-59409442D01*
X168097880Y-59647538D01*
X168145500Y-59790395D01*
X168240738Y-59885633D01*
X168335976Y-59933252D01*
X168526452Y-59980871D01*
X168669309Y-59980871D01*
X168859785Y-59933252D01*
X168955023Y-59885633D01*
X169050261Y-59790395D01*
X169097880Y-59647538D01*
X169097880Y-59409442D01*
X169193119Y-60171347D02*
X169193119Y-60933252D01*
X169097880Y-61171347D02*
X168097880Y-61171347D01*
X169097880Y-61742776D01*
X168097880Y-61742776D01*
X169097880Y-62742776D02*
X169097880Y-62171347D01*
X169097880Y-62457061D02*
X168097880Y-62457061D01*
X168240738Y-62361823D01*
X168335976Y-62266585D01*
X168383595Y-62171347D01*
X211957680Y-76773919D02*
X210957680Y-76773919D01*
X210957680Y-77012014D01*
X211005300Y-77154871D01*
X211100538Y-77250109D01*
X211195776Y-77297728D01*
X211386252Y-77345347D01*
X211529109Y-77345347D01*
X211719585Y-77297728D01*
X211814823Y-77250109D01*
X211910061Y-77154871D01*
X211957680Y-77012014D01*
X211957680Y-76773919D01*
X212052919Y-77535823D02*
X212052919Y-78297728D01*
X211957680Y-78535823D02*
X210957680Y-78535823D01*
X211671966Y-78869157D01*
X210957680Y-79202490D01*
X211957680Y-79202490D01*
X211957680Y-79678680D02*
X210957680Y-79678680D01*
X211957680Y-80154871D02*
X210957680Y-80154871D01*
X211957680Y-80726300D01*
X210957680Y-80726300D01*
X210957680Y-81202490D02*
X211767204Y-81202490D01*
X211862442Y-81250109D01*
X211910061Y-81297728D01*
X211957680Y-81392966D01*
X211957680Y-81583442D01*
X211910061Y-81678680D01*
X211862442Y-81726300D01*
X211767204Y-81773919D01*
X210957680Y-81773919D01*
X211910061Y-82202490D02*
X211957680Y-82345347D01*
X211957680Y-82583442D01*
X211910061Y-82678680D01*
X211862442Y-82726300D01*
X211767204Y-82773919D01*
X211671966Y-82773919D01*
X211576728Y-82726300D01*
X211529109Y-82678680D01*
X211481490Y-82583442D01*
X211433871Y-82392966D01*
X211386252Y-82297728D01*
X211338633Y-82250109D01*
X211243395Y-82202490D01*
X211148157Y-82202490D01*
X211052919Y-82250109D01*
X211005300Y-82297728D01*
X210957680Y-82392966D01*
X210957680Y-82631061D01*
X211005300Y-82773919D01*
X211957680Y-83726300D02*
X211957680Y-83154871D01*
X211957680Y-83440585D02*
X210957680Y-83440585D01*
X211100538Y-83345347D01*
X211195776Y-83250109D01*
X211243395Y-83154871D01*
X188146680Y-59361823D02*
X187146680Y-59361823D01*
X187146680Y-59599919D01*
X187194300Y-59742776D01*
X187289538Y-59838014D01*
X187384776Y-59885633D01*
X187575252Y-59933252D01*
X187718109Y-59933252D01*
X187908585Y-59885633D01*
X188003823Y-59838014D01*
X188099061Y-59742776D01*
X188146680Y-59599919D01*
X188146680Y-59361823D01*
X188241919Y-60123728D02*
X188241919Y-60885633D01*
X188146680Y-61123728D02*
X187146680Y-61123728D01*
X187860966Y-61457061D01*
X187146680Y-61790395D01*
X188146680Y-61790395D01*
X188146680Y-62790395D02*
X188146680Y-62218966D01*
X188146680Y-62504680D02*
X187146680Y-62504680D01*
X187289538Y-62409442D01*
X187384776Y-62314204D01*
X187432395Y-62218966D01*
X216719880Y-40479690D02*
X215719880Y-40479690D01*
X215719880Y-40717785D01*
X215767500Y-40860642D01*
X215862738Y-40955880D01*
X215957976Y-41003500D01*
X216148452Y-41051119D01*
X216291309Y-41051119D01*
X216481785Y-41003500D01*
X216577023Y-40955880D01*
X216672261Y-40860642D01*
X216719880Y-40717785D01*
X216719880Y-40479690D01*
X216815119Y-41241595D02*
X216815119Y-42003500D01*
X216719880Y-42717785D02*
X216719880Y-42241595D01*
X215719880Y-42241595D01*
X216719880Y-43574928D02*
X216719880Y-43003500D01*
X216719880Y-43289214D02*
X215719880Y-43289214D01*
X215862738Y-43193976D01*
X215957976Y-43098738D01*
X216005595Y-43003500D01*
X197671080Y-40384452D02*
X196671080Y-40384452D01*
X196671080Y-40622547D01*
X196718700Y-40765404D01*
X196813938Y-40860642D01*
X196909176Y-40908261D01*
X197099652Y-40955880D01*
X197242509Y-40955880D01*
X197432985Y-40908261D01*
X197528223Y-40860642D01*
X197623461Y-40765404D01*
X197671080Y-40622547D01*
X197671080Y-40384452D01*
X197766319Y-41146357D02*
X197766319Y-41908261D01*
X197671080Y-42146357D02*
X196671080Y-42146357D01*
X197671080Y-42717785D02*
X197099652Y-42289214D01*
X196671080Y-42717785D02*
X197242509Y-42146357D01*
X197671080Y-43670166D02*
X197671080Y-43098738D01*
X197671080Y-43384452D02*
X196671080Y-43384452D01*
X196813938Y-43289214D01*
X196909176Y-43193976D01*
X196956795Y-43098738D01*
X178622280Y-40503500D02*
X177622280Y-40503500D01*
X177622280Y-40741595D01*
X177669900Y-40884452D01*
X177765138Y-40979690D01*
X177860376Y-41027309D01*
X178050852Y-41074928D01*
X178193709Y-41074928D01*
X178384185Y-41027309D01*
X178479423Y-40979690D01*
X178574661Y-40884452D01*
X178622280Y-40741595D01*
X178622280Y-40503500D01*
X178717519Y-41265404D02*
X178717519Y-42027309D01*
X177622280Y-42551119D02*
X178336566Y-42551119D01*
X178479423Y-42503500D01*
X178574661Y-42408261D01*
X178622280Y-42265404D01*
X178622280Y-42170166D01*
X178622280Y-43551119D02*
X178622280Y-42979690D01*
X178622280Y-43265404D02*
X177622280Y-43265404D01*
X177765138Y-43170166D01*
X177860376Y-43074928D01*
X177907995Y-42979690D01*
X192908880Y-21722757D02*
X191908880Y-21722757D01*
X191908880Y-21960852D01*
X191956500Y-22103709D01*
X192051738Y-22198947D01*
X192146976Y-22246566D01*
X192337452Y-22294185D01*
X192480309Y-22294185D01*
X192670785Y-22246566D01*
X192766023Y-22198947D01*
X192861261Y-22103709D01*
X192908880Y-21960852D01*
X192908880Y-21722757D01*
X193004119Y-22484661D02*
X193004119Y-23246566D01*
X192908880Y-23484661D02*
X191908880Y-23484661D01*
X192908880Y-24484661D02*
X192908880Y-23913233D01*
X192908880Y-24198947D02*
X191908880Y-24198947D01*
X192051738Y-24103709D01*
X192146976Y-24008471D01*
X192194595Y-23913233D01*
X159573480Y-40423242D02*
X158573480Y-40423242D01*
X158573480Y-40661338D01*
X158621100Y-40804195D01*
X158716338Y-40899433D01*
X158811576Y-40947052D01*
X159002052Y-40994671D01*
X159144909Y-40994671D01*
X159335385Y-40947052D01*
X159430623Y-40899433D01*
X159525861Y-40804195D01*
X159573480Y-40661338D01*
X159573480Y-40423242D01*
X159668719Y-41185147D02*
X159668719Y-41947052D01*
X159573480Y-42185147D02*
X158573480Y-42185147D01*
X159049671Y-42185147D02*
X159049671Y-42756576D01*
X159573480Y-42756576D02*
X158573480Y-42756576D01*
X159573480Y-43756576D02*
X159573480Y-43185147D01*
X159573480Y-43470861D02*
X158573480Y-43470861D01*
X158716338Y-43375623D01*
X158811576Y-43280385D01*
X158859195Y-43185147D01*
X140524680Y-40384452D02*
X139524680Y-40384452D01*
X139524680Y-40622547D01*
X139572300Y-40765404D01*
X139667538Y-40860642D01*
X139762776Y-40908261D01*
X139953252Y-40955880D01*
X140096109Y-40955880D01*
X140286585Y-40908261D01*
X140381823Y-40860642D01*
X140477061Y-40765404D01*
X140524680Y-40622547D01*
X140524680Y-40384452D01*
X140619919Y-41146357D02*
X140619919Y-41908261D01*
X139572300Y-42670166D02*
X139524680Y-42574928D01*
X139524680Y-42432071D01*
X139572300Y-42289214D01*
X139667538Y-42193976D01*
X139762776Y-42146357D01*
X139953252Y-42098738D01*
X140096109Y-42098738D01*
X140286585Y-42146357D01*
X140381823Y-42193976D01*
X140477061Y-42289214D01*
X140524680Y-42432071D01*
X140524680Y-42527309D01*
X140477061Y-42670166D01*
X140429442Y-42717785D01*
X140096109Y-42717785D01*
X140096109Y-42527309D01*
X140524680Y-43670166D02*
X140524680Y-43098738D01*
X140524680Y-43384452D02*
X139524680Y-43384452D01*
X139667538Y-43289214D01*
X139762776Y-43193976D01*
X139810395Y-43098738D01*
X121475880Y-40455880D02*
X120475880Y-40455880D01*
X120475880Y-40693976D01*
X120523500Y-40836833D01*
X120618738Y-40932071D01*
X120713976Y-40979690D01*
X120904452Y-41027309D01*
X121047309Y-41027309D01*
X121237785Y-40979690D01*
X121333023Y-40932071D01*
X121428261Y-40836833D01*
X121475880Y-40693976D01*
X121475880Y-40455880D01*
X121571119Y-41217785D02*
X121571119Y-41979690D01*
X120952071Y-42551119D02*
X120952071Y-42217785D01*
X121475880Y-42217785D02*
X120475880Y-42217785D01*
X120475880Y-42693976D01*
X121475880Y-43598738D02*
X121475880Y-43027309D01*
X121475880Y-43313023D02*
X120475880Y-43313023D01*
X120618738Y-43217785D01*
X120713976Y-43122547D01*
X120761595Y-43027309D01*
X230212780Y-76711319D02*
X229212780Y-76711319D01*
X229212780Y-76949414D01*
X229260400Y-77092271D01*
X229355638Y-77187509D01*
X229450876Y-77235128D01*
X229641352Y-77282747D01*
X229784209Y-77282747D01*
X229974685Y-77235128D01*
X230069923Y-77187509D01*
X230165161Y-77092271D01*
X230212780Y-76949414D01*
X230212780Y-76711319D01*
X230308019Y-77473223D02*
X230308019Y-78235128D01*
X229688971Y-78473223D02*
X229688971Y-78806557D01*
X230212780Y-78949414D02*
X230212780Y-78473223D01*
X229212780Y-78473223D01*
X229212780Y-78949414D01*
X230308019Y-80044652D02*
X230260400Y-79949414D01*
X230165161Y-79854176D01*
X230022304Y-79711319D01*
X229974685Y-79616080D01*
X229974685Y-79520842D01*
X230212780Y-79568461D02*
X230165161Y-79473223D01*
X230069923Y-79377985D01*
X229879447Y-79330366D01*
X229546114Y-79330366D01*
X229355638Y-79377985D01*
X229260400Y-79473223D01*
X229212780Y-79568461D01*
X229212780Y-79758938D01*
X229260400Y-79854176D01*
X229355638Y-79949414D01*
X229546114Y-79997033D01*
X229879447Y-79997033D01*
X230069923Y-79949414D01*
X230165161Y-79854176D01*
X230212780Y-79758938D01*
X230212780Y-79568461D01*
X229212780Y-80425604D02*
X230022304Y-80425604D01*
X230117542Y-80473223D01*
X230165161Y-80520842D01*
X230212780Y-80616080D01*
X230212780Y-80806557D01*
X230165161Y-80901795D01*
X230117542Y-80949414D01*
X230022304Y-80997033D01*
X229212780Y-80997033D01*
X229927066Y-81425604D02*
X229927066Y-81901795D01*
X230212780Y-81330366D02*
X229212780Y-81663700D01*
X230212780Y-81997033D01*
X230212780Y-82806557D02*
X230212780Y-82330366D01*
X229212780Y-82330366D01*
X230212780Y-83663700D02*
X230212780Y-83092271D01*
X230212780Y-83377985D02*
X229212780Y-83377985D01*
X229355638Y-83282747D01*
X229450876Y-83187509D01*
X229498495Y-83092271D01*
X97664880Y-21383271D02*
X96664880Y-21383271D01*
X96664880Y-21621366D01*
X96712500Y-21764223D01*
X96807738Y-21859461D01*
X96902976Y-21907080D01*
X97093452Y-21954700D01*
X97236309Y-21954700D01*
X97426785Y-21907080D01*
X97522023Y-21859461D01*
X97617261Y-21764223D01*
X97664880Y-21621366D01*
X97664880Y-21383271D01*
X97760119Y-22145176D02*
X97760119Y-22907080D01*
X97141071Y-23145176D02*
X97141071Y-23478509D01*
X97664880Y-23621366D02*
X97664880Y-23145176D01*
X96664880Y-23145176D01*
X96664880Y-23621366D01*
X97664880Y-24573747D02*
X97664880Y-24002319D01*
X97664880Y-24288033D02*
X96664880Y-24288033D01*
X96807738Y-24192795D01*
X96902976Y-24097557D01*
X96950595Y-24002319D01*
X226244280Y-58528490D02*
X225244280Y-58528490D01*
X225244280Y-58766585D01*
X225291900Y-58909442D01*
X225387138Y-59004680D01*
X225482376Y-59052300D01*
X225672852Y-59099919D01*
X225815709Y-59099919D01*
X226006185Y-59052300D01*
X226101423Y-59004680D01*
X226196661Y-58909442D01*
X226244280Y-58766585D01*
X226244280Y-58528490D01*
X226339519Y-59290395D02*
X226339519Y-60052300D01*
X226244280Y-60290395D02*
X225244280Y-60290395D01*
X225244280Y-60528490D01*
X225291900Y-60671347D01*
X225387138Y-60766585D01*
X225482376Y-60814204D01*
X225672852Y-60861823D01*
X225815709Y-60861823D01*
X226006185Y-60814204D01*
X226101423Y-60766585D01*
X226196661Y-60671347D01*
X226244280Y-60528490D01*
X226244280Y-60290395D01*
X225244280Y-61480871D02*
X225244280Y-61671347D01*
X225291900Y-61766585D01*
X225387138Y-61861823D01*
X225577614Y-61909442D01*
X225910947Y-61909442D01*
X226101423Y-61861823D01*
X226196661Y-61766585D01*
X226244280Y-61671347D01*
X226244280Y-61480871D01*
X226196661Y-61385633D01*
X226101423Y-61290395D01*
X225910947Y-61242776D01*
X225577614Y-61242776D01*
X225387138Y-61290395D01*
X225291900Y-61385633D01*
X225244280Y-61480871D01*
X225244280Y-62195157D02*
X225244280Y-62766585D01*
X226244280Y-62480871D02*
X225244280Y-62480871D01*
X226244280Y-63623728D02*
X226244280Y-63052300D01*
X226244280Y-63338014D02*
X225244280Y-63338014D01*
X225387138Y-63242776D01*
X225482376Y-63147538D01*
X225529995Y-63052300D01*
X102427080Y-40384452D02*
X101427080Y-40384452D01*
X101427080Y-40622547D01*
X101474700Y-40765404D01*
X101569938Y-40860642D01*
X101665176Y-40908261D01*
X101855652Y-40955880D01*
X101998509Y-40955880D01*
X102188985Y-40908261D01*
X102284223Y-40860642D01*
X102379461Y-40765404D01*
X102427080Y-40622547D01*
X102427080Y-40384452D01*
X102522319Y-41146357D02*
X102522319Y-41908261D01*
X102427080Y-42146357D02*
X101427080Y-42146357D01*
X101427080Y-42384452D01*
X101474700Y-42527309D01*
X101569938Y-42622547D01*
X101665176Y-42670166D01*
X101855652Y-42717785D01*
X101998509Y-42717785D01*
X102188985Y-42670166D01*
X102284223Y-42622547D01*
X102379461Y-42527309D01*
X102427080Y-42384452D01*
X102427080Y-42146357D01*
X102427080Y-43670166D02*
X102427080Y-43098738D01*
X102427080Y-43384452D02*
X101427080Y-43384452D01*
X101569938Y-43289214D01*
X101665176Y-43193976D01*
X101712795Y-43098738D01*
X45280680Y-39161338D02*
X44280680Y-39161338D01*
X44280680Y-39399433D01*
X44328300Y-39542290D01*
X44423538Y-39637528D01*
X44518776Y-39685147D01*
X44709252Y-39732766D01*
X44852109Y-39732766D01*
X45042585Y-39685147D01*
X45137823Y-39637528D01*
X45233061Y-39542290D01*
X45280680Y-39399433D01*
X45280680Y-39161338D01*
X45375919Y-39923242D02*
X45375919Y-40685147D01*
X45185442Y-41494671D02*
X45233061Y-41447052D01*
X45280680Y-41304195D01*
X45280680Y-41208957D01*
X45233061Y-41066100D01*
X45137823Y-40970861D01*
X45042585Y-40923242D01*
X44852109Y-40875623D01*
X44709252Y-40875623D01*
X44518776Y-40923242D01*
X44423538Y-40970861D01*
X44328300Y-41066100D01*
X44280680Y-41208957D01*
X44280680Y-41304195D01*
X44328300Y-41447052D01*
X44375919Y-41494671D01*
X44280680Y-41780385D02*
X44280680Y-42351814D01*
X45280680Y-42066100D02*
X44280680Y-42066100D01*
X45280680Y-43256576D02*
X44804490Y-42923242D01*
X45280680Y-42685147D02*
X44280680Y-42685147D01*
X44280680Y-43066100D01*
X44328300Y-43161338D01*
X44375919Y-43208957D01*
X44471157Y-43256576D01*
X44614014Y-43256576D01*
X44709252Y-43208957D01*
X44756871Y-43161338D01*
X44804490Y-43066100D01*
X44804490Y-42685147D01*
X45280680Y-44161338D02*
X45280680Y-43685147D01*
X44280680Y-43685147D01*
X44375919Y-44447052D02*
X44328300Y-44494671D01*
X44280680Y-44589909D01*
X44280680Y-44828004D01*
X44328300Y-44923242D01*
X44375919Y-44970861D01*
X44471157Y-45018480D01*
X44566395Y-45018480D01*
X44709252Y-44970861D01*
X45280680Y-44399433D01*
X45280680Y-45018480D01*
X59567280Y-77258938D02*
X58567280Y-77258938D01*
X58567280Y-77497033D01*
X58614900Y-77639890D01*
X58710138Y-77735128D01*
X58805376Y-77782747D01*
X58995852Y-77830366D01*
X59138709Y-77830366D01*
X59329185Y-77782747D01*
X59424423Y-77735128D01*
X59519661Y-77639890D01*
X59567280Y-77497033D01*
X59567280Y-77258938D01*
X59662519Y-78020842D02*
X59662519Y-78782747D01*
X59472042Y-79592271D02*
X59519661Y-79544652D01*
X59567280Y-79401795D01*
X59567280Y-79306557D01*
X59519661Y-79163700D01*
X59424423Y-79068461D01*
X59329185Y-79020842D01*
X59138709Y-78973223D01*
X58995852Y-78973223D01*
X58805376Y-79020842D01*
X58710138Y-79068461D01*
X58614900Y-79163700D01*
X58567280Y-79306557D01*
X58567280Y-79401795D01*
X58614900Y-79544652D01*
X58662519Y-79592271D01*
X58567280Y-79877985D02*
X58567280Y-80449414D01*
X59567280Y-80163700D02*
X58567280Y-80163700D01*
X59567280Y-81354176D02*
X59091090Y-81020842D01*
X59567280Y-80782747D02*
X58567280Y-80782747D01*
X58567280Y-81163700D01*
X58614900Y-81258938D01*
X58662519Y-81306557D01*
X58757757Y-81354176D01*
X58900614Y-81354176D01*
X58995852Y-81306557D01*
X59043471Y-81258938D01*
X59091090Y-81163700D01*
X59091090Y-80782747D01*
X59567280Y-82258938D02*
X59567280Y-81782747D01*
X58567280Y-81782747D01*
X59567280Y-83116080D02*
X59567280Y-82544652D01*
X59567280Y-82830366D02*
X58567280Y-82830366D01*
X58710138Y-82735128D01*
X58805376Y-82639890D01*
X58852995Y-82544652D01*
X207195480Y-57338014D02*
X206195480Y-57338014D01*
X206195480Y-57576109D01*
X206243100Y-57718966D01*
X206338338Y-57814204D01*
X206433576Y-57861823D01*
X206624052Y-57909442D01*
X206766909Y-57909442D01*
X206957385Y-57861823D01*
X207052623Y-57814204D01*
X207147861Y-57718966D01*
X207195480Y-57576109D01*
X207195480Y-57338014D01*
X207290719Y-58099919D02*
X207290719Y-58861823D01*
X207100242Y-59671347D02*
X207147861Y-59623728D01*
X207195480Y-59480871D01*
X207195480Y-59385633D01*
X207147861Y-59242776D01*
X207052623Y-59147538D01*
X206957385Y-59099919D01*
X206766909Y-59052300D01*
X206624052Y-59052300D01*
X206433576Y-59099919D01*
X206338338Y-59147538D01*
X206243100Y-59242776D01*
X206195480Y-59385633D01*
X206195480Y-59480871D01*
X206243100Y-59623728D01*
X206290719Y-59671347D01*
X206195480Y-60290395D02*
X206195480Y-60480871D01*
X206243100Y-60576109D01*
X206338338Y-60671347D01*
X206528814Y-60718966D01*
X206862147Y-60718966D01*
X207052623Y-60671347D01*
X207147861Y-60576109D01*
X207195480Y-60480871D01*
X207195480Y-60290395D01*
X207147861Y-60195157D01*
X207052623Y-60099919D01*
X206862147Y-60052300D01*
X206528814Y-60052300D01*
X206338338Y-60099919D01*
X206243100Y-60195157D01*
X206195480Y-60290395D01*
X207195480Y-61147538D02*
X206195480Y-61147538D01*
X206909766Y-61480871D01*
X206195480Y-61814204D01*
X207195480Y-61814204D01*
X207195480Y-62290395D02*
X206195480Y-62290395D01*
X206909766Y-62623728D01*
X206195480Y-62957061D01*
X207195480Y-62957061D01*
X206909766Y-63385633D02*
X206909766Y-63861823D01*
X207195480Y-63290395D02*
X206195480Y-63623728D01*
X207195480Y-63957061D01*
X207195480Y-64814204D02*
X207195480Y-64242776D01*
X207195480Y-64528490D02*
X206195480Y-64528490D01*
X206338338Y-64433252D01*
X206433576Y-64338014D01*
X206481195Y-64242776D01*
X111951480Y-59433252D02*
X110951480Y-59433252D01*
X110951480Y-59671347D01*
X110999100Y-59814204D01*
X111094338Y-59909442D01*
X111189576Y-59957061D01*
X111380052Y-60004680D01*
X111522909Y-60004680D01*
X111713385Y-59957061D01*
X111808623Y-59909442D01*
X111903861Y-59814204D01*
X111951480Y-59671347D01*
X111951480Y-59433252D01*
X112046719Y-60195157D02*
X112046719Y-60957061D01*
X111856242Y-61766585D02*
X111903861Y-61718966D01*
X111951480Y-61576109D01*
X111951480Y-61480871D01*
X111903861Y-61338014D01*
X111808623Y-61242776D01*
X111713385Y-61195157D01*
X111522909Y-61147538D01*
X111380052Y-61147538D01*
X111189576Y-61195157D01*
X111094338Y-61242776D01*
X110999100Y-61338014D01*
X110951480Y-61480871D01*
X110951480Y-61576109D01*
X110999100Y-61718966D01*
X111046719Y-61766585D01*
X111951480Y-62718966D02*
X111951480Y-62147538D01*
X111951480Y-62433252D02*
X110951480Y-62433252D01*
X111094338Y-62338014D01*
X111189576Y-62242776D01*
X111237195Y-62147538D01*
X250055280Y-19579900D02*
X249055280Y-19579900D01*
X249055280Y-19817995D01*
X249102900Y-19960852D01*
X249198138Y-20056090D01*
X249293376Y-20103709D01*
X249483852Y-20151328D01*
X249626709Y-20151328D01*
X249817185Y-20103709D01*
X249912423Y-20056090D01*
X250007661Y-19960852D01*
X250055280Y-19817995D01*
X250055280Y-19579900D01*
X250150519Y-20341804D02*
X250150519Y-21103709D01*
X249531471Y-21675138D02*
X249579090Y-21817995D01*
X249626709Y-21865614D01*
X249721947Y-21913233D01*
X249864804Y-21913233D01*
X249960042Y-21865614D01*
X250007661Y-21817995D01*
X250055280Y-21722757D01*
X250055280Y-21341804D01*
X249055280Y-21341804D01*
X249055280Y-21675138D01*
X249102900Y-21770376D01*
X249150519Y-21817995D01*
X249245757Y-21865614D01*
X249340995Y-21865614D01*
X249436233Y-21817995D01*
X249483852Y-21770376D01*
X249531471Y-21675138D01*
X249531471Y-21341804D01*
X250007661Y-22294185D02*
X250055280Y-22437042D01*
X250055280Y-22675138D01*
X250007661Y-22770376D01*
X249960042Y-22817995D01*
X249864804Y-22865614D01*
X249769566Y-22865614D01*
X249674328Y-22817995D01*
X249626709Y-22770376D01*
X249579090Y-22675138D01*
X249531471Y-22484661D01*
X249483852Y-22389423D01*
X249436233Y-22341804D01*
X249340995Y-22294185D01*
X249245757Y-22294185D01*
X249150519Y-22341804D01*
X249102900Y-22389423D01*
X249055280Y-22484661D01*
X249055280Y-22722757D01*
X249102900Y-22865614D01*
X250055280Y-23770376D02*
X250055280Y-23294185D01*
X249055280Y-23294185D01*
X250007661Y-24056090D02*
X250055280Y-24198947D01*
X250055280Y-24437042D01*
X250007661Y-24532280D01*
X249960042Y-24579900D01*
X249864804Y-24627519D01*
X249769566Y-24627519D01*
X249674328Y-24579900D01*
X249626709Y-24532280D01*
X249579090Y-24437042D01*
X249531471Y-24246566D01*
X249483852Y-24151328D01*
X249436233Y-24103709D01*
X249340995Y-24056090D01*
X249245757Y-24056090D01*
X249150519Y-24103709D01*
X249102900Y-24151328D01*
X249055280Y-24246566D01*
X249055280Y-24484661D01*
X249102900Y-24627519D01*
X250055280Y-25056090D02*
X249055280Y-25056090D01*
X249531471Y-25056090D02*
X249531471Y-25627519D01*
X250055280Y-25627519D02*
X249055280Y-25627519D01*
X250055280Y-26627519D02*
X250055280Y-26056090D01*
X250055280Y-26341804D02*
X249055280Y-26341804D01*
X249198138Y-26246566D01*
X249293376Y-26151328D01*
X249340995Y-26056090D01*
X150049080Y-59495852D02*
X149049080Y-59495852D01*
X149049080Y-59733947D01*
X149096700Y-59876804D01*
X149191938Y-59972042D01*
X149287176Y-60019661D01*
X149477652Y-60067280D01*
X149620509Y-60067280D01*
X149810985Y-60019661D01*
X149906223Y-59972042D01*
X150001461Y-59876804D01*
X150049080Y-59733947D01*
X150049080Y-59495852D01*
X150144319Y-60257757D02*
X150144319Y-61019661D01*
X149525271Y-61591090D02*
X149572890Y-61733947D01*
X149620509Y-61781566D01*
X149715747Y-61829185D01*
X149858604Y-61829185D01*
X149953842Y-61781566D01*
X150001461Y-61733947D01*
X150049080Y-61638709D01*
X150049080Y-61257757D01*
X149049080Y-61257757D01*
X149049080Y-61591090D01*
X149096700Y-61686328D01*
X149144319Y-61733947D01*
X149239557Y-61781566D01*
X149334795Y-61781566D01*
X149430033Y-61733947D01*
X149477652Y-61686328D01*
X149525271Y-61591090D01*
X149525271Y-61257757D01*
X150049080Y-62781566D02*
X150049080Y-62210138D01*
X150049080Y-62495852D02*
X149049080Y-62495852D01*
X149191938Y-62400614D01*
X149287176Y-62305376D01*
X149334795Y-62210138D01*
X97664880Y-77767766D02*
X96664880Y-77767766D01*
X96664880Y-78005861D01*
X96712500Y-78148719D01*
X96807738Y-78243957D01*
X96902976Y-78291576D01*
X97093452Y-78339195D01*
X97236309Y-78339195D01*
X97426785Y-78291576D01*
X97522023Y-78243957D01*
X97617261Y-78148719D01*
X97664880Y-78005861D01*
X97664880Y-77767766D01*
X97760119Y-78529671D02*
X97760119Y-79291576D01*
X97379166Y-79482052D02*
X97379166Y-79958242D01*
X97664880Y-79386814D02*
X96664880Y-79720147D01*
X97664880Y-80053480D01*
X97664880Y-80863004D02*
X97664880Y-80386814D01*
X96664880Y-80386814D01*
X96664880Y-81053480D02*
X96664880Y-81624909D01*
X97664880Y-81339195D02*
X96664880Y-81339195D01*
X97664880Y-82482052D02*
X97664880Y-81910623D01*
X97664880Y-82196338D02*
X96664880Y-82196338D01*
X96807738Y-82101100D01*
X96902976Y-82005861D01*
X96950595Y-81910623D01*
X64329480Y-40455880D02*
X63329480Y-40455880D01*
X63329480Y-40693976D01*
X63377100Y-40836833D01*
X63472338Y-40932071D01*
X63567576Y-40979690D01*
X63758052Y-41027309D01*
X63900909Y-41027309D01*
X64091385Y-40979690D01*
X64186623Y-40932071D01*
X64281861Y-40836833D01*
X64329480Y-40693976D01*
X64329480Y-40455880D01*
X64424719Y-41217785D02*
X64424719Y-41979690D01*
X64043766Y-42170166D02*
X64043766Y-42646357D01*
X64329480Y-42074928D02*
X63329480Y-42408261D01*
X64329480Y-42741595D01*
X64329480Y-43598738D02*
X64329480Y-43027309D01*
X64329480Y-43313023D02*
X63329480Y-43313023D01*
X63472338Y-43217785D01*
X63567576Y-43122547D01*
X63615195Y-43027309D01*
X264341880Y-59742776D02*
X263341880Y-59742776D01*
X263341880Y-59980871D01*
X263389500Y-60123728D01*
X263484738Y-60218966D01*
X263579976Y-60266585D01*
X263770452Y-60314204D01*
X263913309Y-60314204D01*
X264103785Y-60266585D01*
X264199023Y-60218966D01*
X264294261Y-60123728D01*
X264341880Y-59980871D01*
X264341880Y-59742776D01*
X264437119Y-60504680D02*
X264437119Y-61266585D01*
X263294261Y-61361823D02*
X263437119Y-61504680D01*
X264341880Y-62409442D02*
X264341880Y-61838014D01*
X264341880Y-62123728D02*
X263341880Y-62123728D01*
X263484738Y-62028490D01*
X263579976Y-61933252D01*
X263627595Y-61838014D01*
M02*
