G04 #@! TF.GenerationSoftware,KiCad,Pcbnew,(5.1.9-0-10_14)*
G04 #@! TF.CreationDate,2021-07-01T09:13:36-05:00*
G04 #@! TF.ProjectId,keyboard,6b657962-6f61-4726-942e-6b696361645f,rev?*
G04 #@! TF.SameCoordinates,Original*
G04 #@! TF.FileFunction,Profile,NP*
%FSLAX46Y46*%
G04 Gerber Fmt 4.6, Leading zero omitted, Abs format (unit mm)*
G04 Created by KiCad (PCBNEW (5.1.9-0-10_14)) date 2021-07-01 09:13:36*
%MOMM*%
%LPD*%
G01*
G04 APERTURE LIST*
G04 #@! TA.AperFunction,Profile*
%ADD10C,0.100000*%
G04 #@! TD*
G04 APERTURE END LIST*
D10*
X20636200Y-18255100D02*
G75*
G02*
X22223600Y-16667700I1587400J0D01*
G01*
X255571400Y-16667700D02*
G75*
G02*
X257158800Y-18255100I0J-1587400D01*
G01*
X258746200Y-35716500D02*
G75*
G02*
X257158800Y-34129100I0J1587400D01*
G01*
X260333600Y-35716500D02*
G75*
G02*
X261921000Y-37303900I0J-1587400D01*
G01*
X263508400Y-54765300D02*
G75*
G02*
X261921000Y-53177900I0J1587400D01*
G01*
X269858000Y-54765300D02*
G75*
G02*
X271445400Y-56352700I0J-1587400D01*
G01*
X271445400Y-80163700D02*
G75*
G02*
X269858000Y-81751100I-1587400J0D01*
G01*
X257158800Y-83338500D02*
G75*
G02*
X258746200Y-81751100I1587400J0D01*
G01*
X257158800Y-99212500D02*
G75*
G02*
X255571400Y-100799900I-1587400J0D01*
G01*
X41272400Y-100799900D02*
G75*
G02*
X39685000Y-99212500I0J1587400D01*
G01*
X38097600Y-81751100D02*
G75*
G02*
X39685000Y-83338500I0J-1587400D01*
G01*
X36510200Y-81751100D02*
G75*
G02*
X34922800Y-80163700I0J1587400D01*
G01*
X33335400Y-62702300D02*
G75*
G02*
X34922800Y-64289700I0J-1587400D01*
G01*
X26985800Y-62702300D02*
G75*
G02*
X25398400Y-61114900I0J1587400D01*
G01*
X23811000Y-43653500D02*
G75*
G02*
X25398400Y-45240900I0J-1587400D01*
G01*
X22223600Y-43653500D02*
G75*
G02*
X20636200Y-42066100I0J1587400D01*
G01*
X20636200Y-42066100D02*
X20636200Y-18255100D01*
X23811000Y-43653500D02*
X22223600Y-43653500D01*
X25398400Y-61114900D02*
X25398400Y-45240900D01*
X33335400Y-62702300D02*
X26985800Y-62702300D01*
X34922800Y-80163700D02*
X34922800Y-64289700D01*
X38097600Y-81751100D02*
X36510200Y-81751100D01*
X39685000Y-99212500D02*
X39685000Y-83338500D01*
X255571400Y-100799900D02*
X41272400Y-100799900D01*
X257158800Y-83338500D02*
X257158800Y-99212500D01*
X269858000Y-81751100D02*
X258746200Y-81751100D01*
X271445400Y-56352700D02*
X271445400Y-80163700D01*
X263508400Y-54765300D02*
X269858000Y-54765300D01*
X261921000Y-37303900D02*
X261921000Y-53177900D01*
X258746200Y-35716500D02*
X260333600Y-35716500D01*
X257158800Y-18255100D02*
X257158800Y-34129100D01*
X22223600Y-16667700D02*
X255571400Y-16667700D01*
M02*
