G04 #@! TF.GenerationSoftware,KiCad,Pcbnew,(5.1.9-0-10_14)*
G04 #@! TF.CreationDate,2021-07-01T09:13:36-05:00*
G04 #@! TF.ProjectId,keyboard,6b657962-6f61-4726-942e-6b696361645f,rev?*
G04 #@! TF.SameCoordinates,Original*
G04 #@! TF.FileFunction,Soldermask,Top*
G04 #@! TF.FilePolarity,Negative*
%FSLAX46Y46*%
G04 Gerber Fmt 4.6, Leading zero omitted, Abs format (unit mm)*
G04 Created by KiCad (PCBNEW (5.1.9-0-10_14)) date 2021-07-01 09:13:36*
%MOMM*%
%LPD*%
G01*
G04 APERTURE LIST*
%ADD10C,2.200000*%
%ADD11C,1.752600*%
%ADD12R,1.752600X1.752600*%
%ADD13C,3.987800*%
%ADD14C,1.750000*%
%ADD15C,3.048000*%
G04 APERTURE END LIST*
D10*
X141278600Y-19842500D03*
X153184100Y-97625100D03*
X254777700Y-19048800D03*
X254777700Y-98418800D03*
X42066100Y-98418800D03*
X23811000Y-19842500D03*
D11*
X28096100Y-21746900D03*
X56036100Y-36986900D03*
X30636100Y-21746900D03*
X33176100Y-21746900D03*
X35716100Y-21746900D03*
X38256100Y-21746900D03*
X40796100Y-21746900D03*
X43336100Y-21746900D03*
X45876100Y-21746900D03*
X48416100Y-21746900D03*
X50956100Y-21746900D03*
X53496100Y-21746900D03*
X56036100Y-21746900D03*
X53496100Y-36986900D03*
X50956100Y-36986900D03*
X48416100Y-36986900D03*
X45876100Y-36986900D03*
X43336100Y-36986900D03*
X40796100Y-36986900D03*
X38256100Y-36986900D03*
X35716100Y-36986900D03*
X33176100Y-36986900D03*
X30636100Y-36986900D03*
D12*
X28096100Y-36986900D03*
D13*
X67464500Y-68258200D03*
D14*
X62384500Y-68258200D03*
X72544500Y-68258200D03*
D13*
X148421900Y-30160600D03*
D14*
X143341900Y-30160600D03*
X153501900Y-30160600D03*
D13*
X86513300Y-68258200D03*
D14*
X81433300Y-68258200D03*
X91593300Y-68258200D03*
D13*
X72226700Y-87307000D03*
D14*
X67146700Y-87307000D03*
X77306700Y-87307000D03*
D13*
X72226700Y-30160600D03*
D14*
X67146700Y-30160600D03*
X77306700Y-30160600D03*
D13*
X124610900Y-68258200D03*
D14*
X119530900Y-68258200D03*
X129690900Y-68258200D03*
D13*
X167470700Y-30160600D03*
D14*
X162390700Y-30160600D03*
X172550700Y-30160600D03*
D13*
X34129100Y-30160600D03*
D14*
X29049100Y-30160600D03*
X39209100Y-30160600D03*
D13*
X129373100Y-30160600D03*
D14*
X124293100Y-30160600D03*
X134453100Y-30160600D03*
D13*
X126992000Y-87307000D03*
D14*
X121912000Y-87307000D03*
X132072000Y-87307000D03*
D15*
X115085750Y-80322000D03*
X138898250Y-80322000D03*
D13*
X115085750Y-95562000D03*
X138898250Y-95562000D03*
X243665900Y-87307000D03*
D14*
X238585900Y-87307000D03*
X248745900Y-87307000D03*
D13*
X174614000Y-87307000D03*
D14*
X169534000Y-87307000D03*
X179694000Y-87307000D03*
D15*
X162707750Y-80322000D03*
X186520250Y-80322000D03*
D13*
X162707750Y-95562000D03*
X186520250Y-95562000D03*
X238903700Y-68258200D03*
D14*
X233823700Y-68258200D03*
X243983700Y-68258200D03*
D13*
X48415700Y-68258200D03*
D14*
X43335700Y-68258200D03*
X53495700Y-68258200D03*
D13*
X229379300Y-49209400D03*
D14*
X224299300Y-49209400D03*
X234459300Y-49209400D03*
D13*
X76988900Y-49209400D03*
D14*
X71908900Y-49209400D03*
X82068900Y-49209400D03*
D13*
X110324300Y-30160600D03*
D14*
X105244300Y-30160600D03*
X115404300Y-30160600D03*
D13*
X248428100Y-49209400D03*
D14*
X243348100Y-49209400D03*
X253508100Y-49209400D03*
D13*
X53177900Y-30160600D03*
D14*
X48097900Y-30160600D03*
X58257900Y-30160600D03*
D13*
X224617100Y-30160600D03*
D14*
X219537100Y-30160600D03*
X229697100Y-30160600D03*
D13*
X205568300Y-30160600D03*
D14*
X200488300Y-30160600D03*
X210648300Y-30160600D03*
D13*
X162708500Y-68258200D03*
D14*
X157628500Y-68258200D03*
X167788500Y-68258200D03*
D13*
X205568300Y-87307000D03*
D14*
X200488300Y-87307000D03*
X210648300Y-87307000D03*
D13*
X181757300Y-68258200D03*
D14*
X176677300Y-68258200D03*
X186837300Y-68258200D03*
D13*
X210330500Y-49209400D03*
D14*
X205250500Y-49209400D03*
X215410500Y-49209400D03*
D13*
X191281700Y-49209400D03*
D14*
X186201700Y-49209400D03*
X196361700Y-49209400D03*
D13*
X172232900Y-49209400D03*
D14*
X167152900Y-49209400D03*
X177312900Y-49209400D03*
D13*
X186519500Y-30160600D03*
D14*
X181439500Y-30160600D03*
X191599500Y-30160600D03*
D13*
X153184100Y-49209400D03*
D14*
X148104100Y-49209400D03*
X158264100Y-49209400D03*
D13*
X134135300Y-49209400D03*
D14*
X129055300Y-49209400D03*
X139215300Y-49209400D03*
D13*
X115086500Y-49209400D03*
D14*
X110006500Y-49209400D03*
X120166500Y-49209400D03*
D13*
X224617100Y-87307000D03*
D14*
X219537100Y-87307000D03*
X229697100Y-87307000D03*
D13*
X91275500Y-30160600D03*
D14*
X86195500Y-30160600D03*
X96355500Y-30160600D03*
D13*
X219854900Y-68258200D03*
D14*
X214774900Y-68258200D03*
X224934900Y-68258200D03*
D13*
X96037700Y-49209400D03*
D14*
X90957700Y-49209400D03*
X101117700Y-49209400D03*
D13*
X38891300Y-49209400D03*
D14*
X33811300Y-49209400D03*
X43971300Y-49209400D03*
D13*
X53177900Y-87307000D03*
D14*
X48097900Y-87307000D03*
X58257900Y-87307000D03*
D13*
X200806100Y-68258200D03*
D14*
X195726100Y-68258200D03*
X205886100Y-68258200D03*
D13*
X105562100Y-68258200D03*
D14*
X100482100Y-68258200D03*
X110642100Y-68258200D03*
D13*
X243665900Y-30160600D03*
D14*
X238585900Y-30160600D03*
X248745900Y-30160600D03*
D13*
X143659700Y-68258200D03*
D14*
X138579700Y-68258200D03*
X148739700Y-68258200D03*
D13*
X91275500Y-87307000D03*
D14*
X86195500Y-87307000D03*
X96355500Y-87307000D03*
D13*
X57940100Y-49209400D03*
D14*
X52860100Y-49209400D03*
X63020100Y-49209400D03*
D13*
X257952500Y-68258200D03*
D14*
X252872500Y-68258200D03*
X263032500Y-68258200D03*
M02*
