G04 #@! TF.GenerationSoftware,KiCad,Pcbnew,(5.1.9-0-10_14)*
G04 #@! TF.CreationDate,2021-07-01T09:13:36-05:00*
G04 #@! TF.ProjectId,keyboard,6b657962-6f61-4726-942e-6b696361645f,rev?*
G04 #@! TF.SameCoordinates,Original*
G04 #@! TF.FileFunction,Paste,Bot*
G04 #@! TF.FilePolarity,Positive*
%FSLAX46Y46*%
G04 Gerber Fmt 4.6, Leading zero omitted, Abs format (unit mm)*
G04 Created by KiCad (PCBNEW (5.1.9-0-10_14)) date 2021-07-01 09:13:36*
%MOMM*%
%LPD*%
G01*
G04 APERTURE LIST*
%ADD10R,1.200000X0.900000*%
%ADD11R,0.900000X1.200000*%
G04 APERTURE END LIST*
D10*
X75401500Y-62827500D03*
X75401500Y-59527500D03*
X156358900Y-24729900D03*
X156358900Y-21429900D03*
X94450300Y-62764900D03*
X94450300Y-59464900D03*
X80163700Y-81751100D03*
X80163700Y-78451100D03*
X80163700Y-24667300D03*
X80163700Y-21367300D03*
X132547900Y-62702300D03*
X132547900Y-59402300D03*
X175407700Y-24729900D03*
X175407700Y-21429900D03*
D11*
X49084200Y-24604700D03*
X52384200Y-24604700D03*
D10*
X137310100Y-24729900D03*
X137310100Y-21429900D03*
X134929000Y-81751100D03*
X134929000Y-78451100D03*
X251602900Y-81876300D03*
X251602900Y-78576300D03*
X182551000Y-81813700D03*
X182551000Y-78513700D03*
X246840700Y-62827500D03*
X246840700Y-59527500D03*
X56352700Y-62764900D03*
X56352700Y-59464900D03*
X237316300Y-43653500D03*
X237316300Y-40353500D03*
X84925900Y-43653500D03*
X84925900Y-40353500D03*
X118198700Y-24729900D03*
X118198700Y-21429900D03*
X256365100Y-43653500D03*
X256365100Y-40353500D03*
X61114900Y-24667300D03*
X61114900Y-21367300D03*
X232554100Y-24729900D03*
X232554100Y-21429900D03*
X213505300Y-24729900D03*
X213505300Y-21429900D03*
X170645500Y-62702300D03*
X170645500Y-59402300D03*
X213505300Y-81876300D03*
X213505300Y-78576300D03*
X189694300Y-62702300D03*
X189694300Y-59402300D03*
X218267500Y-43653500D03*
X218267500Y-40353500D03*
X199218700Y-43653500D03*
X199218700Y-40353500D03*
X180169900Y-43653500D03*
X180169900Y-40353500D03*
X194456500Y-24729900D03*
X194456500Y-21429900D03*
X161121100Y-43716100D03*
X161121100Y-40416100D03*
X142072300Y-43653500D03*
X142072300Y-40353500D03*
X123023500Y-43653500D03*
X123023500Y-40353500D03*
X231760400Y-81813700D03*
X231760400Y-78513700D03*
X99212500Y-24604700D03*
X99212500Y-21304700D03*
X227791900Y-62702300D03*
X227791900Y-59402300D03*
X103974700Y-43653500D03*
X103974700Y-40353500D03*
X46828300Y-43716100D03*
X46828300Y-40416100D03*
X61114900Y-81813700D03*
X61114900Y-78513700D03*
X208743100Y-62702300D03*
X208743100Y-59402300D03*
X113499100Y-62702300D03*
X113499100Y-59402300D03*
X251602900Y-24729900D03*
X251602900Y-21429900D03*
X151596700Y-62764900D03*
X151596700Y-59464900D03*
X99212500Y-81751100D03*
X99212500Y-78451100D03*
X65877100Y-43653500D03*
X65877100Y-40353500D03*
X265889500Y-62702300D03*
X265889500Y-59402300D03*
M02*
